<svg xmlns="http://www.w3.org/2000/svg" xmlns:xlink="http://www.w3.org/1999/xlink" viewBox="0 0 112.8 201.75"><defs><style>.cls-1{isolation:isolate;}.cls-2{opacity:0.9;}.cls-3{fill:#fff;opacity:0;}.cls-4{fill:#fcf9fd;opacity:0.02;}.cls-10,.cls-11,.cls-12,.cls-13,.cls-14,.cls-15,.cls-16,.cls-17,.cls-18,.cls-19,.cls-20,.cls-21,.cls-22,.cls-23,.cls-24,.cls-25,.cls-26,.cls-27,.cls-28,.cls-29,.cls-30,.cls-31,.cls-32,.cls-33,.cls-34,.cls-35,.cls-36,.cls-37,.cls-38,.cls-39,.cls-4,.cls-40,.cls-41,.cls-42,.cls-43,.cls-44,.cls-5,.cls-6,.cls-7,.cls-8,.cls-9{mix-blend-mode:multiply;}.cls-5{fill:#f9f3fc;opacity:0.05;}.cls-6{fill:#f6ecfa;opacity:0.07;}.cls-7{fill:#f3e6f8;opacity:0.1;}.cls-8{fill:#f0e0f7;opacity:0.12;}.cls-9{fill:#eedaf5;opacity:0.15;}.cls-10{fill:#ebd3f3;opacity:0.17;}.cls-11{fill:#e8cdf2;opacity:0.2;}.cls-12{fill:#e5c7f0;opacity:0.22;}.cls-13{fill:#e2c1ee;opacity:0.24;}.cls-14{fill:#dfbbec;opacity:0.27;}.cls-15{fill:#dcb4eb;opacity:0.29;}.cls-16{fill:#d9aee9;opacity:0.32;}.cls-17{fill:#d6a8e7;opacity:0.34;}.cls-18{fill:#d3a2e6;opacity:0.37;}.cls-19{fill:#d19be4;opacity:0.39;}.cls-20{fill:#ce95e2;opacity:0.41;}.cls-21{fill:#cb8fe1;opacity:0.44;}.cls-22{fill:#c889df;opacity:0.46;}.cls-23{fill:#c583dd;opacity:0.49;}.cls-24{fill:#c27cdc;opacity:0.51;}.cls-25{fill:#bf76da;opacity:0.54;}.cls-26{fill:#bc70d8;opacity:0.56;}.cls-27{fill:#b96ad7;opacity:0.59;}.cls-28{fill:#b664d5;opacity:0.61;}.cls-29{fill:#b45dd3;opacity:0.63;}.cls-30{fill:#b157d2;opacity:0.66;}.cls-31{fill:#ae51d0;opacity:0.68;}.cls-32{fill:#ab4bce;opacity:0.71;}.cls-33{fill:#a844cd;opacity:0.73;}.cls-34{fill:#a53ecb;opacity:0.76;}.cls-35{fill:#a238c9;opacity:0.78;}.cls-36{fill:#9f32c7;opacity:0.8;}.cls-37{fill:#9c2cc6;opacity:0.83;}.cls-38{fill:#9925c4;opacity:0.85;}.cls-39{fill:#971fc2;opacity:0.88;}.cls-40{fill:#9419c1;opacity:0.9;}.cls-41{fill:#9113bf;opacity:0.93;}.cls-42{fill:#8e0cbd;opacity:0.95;}.cls-43{fill:#8b06bc;opacity:0.98;}.cls-44{fill:#8800ba;}.cls-45{fill:url(#linear-gradient);}.cls-46{fill:url(#linear-gradient-2);}.cls-47{fill:url(#linear-gradient-3);}.cls-48{fill:url(#linear-gradient-4);}.cls-49{fill:url(#linear-gradient-5);}.cls-50{fill:url(#linear-gradient-6);}.cls-51{fill:url(#linear-gradient-7);}.cls-52{fill:url(#linear-gradient-8);}.cls-53{fill:url(#linear-gradient-9);}.cls-54{fill:url(#linear-gradient-10);}.cls-55{fill:url(#linear-gradient-11);}.cls-56{fill:url(#linear-gradient-12);}.cls-57{fill:url(#linear-gradient-13);}.cls-58{fill:url(#linear-gradient-14);}.cls-59{fill:url(#linear-gradient-15);}.cls-60{fill:url(#linear-gradient-16);}.cls-61{fill:url(#linear-gradient-17);}.cls-62{fill:url(#linear-gradient-18);}.cls-63{fill:url(#linear-gradient-19);}.cls-64{fill:url(#linear-gradient-20);}.cls-65{fill:url(#linear-gradient-21);}.cls-66{fill:url(#linear-gradient-22);}.cls-67{fill:url(#linear-gradient-23);}.cls-68{opacity:0.3;}.cls-69{mix-blend-mode:overlay;}.cls-70{fill:url(#linear-gradient-24);}.cls-71{fill:url(#linear-gradient-25);}.cls-100,.cls-103,.cls-104,.cls-105,.cls-106,.cls-72,.cls-73,.cls-74,.cls-75,.cls-78,.cls-79,.cls-80,.cls-81,.cls-84,.cls-85,.cls-86,.cls-87,.cls-90,.cls-91,.cls-92,.cls-93,.cls-97,.cls-98,.cls-99{opacity:0.7;}.cls-72{fill:url(#linear-gradient-26);}.cls-73{fill:url(#linear-gradient-27);}.cls-74{fill:url(#linear-gradient-28);}.cls-75{fill:url(#linear-gradient-29);}.cls-76{fill:url(#linear-gradient-30);}.cls-77{fill:url(#linear-gradient-31);}.cls-78{fill:url(#linear-gradient-32);}.cls-79{fill:url(#linear-gradient-33);}.cls-80{fill:url(#linear-gradient-34);}.cls-81{fill:url(#linear-gradient-35);}.cls-82{fill:url(#linear-gradient-36);}.cls-83{fill:url(#linear-gradient-37);}.cls-84{fill:url(#linear-gradient-38);}.cls-85{fill:url(#linear-gradient-39);}.cls-86{fill:url(#linear-gradient-40);}.cls-87{fill:url(#linear-gradient-41);}.cls-88{fill:url(#linear-gradient-42);}.cls-89{fill:url(#linear-gradient-43);}.cls-90{fill:url(#linear-gradient-44);}.cls-91{fill:url(#linear-gradient-45);}.cls-92{fill:url(#linear-gradient-46);}.cls-93{fill:url(#linear-gradient-47);}.cls-94{opacity:0.2;}.cls-95{fill:url(#linear-gradient-48);}.cls-96{fill:url(#linear-gradient-49);}.cls-97{fill:url(#linear-gradient-50);}.cls-98{fill:url(#linear-gradient-51);}.cls-99{fill:url(#linear-gradient-52);}.cls-100{fill:url(#linear-gradient-53);}.cls-101{fill:url(#linear-gradient-54);}.cls-102{fill:url(#linear-gradient-55);}.cls-103{fill:url(#linear-gradient-56);}.cls-104{fill:url(#linear-gradient-57);}.cls-105{fill:url(#linear-gradient-58);}.cls-106{fill:url(#linear-gradient-59);}</style><linearGradient id="linear-gradient" x1="61.72" y1="139.98" x2="53.2" y2="139.98" gradientUnits="userSpaceOnUse"><stop offset="0" stop-color="#3d00e7"/><stop offset="1" stop-color="#6031ff"/></linearGradient><linearGradient id="linear-gradient-2" x1="266.89" y1="252.28" x2="16.2" y2="70.18" gradientUnits="userSpaceOnUse"><stop offset="0" stop-color="#6318ff"/><stop offset="1" stop-color="#fff6ff"/></linearGradient><linearGradient id="linear-gradient-3" x1="131.11" y1="153.23" x2="-4.57" y2="54.67" gradientUnits="userSpaceOnUse"><stop offset="0" stop-color="#4500ff"/><stop offset="1" stop-color="#6a31ff"/></linearGradient><linearGradient id="linear-gradient-4" x1="48.6" y1="159.96" x2="12.12" y2="133.82" gradientUnits="userSpaceOnUse"><stop offset="0" stop-color="#a43dff"/><stop offset="1" stop-color="#ead6e2"/></linearGradient><linearGradient id="linear-gradient-5" x1="130.61" y1="-20.55" x2="51.76" y2="-77.83" gradientTransform="matrix(0.85, 0.52, 0.47, 1.45, 5.28, 214.81)" gradientUnits="userSpaceOnUse"><stop offset="0" stop-color="#6318ff"/><stop offset="1" stop-color="#fff6e2"/></linearGradient><linearGradient id="linear-gradient-6" x1="48.57" y1="150.57" x2="12.09" y2="124.43" xlink:href="#linear-gradient-4"/><linearGradient id="linear-gradient-7" x1="134.28" y1="-29.07" x2="55.43" y2="-86.35" xlink:href="#linear-gradient-5"/><linearGradient id="linear-gradient-8" x1="48.63" y1="141.2" x2="12.15" y2="115.06" xlink:href="#linear-gradient-4"/><linearGradient id="linear-gradient-9" x1="138.61" y1="-37.22" x2="59.75" y2="-94.5" gradientTransform="matrix(0.85, 0.52, 0.47, 1.45, 5.28, 214.81)" gradientUnits="userSpaceOnUse"><stop offset="0" stop-color="#6318ff"/><stop offset="0.96" stop-color="#f9eee3"/><stop offset="1" stop-color="#fff6e2"/></linearGradient><linearGradient id="linear-gradient-10" x1="48.63" y1="131.83" x2="12.15" y2="105.69" xlink:href="#linear-gradient-4"/><linearGradient id="linear-gradient-11" x1="144.19" y1="-44.36" x2="65.34" y2="-101.64" xlink:href="#linear-gradient-5"/><linearGradient id="linear-gradient-12" x1="57.88" y1="94.96" x2="53" y2="94.96" gradientUnits="userSpaceOnUse"><stop offset="0" stop-color="#3600f4"/><stop offset="1" stop-color="#330ee0"/></linearGradient><linearGradient id="linear-gradient-13" x1="186.24" y1="358.54" x2="117.51" y2="308.61" gradientTransform="matrix(0.87, -0.5, 0, 1.15, -52.19, -185.25)" gradientUnits="userSpaceOnUse"><stop offset="0" stop-color="#6318ff"/><stop offset="0.11" stop-color="#573afb"/><stop offset="0.35" stop-color="#3f7ff2"/><stop offset="0.57" stop-color="#2cb6eb"/><stop offset="0.76" stop-color="#1fdee6"/><stop offset="0.91" stop-color="#16f6e3"/><stop offset="1" stop-color="#13ffe2"/></linearGradient><linearGradient id="linear-gradient-14" x1="167.85" y1="344.54" x2="143.04" y2="326.52" xlink:href="#linear-gradient-13"/><linearGradient id="linear-gradient-15" x1="165.25" y1="352" x2="123.34" y2="321.56" xlink:href="#linear-gradient-13"/><linearGradient id="linear-gradient-16" x1="178.57" y1="360.7" x2="128.14" y2="324.07" xlink:href="#linear-gradient-13"/><linearGradient id="linear-gradient-17" x1="145.19" y1="345.8" x2="128.9" y2="333.97" xlink:href="#linear-gradient-13"/><linearGradient id="linear-gradient-18" x1="186.24" y1="373.87" x2="117.51" y2="323.94" xlink:href="#linear-gradient-13"/><linearGradient id="linear-gradient-19" x1="167.85" y1="359.89" x2="143.04" y2="341.87" xlink:href="#linear-gradient-13"/><linearGradient id="linear-gradient-20" x1="165.25" y1="367.35" x2="123.34" y2="336.91" xlink:href="#linear-gradient-13"/><linearGradient id="linear-gradient-21" x1="178.57" y1="376.04" x2="128.14" y2="339.41" xlink:href="#linear-gradient-13"/><linearGradient id="linear-gradient-22" x1="145.19" y1="361.15" x2="128.9" y2="349.32" xlink:href="#linear-gradient-13"/><linearGradient id="linear-gradient-23" x1="186.24" y1="388.94" x2="117.51" y2="339.01" xlink:href="#linear-gradient-13"/><linearGradient id="linear-gradient-24" x1="2186.74" y1="68.81" x2="2186.74" y2="38.67" gradientTransform="matrix(-1, 0, 0, 1, 2260.62, 0)" gradientUnits="userSpaceOnUse"><stop offset="0" stop-color="#4fa4ff"/><stop offset="1" stop-color="#1339e2"/></linearGradient><linearGradient id="linear-gradient-25" x1="2186.74" y1="63.97" x2="2186.74" y2="33.82" gradientTransform="matrix(-1, 0, 0, 1, 2260.62, 0)" gradientUnits="userSpaceOnUse"><stop offset="0" stop-color="#4f81ff"/><stop offset="1" stop-color="#1339e2"/></linearGradient><linearGradient id="linear-gradient-26" x1="2189.38" y1="30.42" x2="2156.74" y2="49.81" gradientTransform="matrix(-1, 0, 0, 1, 2260.62, 0)" gradientUnits="userSpaceOnUse"><stop offset="0" stop-color="#4f24ff"/><stop offset="1" stop-color="#00ffe2"/></linearGradient><linearGradient id="linear-gradient-27" x1="2215.69" y1="60.3" x2="2185.81" y2="31.07" xlink:href="#linear-gradient-26"/><linearGradient id="linear-gradient-28" x1="2191.87" y1="85.29" x2="2163.04" y2="61.96" xlink:href="#linear-gradient-26"/><linearGradient id="linear-gradient-29" x1="2209.01" y1="82.17" x2="2191.84" y2="66.44" xlink:href="#linear-gradient-26"/><linearGradient id="linear-gradient-30" x1="2186.74" y1="69.07" x2="2186.74" y2="38.92" xlink:href="#linear-gradient-24"/><linearGradient id="linear-gradient-31" x1="2186.74" y1="64.22" x2="2186.74" y2="34.07" xlink:href="#linear-gradient-25"/><linearGradient id="linear-gradient-32" x1="2189.38" y1="30.67" x2="2156.74" y2="50.07" xlink:href="#linear-gradient-26"/><linearGradient id="linear-gradient-33" x1="2215.69" y1="60.56" x2="2185.81" y2="31.33" xlink:href="#linear-gradient-26"/><linearGradient id="linear-gradient-34" x1="2191.87" y1="85.54" x2="2163.04" y2="62.21" xlink:href="#linear-gradient-26"/><linearGradient id="linear-gradient-35" x1="2209.01" y1="82.42" x2="2191.84" y2="66.69" xlink:href="#linear-gradient-26"/><linearGradient id="linear-gradient-36" x1="2201.72" y1="77.38" x2="2201.72" y2="47.62" xlink:href="#linear-gradient-24"/><linearGradient id="linear-gradient-37" x1="2201.72" y1="72.59" x2="2201.72" y2="42.83" xlink:href="#linear-gradient-25"/><linearGradient id="linear-gradient-38" x1="2204.32" y1="39.48" x2="2172.1" y2="58.63" xlink:href="#linear-gradient-26"/><linearGradient id="linear-gradient-39" x1="2230.3" y1="68.98" x2="2200.8" y2="40.12" xlink:href="#linear-gradient-26"/><linearGradient id="linear-gradient-40" x1="2206.78" y1="93.64" x2="2178.32" y2="70.61" xlink:href="#linear-gradient-26"/><linearGradient id="linear-gradient-41" x1="2223.69" y1="90.56" x2="2206.74" y2="75.04" xlink:href="#linear-gradient-26"/><linearGradient id="linear-gradient-42" x1="2201.72" y1="77.35" x2="2201.72" y2="47.58" xlink:href="#linear-gradient-24"/><linearGradient id="linear-gradient-43" x1="2201.72" y1="72.56" x2="2201.72" y2="42.8" xlink:href="#linear-gradient-25"/><linearGradient id="linear-gradient-44" x1="2204.32" y1="39.44" x2="2172.1" y2="58.59" xlink:href="#linear-gradient-26"/><linearGradient id="linear-gradient-45" x1="2230.3" y1="68.94" x2="2200.8" y2="40.09" xlink:href="#linear-gradient-26"/><linearGradient id="linear-gradient-46" x1="2206.78" y1="93.61" x2="2178.32" y2="70.57" xlink:href="#linear-gradient-26"/><linearGradient id="linear-gradient-47" x1="2223.69" y1="90.53" x2="2206.74" y2="75" xlink:href="#linear-gradient-26"/><linearGradient id="linear-gradient-48" x1="2205.96" y1="74.23" x2="2205.96" y2="44.47" xlink:href="#linear-gradient-24"/><linearGradient id="linear-gradient-49" x1="2205.96" y1="69.44" x2="2205.96" y2="39.68" xlink:href="#linear-gradient-25"/><linearGradient id="linear-gradient-50" x1="2208.56" y1="36.32" x2="2176.35" y2="55.47" xlink:href="#linear-gradient-26"/><linearGradient id="linear-gradient-51" x1="2234.54" y1="65.82" x2="2205.04" y2="36.97" xlink:href="#linear-gradient-26"/><linearGradient id="linear-gradient-52" x1="2211.03" y1="90.49" x2="2182.56" y2="67.46" xlink:href="#linear-gradient-26"/><linearGradient id="linear-gradient-53" x1="2227.94" y1="87.41" x2="2210.99" y2="71.88" xlink:href="#linear-gradient-26"/><linearGradient id="linear-gradient-54" x1="2205.96" y1="74.19" x2="2205.96" y2="44.43" xlink:href="#linear-gradient-24"/><linearGradient id="linear-gradient-55" x1="2205.96" y1="69.4" x2="2205.96" y2="39.64" xlink:href="#linear-gradient-25"/><linearGradient id="linear-gradient-56" x1="2208.56" y1="36.28" x2="2176.35" y2="55.43" xlink:href="#linear-gradient-26"/><linearGradient id="linear-gradient-57" x1="2234.54" y1="65.79" x2="2205.04" y2="36.93" xlink:href="#linear-gradient-26"/><linearGradient id="linear-gradient-58" x1="2211.03" y1="90.45" x2="2182.56" y2="67.42" xlink:href="#linear-gradient-26"/><linearGradient id="linear-gradient-59" x1="2227.94" y1="87.37" x2="2210.99" y2="71.85" xlink:href="#linear-gradient-26"/></defs><g class="cls-1"><g id="Layer_2" data-name="Layer 2"><g id="content"><g class="cls-2"><path class="cls-3" d="M47.33,199.42,4,174.3c-5.93-3.44-5.18-9.42,1.68-13.36l36.64-21.07c6.86-4,17.22-4.36,23.15-.92l43.33,25.12c5.93,3.43,5.18,9.42-1.68,13.36L70.48,198.5C63.62,202.44,53.25,202.85,47.33,199.42Z"/><path class="cls-4" d="M47.45,199,4.71,174.23c-5.85-3.39-5.1-9.29,1.66-13.18l36.14-20.78c6.77-3.89,17-4.3,22.84-.91l42.74,24.78c5.85,3.39,5.1,9.29-1.66,13.18L70.29,198.1C63.52,202,53.3,202.4,47.45,199Z"/><path class="cls-5" d="M47.57,198.6,5.42,174.16c-5.77-3.34-5-9.16,1.64-13L42.7,140.67c6.67-3.84,16.76-4.24,22.53-.9l42.15,24.44c5.76,3.34,5,9.16-1.64,13L70.1,197.7C63.42,201.54,53.34,201.94,47.57,198.6Z"/><path class="cls-6" d="M47.7,198.18,6.13,174.09c-5.68-3.29-5-9,1.62-12.82l35.14-20.21c6.58-3.78,16.53-4.17,22.21-.88l41.56,24.1c5.69,3.29,5,9-1.61,12.81L69.9,197.3C63.32,201.09,53.38,201.48,47.7,198.18Z"/><path class="cls-7" d="M47.82,197.77,6.85,174c-5.61-3.25-4.9-8.9,1.59-12.63l34.65-19.93c6.48-3.73,16.28-4.12,21.89-.87l41,23.75c5.61,3.25,4.89,8.91-1.59,12.64L69.71,196.9C63.23,200.63,53.42,201,47.82,197.77Z"/><path class="cls-8" d="M47.94,197.36,7.56,174c-5.53-3.2-4.82-8.78,1.57-12.45l34.15-19.64c6.39-3.67,16-4.06,21.58-.86l40.38,23.41c5.53,3.21,4.82,8.78-1.57,12.46L69.52,196.51C63.13,200.18,53.47,200.57,47.94,197.36Z"/><path class="cls-9" d="M48.07,197,8.27,173.88c-5.44-3.15-4.75-8.65,1.55-12.27l33.65-19.35c6.3-3.62,15.82-4,21.26-.84l39.8,23.06c5.44,3.16,4.75,8.65-1.55,12.28L69.33,196.11C63,199.73,53.51,200.11,48.07,197Z"/><path class="cls-10" d="M48.19,196.54,9,173.81c-5.36-3.11-4.68-8.52,1.53-12.09l33.15-19.06c6.21-3.57,15.59-3.94,21-.83l39.21,22.72c5.36,3.11,4.68,8.53-1.53,12.1L69.14,195.71C62.93,199.28,53.55,199.65,48.19,196.54Z"/><path class="cls-11" d="M48.31,196.13,9.69,173.74c-5.28-3.06-4.61-8.39,1.51-11.91l32.65-18.77c6.11-3.52,15.35-3.89,20.64-.82l38.61,22.38c5.29,3.07,4.61,8.4-1.5,11.91L69,195.31C62.83,198.83,53.6,199.19,48.31,196.13Z"/><path class="cls-12" d="M48.44,195.72l-38-22.05c-5.21-3-4.54-8.26,1.48-11.72L44,143.46c6-3.47,15.12-3.83,20.32-.81l38,22c5.2,3,4.54,8.27-1.48,11.73L68.76,194.91C62.74,198.37,53.64,198.73,48.44,195.72Z"/><path class="cls-13" d="M48.56,195.31l-37.44-21.7c-5.12-3-4.47-8.14,1.46-11.55l31.65-18.21c5.93-3.4,14.89-3.76,20-.79l37.44,21.7c5.12,3,4.47,8.14-1.46,11.55l-31.66,18.2C62.64,197.92,53.68,198.28,48.56,195.31Z"/><path class="cls-14" d="M48.68,194.9,11.83,173.54c-5-2.93-4.4-8,1.44-11.37l31.15-17.92c5.84-3.35,14.65-3.7,19.7-.78L101,164.83c5,2.92,4.4,8-1.44,11.37L68.37,194.11C62.54,197.47,53.72,197.82,48.68,194.9Z"/><path class="cls-15" d="M48.81,194.49l-36.27-21c-5-2.88-4.33-7.89,1.41-11.19l30.67-17.63C50.36,141.35,59,141,64,143.88l36.26,21c5,2.88,4.33,7.88-1.41,11.18L68.18,193.72C62.44,197,53.77,197.36,48.81,194.49Z"/><path class="cls-16" d="M48.93,194.07,13.26,173.4c-4.88-2.83-4.26-7.76,1.38-11l30.17-17.34c5.64-3.25,14.18-3.59,19.06-.76L99.54,165c4.88,2.83,4.26,7.76-1.39,11L68,193.32C62.34,196.56,53.81,196.9,48.93,194.07Z"/><path class="cls-17" d="M49.05,193.66,14,173.33c-4.8-2.79-4.19-7.63,1.36-10.82L45,145.45c5.55-3.2,14-3.53,18.75-.75L98.83,165c4.8,2.78,4.19,7.63-1.37,10.82L67.8,192.92C62.25,196.11,53.85,196.45,49.05,193.66Z"/><path class="cls-18" d="M49.18,193.25l-34.5-20c-4.72-2.74-4.12-7.5,1.34-10.64l29.17-16.77c5.46-3.14,13.71-3.47,18.43-.74l34.5,20c4.72,2.74,4.12,7.5-1.35,10.64L67.61,192.52C62.15,195.66,53.89,196,49.18,193.25Z"/><path class="cls-19" d="M49.3,192.84,15.39,173.19c-4.64-2.69-4-7.37,1.32-10.46l28.67-16.49c5.37-3.08,13.48-3.4,18.12-.71l33.9,19.65c4.64,2.69,4,7.37-1.31,10.46L67.42,192.12C62.05,195.21,53.94,195.53,49.3,192.84Z"/><path class="cls-20" d="M49.42,192.43,16.11,173.12c-4.56-2.64-4-7.24,1.29-10.28l28.17-16.2c5.28-3,13.25-3.35,17.81-.7l33.31,19.31c4.56,2.64,4,7.24-1.29,10.27l-28.18,16.2C62,194.76,54,195.07,49.42,192.43Z"/><path class="cls-21" d="M49.55,192l-32.73-19c-4.48-2.6-3.91-7.12,1.27-10.1L45.76,147c5.19-3,13-3.29,17.49-.69l32.73,19c4.48,2.59,3.91,7.11-1.27,10.09L67,191.33C61.85,194.3,54,194.62,49.55,192Z"/><path class="cls-22" d="M49.67,191.61,17.53,173c-4.4-2.55-3.84-7,1.25-9.91L46,147.44c5.08-2.93,12.77-3.23,17.17-.68l32.14,18.63c4.39,2.55,3.83,7-1.25,9.91L66.84,190.93C61.75,193.85,54.07,194.16,49.67,191.61Z"/><path class="cls-23" d="M49.79,191.2,18.24,172.91c-4.31-2.5-3.76-6.86,1.23-9.73l26.68-15.34c5-2.87,12.54-3.17,16.86-.67l31.54,18.29c4.32,2.5,3.77,6.86-1.22,9.73L66.65,190.53C61.66,193.4,54.11,193.7,49.79,191.2Z"/><path class="cls-24" d="M49.92,190.79,19,172.84c-4.24-2.46-3.7-6.73,1.2-9.55l26.18-15c4.9-2.82,12.31-3.11,16.54-.66l31,17.95c4.24,2.45,3.7,6.73-1.2,9.55l-26.18,15C61.56,193,54.15,193.24,49.92,190.79Z"/><path class="cls-25" d="M50,190.38,19.67,172.77c-4.16-2.41-3.63-6.6,1.18-9.37l25.68-14.76c4.81-2.77,12.07-3.06,16.23-.65L93.13,165.6C97.29,168,96.76,172.2,92,175L66.27,189.73C61.46,192.5,54.19,192.78,50,190.38Z"/><path class="cls-26" d="M50.16,190,20.38,172.7c-4.07-2.36-3.56-6.47,1.16-9.18L46.72,149c4.72-2.71,11.84-3,15.92-.63l29.78,17.27c4.07,2.36,3.55,6.47-1.16,9.18L66.08,189.33C61.36,192,54.24,192.33,50.16,190Z"/><path class="cls-27" d="M50.29,189.55l-29.2-16.92c-4-2.31-3.48-6.35,1.14-9l24.68-14.2c4.62-2.65,11.61-2.93,15.6-.62l29.2,16.93c4,2.31,3.48,6.34-1.14,9L65.89,188.93C61.26,191.59,54.28,191.87,50.29,189.55Z"/><path class="cls-28" d="M50.41,189.14,21.8,172.56c-3.91-2.27-3.41-6.22,1.12-8.82L47.1,149.83c4.53-2.6,11.38-2.87,15.29-.61L91,165.81c3.92,2.26,3.42,6.21-1.11,8.82L65.69,188.54C61.17,191.14,54.32,191.41,50.41,189.14Z"/><path class="cls-29" d="M50.53,188.73l-28-16.24c-3.84-2.22-3.35-6.09,1.09-8.64L47.3,150.23c4.43-2.55,11.13-2.82,15-.59l28,16.23c3.83,2.23,3.35,6.1-1.09,8.65L65.5,188.14C61.07,190.69,54.37,191,50.53,188.73Z"/><path class="cls-30" d="M50.66,188.32l-27.43-15.9c-3.75-2.17-3.28-6,1.07-8.46l23.19-13.33c4.34-2.5,10.9-2.76,14.65-.58l27.43,15.89c3.75,2.18,3.27,6-1.07,8.46L65.31,187.74C61,190.24,54.41,190.5,50.66,188.32Z"/><path class="cls-31" d="M50.78,187.91,23.94,172.35c-3.67-2.13-3.2-5.83,1-8.27L47.68,151c4.25-2.45,10.67-2.7,14.34-.57L88.86,166c3.67,2.13,3.2,5.84-1,8.28L65.12,187.34C60.87,189.78,54.45,190,50.78,187.91Z"/><path class="cls-32" d="M50.9,187.5,24.65,172.28c-3.59-2.08-3.13-5.7,1-8.09l22.19-12.76c4.15-2.39,10.43-2.64,14-.56l26.24,15.21c3.59,2.09,3.14,5.71-1,8.1L64.93,186.94C60.77,189.33,54.49,189.58,50.9,187.5Z"/><path class="cls-33" d="M51,187.09,25.37,172.21c-3.51-2-3.07-5.57,1-7.91l21.7-12.48c4.06-2.33,10.2-2.58,13.71-.54l25.66,14.87c3.51,2,3.07,5.58-1,7.92L64.74,186.54C60.67,188.88,54.54,189.12,51,187.09Z"/><path class="cls-34" d="M51.15,186.68,26.08,172.14c-3.43-2-3-5.45,1-7.73l21.2-12.19c4-2.28,10-2.52,13.4-.53l25.07,14.53c3.43,2,3,5.45-1,7.73L64.55,186.14C60.58,188.43,54.58,188.67,51.15,186.68Z"/><path class="cls-35" d="M51.27,186.27l-24.48-14.2c-3.35-1.94-2.92-5.32.95-7.55l20.7-11.9c3.88-2.23,9.74-2.46,13.09-.52L86,166.29c3.35,1.94,2.92,5.32-1,7.55l-20.7,11.91C60.48,188,54.62,188.21,51.27,186.27Z"/><path class="cls-36" d="M51.4,185.85,27.5,172c-3.27-1.9-2.85-5.2.93-7.37L48.64,153c3.78-2.18,9.49-2.4,12.76-.51l23.89,13.85c3.27,1.9,2.86,5.2-.92,7.37L64.16,185.35C60.38,187.52,54.66,187.75,51.4,185.85Z"/><path class="cls-37" d="M51.52,185.44l-23.3-13.5c-3.19-1.85-2.79-5.07.9-7.19l19.71-11.33c3.69-2.12,9.26-2.34,12.45-.5l23.3,13.51c3.19,1.85,2.78,5.07-.9,7.19L64,185C60.28,187.07,54.71,187.29,51.52,185.44Z"/><path class="cls-38" d="M51.64,185,28.93,171.87c-3.11-1.81-2.71-4.94.88-7l19.21-11c3.59-2.07,9-2.29,12.14-.49L83.87,166.5c3.11,1.8,2.71,4.94-.88,7l-19.21,11C60.18,186.62,54.75,186.83,51.64,185Z"/><path class="cls-39" d="M51.77,184.62,29.64,171.8C26.61,170,27,167,30.5,165l18.71-10.76c3.5-2,8.8-2.22,11.82-.46l22.13,12.82c3,1.76,2.64,4.81-.86,6.82L63.59,184.15C60.09,186.17,54.79,186.38,51.77,184.62Z"/><path class="cls-40" d="M51.89,184.21,30.35,171.73c-2.94-1.71-2.57-4.68.84-6.65L49.4,154.61c3.41-2,8.56-2.16,11.51-.45l21.54,12.48c2.94,1.71,2.57,4.68-.84,6.64L63.4,183.75C60,185.71,54.84,185.92,51.89,184.21Z"/><path class="cls-41" d="M52,183.8,31.07,171.66c-2.87-1.66-2.51-4.56.81-6.46L49.59,155c3.32-1.91,8.33-2.1,11.2-.44l20.94,12.14c2.87,1.66,2.5,4.55-.81,6.46L63.21,183.36C59.89,185.26,54.88,185.46,52,183.8Z"/><path class="cls-42" d="M52.14,183.39l-20.36-11.8c-2.79-1.62-2.43-4.43.79-6.28l17.21-9.9c3.23-1.85,8.1-2,10.88-.43L81,166.78c2.79,1.61,2.43,4.42-.79,6.28L63,183C59.79,184.81,54.92,185,52.14,183.39Z"/><path class="cls-43" d="M52.26,183,32.49,171.52c-2.7-1.57-2.36-4.3.77-6.1L50,155.81c3.12-1.8,7.85-2,10.56-.42l19.77,11.46c2.7,1.57,2.36,4.3-.77,6.1l-16.72,9.61C59.69,184.36,55,184.55,52.26,183Z"/><path class="cls-44" d="M52.38,182.57,33.2,171.45c-2.62-1.52-2.29-4.17.75-5.92l16.22-9.32c3-1.75,7.62-1.93,10.25-.41L79.6,166.92c2.62,1.52,2.29,4.17-.75,5.91l-16.22,9.33C59.6,183.91,55,184.09,52.38,182.57Z"/></g><path class="cls-45" d="M87.84,163.32V100.21L24.72,99v62.59a1.6,1.6,0,0,0,.92,1.9l28.64,16.93a6.44,6.44,0,0,0,5.82-.18l26.31-14.82C87.44,164.8,87.93,164,87.84,163.32Z"/><path class="cls-46" d="M54.27,116.92,25.64,100c-1.48-.87-1.28-2.37.45-3.35L52.41,81.8a6.51,6.51,0,0,1,5.82-.18L86.86,98.56c1.49.87,1.28,2.38-.45,3.35L60.1,116.74A6.46,6.46,0,0,1,54.27,116.92Z"/><path class="cls-47" d="M55.19,109.77,37.64,99.4c-.9-.54-.78-1.46.28-2.06L54,88.26a4,4,0,0,1,3.57-.11L75.15,98.52c.91.54.79,1.46-.27,2.06l-16.13,9.08A3.93,3.93,0,0,1,55.19,109.77Z"/><path class="cls-48" d="M49.33,157a3.81,3.81,0,0,0-1.58-3.09l-21.3-12.58a1.06,1.06,0,0,0-1.07-.1h0l-.12.07L20,144.45,43.2,161.54l5.36-3.2a.73.73,0,0,0,.33-.19h0A1.51,1.51,0,0,0,49.33,157Z"/><path class="cls-49" d="M42.24,161.4,20.93,148.81a3.8,3.8,0,0,1-1.57-3.09h0c0-1.17.77-1.7,1.67-1.17l21.3,12.58a3.82,3.82,0,0,1,1.58,3.09h0C43.88,161.4,43.13,161.93,42.24,161.4Z"/><path class="cls-50" d="M49.3,147.6a3.82,3.82,0,0,0-1.58-3.09l-21.3-12.58a1.08,1.08,0,0,0-1.07-.1h0l-.12.08-5.3,3.15,23.24,17.09,5.36-3.2a.73.73,0,0,0,.33-.19h0A1.54,1.54,0,0,0,49.3,147.6Z"/><path class="cls-51" d="M42.21,152,20.9,139.42a3.8,3.8,0,0,1-1.57-3.09h0c0-1.18.77-1.7,1.67-1.17l21.3,12.58a3.81,3.81,0,0,1,1.58,3.09h0C43.85,152,43.1,152.53,42.21,152Z"/><path class="cls-52" d="M49.36,138.23a3.8,3.8,0,0,0-1.58-3.08l-21.3-12.59a1.06,1.06,0,0,0-1.06-.1h0l-.13.08L20,125.69l23.24,17.09,5.37-3.2a.7.7,0,0,0,.32-.19h0A1.54,1.54,0,0,0,49.36,138.23Z"/><path class="cls-53" d="M42.27,142.63,21,130.05A3.8,3.8,0,0,1,19.39,127h0c0-1.18.77-1.7,1.67-1.17l21.3,12.58a3.81,3.81,0,0,1,1.58,3.09h0C43.91,142.64,43.17,143.16,42.27,142.63Z"/><path class="cls-54" d="M49.36,128.87a3.81,3.81,0,0,0-1.58-3.09l-21.3-12.59a1.09,1.09,0,0,0-1.06-.1h0l-.13.08L20,116.32l23.24,17.09,5.37-3.2a.7.7,0,0,0,.32-.19h0A1.53,1.53,0,0,0,49.36,128.87Z"/><path class="cls-55" d="M42.27,133.27,21,120.68a3.8,3.8,0,0,1-1.57-3.09h0c0-1.17.77-1.7,1.67-1.17L42.36,129a3.81,3.81,0,0,1,1.58,3.09h0C43.91,133.27,43.17,133.79,42.27,133.27Z"/><path class="cls-56" d="M37.64,99.43l2.93,1.73L54,93.57a4,4,0,0,1,3.57-.11l14.62,8.64,2.65-1.49c1.06-.6,1.18-1.52.27-2L57.61,88.18a4,4,0,0,0-3.57.11L37.92,97.38C36.86,98,36.74,98.89,37.64,99.43Z"/><polygon class="cls-57" points="83.33 117.44 63.36 128.97 63.36 125.87 83.33 114.34 83.33 117.44"/><polygon class="cls-58" points="83.33 123.41 77.2 126.94 77.2 123.84 83.33 120.3 83.33 123.41"/><polygon class="cls-59" points="74.87 128.29 63.36 134.93 63.36 131.83 74.87 125.18 74.87 128.29"/><polygon class="cls-60" points="83.33 129.14 69.11 137.37 69.11 134.26 83.33 126.04 83.33 129.14"/><polygon class="cls-61" points="66.79 138.71 63.36 140.67 63.36 137.57 66.79 135.61 66.79 138.71"/><polygon class="cls-62" points="83.33 135.14 63.36 146.67 63.36 143.56 83.33 132.03 83.33 135.14"/><polygon class="cls-63" points="83.33 141.13 77.2 144.66 77.2 141.56 83.33 138.02 83.33 141.13"/><polygon class="cls-64" points="74.87 146 63.36 152.65 63.36 149.55 74.87 142.9 74.87 146"/><polygon class="cls-65" points="83.33 146.86 69.11 155.09 69.11 151.98 83.33 143.76 83.33 146.86"/><polygon class="cls-66" points="66.79 156.43 63.36 158.39 63.36 155.29 66.79 153.33 66.79 156.43"/><polygon class="cls-67" points="83.33 152.54 63.36 164.07 63.36 160.97 83.33 149.44 83.33 152.54"/><g class="cls-68"><g class="cls-69"><polygon class="cls-70" points="96.46 53.74 70.6 68.81 44.74 53.74 70.6 38.67 96.46 53.74"/><polygon class="cls-71" points="96.46 48.89 70.6 63.97 44.74 48.89 70.6 33.82 96.46 48.89"/><polygon class="cls-72" points="96.46 48.89 70.6 0 70.6 63.97 96.46 48.89"/><polygon class="cls-73" points="44.74 48.89 70.6 0 70.6 63.97 44.74 48.89"/><polygon class="cls-74" points="96.46 53.74 70.6 93.46 70.6 68.81 96.46 53.74"/><polygon class="cls-75" points="44.74 53.74 70.6 93.46 70.6 68.81 44.74 53.74"/></g><g class="cls-69"><polygon class="cls-76" points="96.46 54 70.6 69.07 44.74 54 70.6 38.92 96.46 54"/><polygon class="cls-77" points="96.46 49.15 70.6 64.22 44.74 49.15 70.6 34.07 96.46 49.15"/><polygon class="cls-78" points="96.46 49.15 70.6 0.26 70.6 64.22 96.46 49.15"/><polygon class="cls-79" points="44.74 49.15 70.6 0.26 70.6 64.22 44.74 49.15"/><polygon class="cls-80" points="96.46 54 70.6 93.71 70.6 69.07 96.46 54"/><polygon class="cls-81" points="44.74 54 70.6 93.71 70.6 69.07 44.74 54"/></g></g><g id="_2" data-name="2"><polygon class="cls-82" points="81.13 62.5 55.6 77.38 30.08 62.5 55.6 47.62 81.13 62.5"/><polygon class="cls-83" points="81.13 57.71 55.6 72.59 30.08 57.71 55.6 42.83 81.13 57.71"/><polygon class="cls-84" points="81.13 57.71 55.6 9.45 55.6 72.59 81.13 57.71"/><polygon class="cls-85" points="30.08 57.71 55.6 9.45 55.6 72.59 30.08 57.71"/><polygon class="cls-86" points="81.13 62.5 55.6 101.71 55.6 77.38 81.13 62.5"/><polygon class="cls-87" points="30.08 62.5 55.6 101.71 55.6 77.38 30.08 62.5"/><g class="cls-69"><polygon class="cls-88" points="81.13 62.47 55.6 77.34 30.08 62.47 55.6 47.59 81.13 62.47"/><polygon class="cls-89" points="81.13 57.68 55.6 72.56 30.08 57.68 55.6 42.8 81.13 57.68"/><polygon class="cls-90" points="81.13 57.68 55.6 9.41 55.6 72.56 81.13 57.68"/><polygon class="cls-91" points="30.08 57.68 55.6 9.41 55.6 72.56 30.08 57.68"/><polygon class="cls-92" points="81.13 62.47 55.6 101.67 55.6 77.34 81.13 62.47"/><polygon class="cls-93" points="30.08 62.47 55.6 101.67 55.6 77.34 30.08 62.47"/></g><g class="cls-94"><polygon class="cls-95" points="76.88 59.35 51.35 74.23 25.82 59.35 51.35 44.47 76.88 59.35"/><polygon class="cls-96" points="76.88 54.56 51.35 69.44 25.82 54.56 51.35 39.68 76.88 54.56"/><polygon class="cls-97" points="76.88 54.56 51.35 6.3 51.35 69.44 76.88 54.56"/><polygon class="cls-98" points="25.82 54.56 51.35 6.3 51.35 69.44 25.82 54.56"/><polygon class="cls-99" points="76.88 59.35 51.35 98.55 51.35 74.23 76.88 59.35"/><polygon class="cls-100" points="25.82 59.35 51.35 98.55 51.35 74.23 25.82 59.35"/><g class="cls-69"><polygon class="cls-101" points="76.88 59.31 51.35 74.19 25.82 59.31 51.35 44.43 76.88 59.31"/><polygon class="cls-102" points="76.88 54.52 51.35 69.4 25.82 54.52 51.35 39.64 76.88 54.52"/><polygon class="cls-103" points="76.88 54.52 51.35 6.26 51.35 69.4 76.88 54.52"/><polygon class="cls-104" points="25.82 54.52 51.35 6.26 51.35 69.4 25.82 54.52"/><polygon class="cls-105" points="76.88 59.31 51.35 98.52 51.35 74.19 76.88 59.31"/><polygon class="cls-106" points="25.82 59.31 51.35 98.52 51.35 74.19 25.82 59.31"/></g></g></g></g></g></g></svg>