<svg xmlns="http://www.w3.org/2000/svg" xmlns:xlink="http://www.w3.org/1999/xlink" viewBox="0 0 78.72 81.61"><defs><style>.cls-1{isolation:isolate;}.cls-2{opacity:0.9;}.cls-3{fill:#fff;opacity:0;}.cls-4{fill:#fcf9fd;opacity:0.02;}.cls-10,.cls-11,.cls-12,.cls-13,.cls-14,.cls-15,.cls-16,.cls-17,.cls-18,.cls-19,.cls-20,.cls-21,.cls-22,.cls-23,.cls-24,.cls-25,.cls-26,.cls-27,.cls-28,.cls-29,.cls-30,.cls-31,.cls-32,.cls-33,.cls-34,.cls-35,.cls-36,.cls-37,.cls-38,.cls-39,.cls-4,.cls-40,.cls-41,.cls-42,.cls-43,.cls-44,.cls-5,.cls-6,.cls-7,.cls-8,.cls-9{mix-blend-mode:multiply;}.cls-5{fill:#f9f3fc;opacity:0.05;}.cls-6{fill:#f6ecfa;opacity:0.07;}.cls-7{fill:#f3e6f8;opacity:0.1;}.cls-8{fill:#f0e0f7;opacity:0.12;}.cls-9{fill:#eedaf5;opacity:0.15;}.cls-10{fill:#ebd3f3;opacity:0.17;}.cls-11{fill:#e8cdf2;opacity:0.2;}.cls-12{fill:#e5c7f0;opacity:0.22;}.cls-13{fill:#e2c1ee;opacity:0.24;}.cls-14{fill:#dfbbec;opacity:0.27;}.cls-15{fill:#dcb4eb;opacity:0.29;}.cls-16{fill:#d9aee9;opacity:0.32;}.cls-17{fill:#d6a8e7;opacity:0.34;}.cls-18{fill:#d3a2e6;opacity:0.37;}.cls-19{fill:#d19be4;opacity:0.39;}.cls-20{fill:#ce95e2;opacity:0.41;}.cls-21{fill:#cb8fe1;opacity:0.44;}.cls-22{fill:#c889df;opacity:0.46;}.cls-23{fill:#c583dd;opacity:0.49;}.cls-24{fill:#c27cdc;opacity:0.51;}.cls-25{fill:#bf76da;opacity:0.54;}.cls-26{fill:#bc70d8;opacity:0.56;}.cls-27{fill:#b96ad7;opacity:0.59;}.cls-28{fill:#b664d5;opacity:0.61;}.cls-29{fill:#b45dd3;opacity:0.63;}.cls-30{fill:#b157d2;opacity:0.66;}.cls-31{fill:#ae51d0;opacity:0.68;}.cls-32{fill:#ab4bce;opacity:0.71;}.cls-33{fill:#a844cd;opacity:0.73;}.cls-34{fill:#a53ecb;opacity:0.76;}.cls-35{fill:#a238c9;opacity:0.78;}.cls-36{fill:#9f32c7;opacity:0.8;}.cls-37{fill:#9c2cc6;opacity:0.83;}.cls-38{fill:#9925c4;opacity:0.85;}.cls-39{fill:#971fc2;opacity:0.88;}.cls-40{fill:#9419c1;opacity:0.9;}.cls-41{fill:#9113bf;opacity:0.93;}.cls-42{fill:#8e0cbd;opacity:0.95;}.cls-43{fill:#8b06bc;opacity:0.98;}.cls-44{fill:#8800ba;}.cls-45{fill:url(#linear-gradient);}.cls-46{fill:url(#linear-gradient-2);}.cls-47{fill:url(#linear-gradient-3);}.cls-48{fill:url(#linear-gradient-4);}.cls-49{fill:url(#linear-gradient-5);}.cls-50{fill:url(#linear-gradient-6);}.cls-51{fill:#eab6ff;opacity:0.5;}.cls-51,.cls-52,.cls-53{mix-blend-mode:overlay;}.cls-52,.cls-53{opacity:0.4;}.cls-52{fill:url(#linear-gradient-7);}.cls-53{fill:url(#linear-gradient-8);}.cls-54{fill:url(#linear-gradient-9);}.cls-55{fill:url(#linear-gradient-10);}.cls-56{fill:url(#linear-gradient-11);}.cls-57{fill:url(#linear-gradient-12);}.cls-58{fill:url(#linear-gradient-13);}.cls-59{fill:url(#linear-gradient-14);}</style><linearGradient id="linear-gradient" x1="42.95" y1="50.98" x2="36.54" y2="50.98" gradientUnits="userSpaceOnUse"><stop offset="0" stop-color="#3d00e7"/><stop offset="1" stop-color="#6031ff"/></linearGradient><linearGradient id="linear-gradient-2" x1="108.87" y1="82.66" x2="10.73" y2="16.63" gradientUnits="userSpaceOnUse"><stop offset="0" stop-color="#6318ff"/><stop offset="1" stop-color="#fff6ff"/></linearGradient><linearGradient id="linear-gradient-3" x1="42.95" y1="31.04" x2="36.54" y2="31.04" xlink:href="#linear-gradient"/><linearGradient id="linear-gradient-4" x1="122.84" y1="83.57" x2="20.72" y2="9.39" xlink:href="#linear-gradient-2"/><linearGradient id="linear-gradient-5" x1="27.14" y1="22.66" x2="51.57" y2="22.66" gradientUnits="userSpaceOnUse"><stop offset="0" stop-color="#4500ff"/><stop offset="1" stop-color="#6a31ff"/></linearGradient><linearGradient id="linear-gradient-6" x1="40.22" y1="20.14" x2="36.53" y2="20.14" gradientUnits="userSpaceOnUse"><stop offset="0" stop-color="#3600f4"/><stop offset="1" stop-color="#330ee0"/></linearGradient><linearGradient id="linear-gradient-7" x1="42.36" y1="22.79" x2="36.58" y2="22.79" gradientUnits="userSpaceOnUse"><stop offset="0" stop-color="#8161e2"/><stop offset="1" stop-color="#caccff"/></linearGradient><linearGradient id="linear-gradient-8" x1="42.36" y1="22.79" x2="36.58" y2="22.79" gradientUnits="userSpaceOnUse"><stop offset="0" stop-color="#8161e2"/><stop offset="1" stop-color="#9554ff"/></linearGradient><linearGradient id="linear-gradient-9" x1="106.28" y1="77.7" x2="54.94" y2="58.83" gradientUnits="userSpaceOnUse"><stop offset="0" stop-color="#6318ff"/><stop offset="1" stop-color="#13ffe2"/></linearGradient><linearGradient id="linear-gradient-10" x1="59.1" y1="61.02" x2="62.21" y2="73.24" xlink:href="#linear-gradient-9"/><linearGradient id="linear-gradient-11" x1="45.35" y1="53.37" x2="57.24" y2="70.9" xlink:href="#linear-gradient-9"/><linearGradient id="linear-gradient-12" x1="106.28" y1="71.52" x2="54.94" y2="52.65" xlink:href="#linear-gradient-9"/><linearGradient id="linear-gradient-13" x1="60.04" y1="54.61" x2="61.27" y2="59.44" xlink:href="#linear-gradient-9"/><linearGradient id="linear-gradient-14" x1="49.27" y1="49.03" x2="56.16" y2="59.19" xlink:href="#linear-gradient-9"/></defs><g class="cls-1"><g id="Layer_2" data-name="Layer 2"><g id="content"><g class="cls-2"><path class="cls-3" d="M33,80,2.79,62.45C-1.35,60.06-.82,55.88,4,53.13l25.57-14.7c4.79-2.76,12-3,16.16-.65L75.93,55.31c4.14,2.4,3.61,6.58-1.18,9.33L49.18,79.34C44.4,82.09,37.16,82.38,33,80Z"/><path class="cls-4" d="M33.11,79.7,3.29,62.41C-.79,60-.28,55.92,4.45,53.21L29.67,38.7c4.72-2.71,11.85-3,15.93-.63L75.43,55.36c4.08,2.37,3.56,6.49-1.16,9.2L49.05,79.06C44.33,81.78,37.19,82.06,33.11,79.7Z"/><path class="cls-5" d="M33.2,79.41l-29.42-17C-.24,60,.27,56,4.93,53.29L29.8,39c4.66-2.68,11.69-2.95,15.72-.62l29.41,17c4,2.33,3.52,6.39-1.14,9.07L48.92,78.78C44.26,81.46,37.22,81.74,33.2,79.41Z"/><path class="cls-6" d="M33.28,79.12l-29-16.81c-4-2.3-3.46-6.31,1.13-9l24.52-14.1c4.59-2.64,11.53-2.92,15.5-.61l29,16.81c4,2.3,3.46,6.3-1.13,8.94L48.78,78.51C44.19,81.15,37.25,81.42,33.28,79.12Z"/><path class="cls-7" d="M33.37,78.84,4.78,62.26C.87,60,1.36,56,5.89,53.44l24.18-13.9c4.52-2.6,11.36-2.88,15.28-.61L73.94,55.51c3.91,2.26,3.41,6.21-1.11,8.82L48.65,78.23C44.12,80.83,37.28,81.1,33.37,78.84Z"/><path class="cls-8" d="M33.46,78.55,5.27,62.21C1.42,60,1.91,56.09,6.37,53.52L30.2,39.82c4.46-2.57,11.2-2.84,15.06-.6L73.44,55.56c3.86,2.23,3.37,6.12-1.09,8.69L48.52,78C44.05,80.52,37.31,80.78,33.46,78.55Z"/><path class="cls-9" d="M33.54,78.26,5.77,62.16C2,60,2.46,56.13,6.85,53.6L30.33,40.09c4.4-2.52,11-2.79,14.84-.58L73,55.6c3.79,2.21,3.31,6-1.08,8.57L48.38,77.67C44,80.2,37.34,80.46,33.54,78.26Z"/><path class="cls-10" d="M33.63,78,6.27,62.11C2.53,60,3,56.17,7.33,53.68L30.47,40.37c4.33-2.49,10.87-2.75,14.62-.58L72.45,55.65c3.74,2.17,3.27,6-1.07,8.44L48.25,77.39C43.92,79.88,37.37,80.14,33.63,78Z"/><path class="cls-11" d="M33.71,77.69,6.77,62.07c-3.69-2.14-3.22-5.86,1-8.32L30.6,40.65c4.27-2.45,10.71-2.71,14.4-.57L72,55.7c3.69,2.14,3.22,5.86-1,8.31L48.12,77.12C43.85,79.57,37.4,79.83,33.71,77.69Z"/><path class="cls-12" d="M33.8,77.4,7.26,62c-3.63-2.11-3.17-5.77,1-8.19l22.43-12.9c4.21-2.42,10.55-2.67,14.19-.56L71.45,55.75c3.63,2.1,3.17,5.77-1,8.18L48,76.84C43.78,79.25,37.43,79.51,33.8,77.4Z"/><path class="cls-13" d="M33.89,77.11,7.76,62c-3.57-2.07-3.12-5.68,1-8.06l22.09-12.7c4.13-2.38,10.39-2.63,14-.56L71,55.8c3.57,2.07,3.12,5.68-1,8.06L47.85,76.56C43.71,78.94,37.46,79.19,33.89,77.11Z"/><path class="cls-14" d="M34,76.83,8.26,61.92c-3.52-2-3.07-5.59,1-7.93L31,41.49c4.07-2.35,10.23-2.59,13.74-.55L70.46,55.85c3.52,2,3.07,5.59-1,7.93L47.71,76.28C43.64,78.62,37.49,78.87,34,76.83Z"/><path class="cls-15" d="M34.06,76.54,8.75,61.87c-3.46-2-3-5.5,1-7.8l21.4-12.31c4-2.3,10.06-2.54,13.52-.53L70,55.9c3.46,2,3,5.5-1,7.8L47.58,76C43.58,78.31,37.52,78.55,34.06,76.54Z"/><path class="cls-16" d="M34.15,76.25,9.25,61.82c-3.4-2-3-5.41,1-7.67L31.27,42c3.94-2.26,9.9-2.5,13.3-.53l24.9,14.43c3.4,2,3,5.42-1,7.68l-21,12.11C43.51,78,37.55,78.23,34.15,76.25Z"/><path class="cls-17" d="M34.23,76,9.75,61.78c-3.35-2-2.92-5.33.95-7.56l20.7-11.9c3.88-2.23,9.74-2.46,13.09-.52L69,56c3.35,1.94,2.92,5.32-1,7.55L47.31,75.45C43.44,77.68,37.58,77.91,34.23,76Z"/><path class="cls-18" d="M34.32,75.68l-24.07-14c-3.3-1.91-2.88-5.24.93-7.43L31.54,42.6c3.81-2.19,9.57-2.42,12.86-.51L68.47,56c3.29,1.91,2.88,5.23-.94,7.43L47.18,75.17C43.37,77.36,37.61,77.59,34.32,75.68Z"/><path class="cls-19" d="M34.4,75.39,10.74,61.68c-3.23-1.88-2.82-5.15.92-7.3l20-11.5c3.75-2.16,9.41-2.38,12.64-.51L68,56.09c3.24,1.88,2.83,5.14-.92,7.3l-20,11.5C43.3,77.05,37.64,77.27,34.4,75.39Z"/><path class="cls-20" d="M34.49,75.11,11.24,61.63c-3.18-1.84-2.78-5.05.9-7.17L31.8,43.15c3.68-2.11,9.25-2.33,12.43-.49L67.48,56.14c3.18,1.84,2.77,5-.91,7.17L46.91,74.61C43.23,76.73,37.67,77,34.49,75.11Z"/><path class="cls-21" d="M34.58,74.82,11.74,61.58c-3.13-1.81-2.73-5,.89-7L31.94,43.43c3.61-2.08,9.08-2.29,12.2-.48L67,56.19c3.12,1.81,2.73,5-.89,7L46.78,74.34C43.16,76.41,37.7,76.63,34.58,74.82Z"/><path class="cls-22" d="M34.66,74.53l-22.43-13c-3.06-1.78-2.67-4.87.88-6.91l19-10.91c3.55-2,8.92-2.25,12-.48l22.42,13c3.07,1.78,2.68,4.88-.87,6.92l-19,10.91C43.1,76.1,37.73,76.31,34.66,74.53Z"/><path class="cls-23" d="M34.75,74.25l-22-12.77c-3-1.74-2.63-4.78.86-6.79L32.2,44C35.69,42,41,41.77,44,43.52L66,56.28c3,1.75,2.62,4.79-.86,6.79L46.51,73.78C43,75.78,37.76,76,34.75,74.25Z"/><path class="cls-24" d="M34.83,74,13.23,61.44c-3-1.72-2.58-4.7.84-6.67l18.27-10.5c3.42-2,8.59-2.18,11.54-.46L65.49,56.33c3,1.72,2.58,4.7-.84,6.67L46.38,73.5C43,75.47,37.79,75.67,34.83,74Z"/><path class="cls-25" d="M34.92,73.67,13.73,61.39c-2.9-1.68-2.54-4.61.82-6.54L32.47,44.54c3.36-1.92,8.43-2.13,11.33-.45L65,56.38c2.9,1.68,2.53,4.61-.82,6.54L46.25,73.22C42.89,75.15,37.82,75.35,34.92,73.67Z"/><path class="cls-26" d="M35,73.39l-20.79-12c-2.84-1.65-2.48-4.52.81-6.41L32.6,44.82c3.29-1.89,8.27-2.09,11.11-.44l20.78,12c2.85,1.65,2.49,4.52-.8,6.41L46.11,72.94C42.82,74.84,37.85,75,35,73.39Z"/><path class="cls-27" d="M35.09,73.1,14.72,61.29c-2.79-1.62-2.43-4.43.79-6.28L32.74,45.1c3.22-1.85,8.1-2.05,10.88-.43L64,56.48c2.78,1.61,2.43,4.43-.8,6.28L46,72.67C42.75,74.52,37.88,74.71,35.09,73.1Z"/><path class="cls-28" d="M35.18,72.81l-20-11.57c-2.73-1.58-2.39-4.34.77-6.16l16.88-9.7c3.16-1.82,7.94-2,10.67-.42l20,11.57c2.73,1.58,2.38,4.34-.78,6.15L45.84,72.39C42.68,74.21,37.91,74.4,35.18,72.81Z"/><path class="cls-29" d="M35.26,72.53,15.71,61.19c-2.67-1.55-2.33-4.25.76-6L33,45.66c3.09-1.78,7.77-2,10.44-.42L63,56.57c2.68,1.56,2.34,4.25-.76,6L45.71,72.11C42.62,73.89,37.94,74.08,35.26,72.53Z"/><path class="cls-30" d="M35.35,72.24,16.21,61.14c-2.62-1.51-2.28-4.16.75-5.9l16.18-9.31c3-1.74,7.61-1.92,10.23-.4L62.51,56.62c2.61,1.52,2.28,4.16-.75,5.91l-16.18,9.3C42.55,73.57,38,73.76,35.35,72.24Z"/><path class="cls-31" d="M35.44,72,16.71,61.1c-2.56-1.49-2.24-4.08.73-5.78l15.83-9.11c3-1.7,7.45-1.88,10-.39L62,56.67c2.56,1.49,2.24,4.07-.73,5.78l-15.84,9.1C42.48,73.26,38,73.44,35.44,72Z"/><path class="cls-32" d="M35.52,71.67,17.2,61.05c-2.5-1.46-2.18-4,.72-5.65l15.49-8.91c2.9-1.67,7.28-1.84,9.78-.39L61.51,56.72c2.51,1.45,2.19,4-.71,5.65L45.31,71.28C42.41,72.94,38,73.12,35.52,71.67Z"/><path class="cls-33" d="M35.61,71.38,17.7,61c-2.45-1.42-2.14-3.89.7-5.52l15.14-8.71c2.83-1.63,7.12-1.8,9.57-.38L61,56.77c2.45,1.42,2.14,3.89-.69,5.52L45.18,71C42.34,72.63,38.06,72.8,35.61,71.38Z"/><path class="cls-34" d="M35.69,71.09,18.2,61c-2.39-1.39-2.09-3.8.68-5.4l14.79-8.5c2.77-1.6,7-1.76,9.35-.37l17.5,10.14c2.39,1.38,2.09,3.8-.68,5.39L45,70.72C42.27,72.31,38.09,72.48,35.69,71.09Z"/><path class="cls-35" d="M35.78,70.8,18.7,60.9c-2.34-1.35-2-3.71.66-5.27l14.45-8.3c2.7-1.56,6.79-1.72,9.13-.37L60,56.87c2.34,1.35,2,3.71-.66,5.27l-14.45,8.3C42.21,72,38.12,72.16,35.78,70.8Z"/><path class="cls-36" d="M35.87,70.52,19.19,60.85c-2.28-1.32-2-3.62.65-5.14l14.1-8.11c2.64-1.51,6.63-1.67,8.91-.35l16.67,9.66c2.28,1.33,2,3.63-.65,5.15l-14.09,8.1C42.14,71.68,38.15,71.84,35.87,70.52Z"/><path class="cls-37" d="M36,70.23,19.69,60.8c-2.22-1.29-1.94-3.53.63-5l13.75-7.91c2.58-1.48,6.47-1.63,8.69-.34L59,57c2.22,1.29,1.94,3.54-.64,5L44.64,69.89C42.07,71.37,38.18,71.52,36,70.23Z"/><path class="cls-38" d="M36,69.94,20.19,60.76c-2.17-1.26-1.89-3.45.61-4.89l13.41-7.71c2.51-1.44,6.3-1.59,8.47-.34L58.53,57c2.17,1.26,1.89,3.45-.62,4.89l-13.4,7.71C42,71.05,38.21,71.2,36,69.94Z"/><path class="cls-39" d="M36.12,69.66,20.68,60.71c-2.11-1.23-1.84-3.36.61-4.76l13.05-7.51c2.45-1.41,6.14-1.55,8.25-.33l15.44,9c2.11,1.22,1.85,3.36-.6,4.76l-13,7.51C41.93,70.74,38.24,70.88,36.12,69.66Z"/><path class="cls-40" d="M36.21,69.37l-15-8.71c-2.05-1.19-1.79-3.27.59-4.64l12.7-7.3c2.38-1.37,6-1.52,8-.32l15,8.71c2.06,1.19,1.8,3.27-.58,4.63L44.24,69.05C41.86,70.42,38.27,70.56,36.21,69.37Z"/><path class="cls-41" d="M36.3,69.08,21.68,60.61c-2-1.16-1.75-3.18.57-4.51L34.61,49c2.31-1.33,5.81-1.47,7.81-.31L57,57.16c2,1.16,1.74,3.18-.57,4.51l-12.36,7.1C41.79,70.1,38.3,70.24,36.3,69.08Z"/><path class="cls-42" d="M36.38,68.8l-14.2-8.24c-1.95-1.13-1.7-3.09.55-4.38l12-6.91C37,48,40.39,47.84,42.33,49l14.21,8.24c1.94,1.12,1.7,3.08-.55,4.38L44,68.5A8.46,8.46,0,0,1,36.38,68.8Z"/><path class="cls-43" d="M36.47,68.51l-13.8-8c-1.88-1.09-1.64-3,.54-4.25l11.67-6.71a8.16,8.16,0,0,1,7.37-.29l13.79,8c1.89,1.1,1.65,3-.53,4.26L43.84,68.22A8.22,8.22,0,0,1,36.47,68.51Z"/><path class="cls-44" d="M36.56,68.22,23.17,60.46c-1.83-1.06-1.6-2.91.52-4.12L35,49.83a8,8,0,0,1,7.15-.29L55.55,57.3c1.83,1.06,1.59,2.91-.52,4.13L43.71,67.94A7.94,7.94,0,0,1,36.56,68.22Z"/></g><path class="cls-45" d="M59.19,55.25,59.1,36.36l-39.82-.79.09,18.56a1,1,0,0,0,.58,1.2L38,66a4.06,4.06,0,0,0,3.68-.11l16.6-9.36C58.94,56.18,59.24,55.69,59.19,55.25Z"/><path class="cls-46" d="M37.92,46.9,19.86,36.22c-.94-.56-.81-1.5.28-2.12l16.61-9.36a4.1,4.1,0,0,1,3.67-.11L58.48,35.32c.94.55.81,1.5-.28,2.11L41.6,46.79A4.12,4.12,0,0,1,37.92,46.9Z"/><path class="cls-47" d="M59.2,31.46V23.33L45.8,23,40.51,19.9a4.07,4.07,0,0,0-3.67.12L32,22.72l-12.71-.29v8.15a1.1,1.1,0,0,0,.62.91L38,42.17a4.1,4.1,0,0,0,3.67-.11l16.6-9.36C58.92,32.35,59.23,31.89,59.2,31.46Z"/><path class="cls-48" d="M38,34,20,23.31c-.93-.55-.81-1.5.29-2.12l16.6-9.35a4.07,4.07,0,0,1,3.67-.12L58.58,22.41c.93.55.81,1.5-.29,2.12l-16.6,9.35A4,4,0,0,1,38,34Z"/><path class="cls-49" d="M38.59,29.48,27.53,22.94c-.58-.34-.5-.92.17-1.3l10.17-5.73a2.49,2.49,0,0,1,2.25-.07l11.07,6.55c.57.34.5.92-.17,1.29L40.84,29.42A2.52,2.52,0,0,1,38.59,29.48Z"/><path class="cls-50" d="M27.53,23l1.84,1.09,8.5-4.79a2.49,2.49,0,0,1,2.25-.07l9.23,5.46L51,23.7c.67-.37.74-.95.17-1.29L40.12,15.86a2.49,2.49,0,0,0-2.25.07L27.7,21.66C27,22,27,22.62,27.53,23Z"/><path class="cls-51" d="M38,22.65,20,12c-.94-.55-.81-1.5.29-2.12L36.84.5A4.07,4.07,0,0,1,40.51.38L58.58,11.07c.93.55.8,1.5-.29,2.11l-16.6,9.36A4.06,4.06,0,0,1,38,22.65Z"/><path class="cls-52" d="M58.29,13.19l-16.6,9.35a4.06,4.06,0,0,1-3.68.11L20,12a1.1,1.1,0,0,1-.62-.88V22.52a1.09,1.09,0,0,0,.63.91L38,34.11A4.1,4.1,0,0,0,41.69,34L58.3,24.64c.62-.35.93-.81.9-1.24V12A1.51,1.51,0,0,1,58.29,13.19Z"/><path class="cls-53" d="M58.29,13.19l-16.6,9.35a4.06,4.06,0,0,1-3.68.11L20,12a1.1,1.1,0,0,1-.62-.88V22.52a1.09,1.09,0,0,0,.63.91L38,34.11A4.1,4.1,0,0,0,41.69,34L58.3,24.64c.62-.35.93-.81.9-1.24V12A1.51,1.51,0,0,1,58.29,13.19Z"/><polygon class="cls-54" points="51.66 59.79 57.66 56.34 63.65 59.87 57.66 63.32 51.66 59.79"/><polygon class="cls-55" points="57.66 74.4 57.66 63.32 63.65 59.87 63.65 70.95 57.66 74.4"/><polygon class="cls-56" points="51.66 59.79 51.66 70.87 57.66 74.4 57.66 63.32 51.66 59.79"/><polygon class="cls-57" points="51.66 53.61 57.66 50.16 63.65 53.69 57.66 57.14 51.66 53.61"/><polygon class="cls-58" points="57.66 60.36 57.66 57.14 63.65 53.69 63.65 56.91 57.66 60.36"/><polygon class="cls-59" points="51.66 53.61 51.66 56.83 57.66 60.36 57.66 57.14 51.66 53.61"/></g></g></g></svg>