<svg xmlns="http://www.w3.org/2000/svg" xmlns:xlink="http://www.w3.org/1999/xlink" viewBox="0 0 260.61 225.38"><defs><style>.cls-1{isolation:isolate;}.cls-2{fill:url(#linear-gradient);}.cls-3{fill:url(#linear-gradient-2);}.cls-4{fill:url(#linear-gradient-3);}.cls-5{fill:url(#linear-gradient-4);}.cls-6{opacity:0.9;}.cls-7{fill:#fff;opacity:0;}.cls-106,.cls-8{fill:#fcf9fd;}.cls-10,.cls-106,.cls-107,.cls-108,.cls-109,.cls-11,.cls-110,.cls-111,.cls-112,.cls-113,.cls-114,.cls-115,.cls-116,.cls-117,.cls-118,.cls-119,.cls-12,.cls-120,.cls-121,.cls-122,.cls-123,.cls-124,.cls-125,.cls-126,.cls-127,.cls-128,.cls-129,.cls-13,.cls-130,.cls-131,.cls-132,.cls-133,.cls-134,.cls-135,.cls-136,.cls-137,.cls-138,.cls-139,.cls-14,.cls-140,.cls-141,.cls-142,.cls-143,.cls-144,.cls-145,.cls-15,.cls-16,.cls-17,.cls-18,.cls-19,.cls-20,.cls-21,.cls-22,.cls-23,.cls-24,.cls-25,.cls-26,.cls-27,.cls-28,.cls-29,.cls-30,.cls-31,.cls-32,.cls-33,.cls-34,.cls-35,.cls-36,.cls-37,.cls-38,.cls-39,.cls-40,.cls-41,.cls-42,.cls-43,.cls-44,.cls-45,.cls-46,.cls-47,.cls-48,.cls-8,.cls-9{mix-blend-mode:multiply;}.cls-8{opacity:0.02;}.cls-107,.cls-9{fill:#f9f3fc;}.cls-9{opacity:0.05;}.cls-10,.cls-108{fill:#f6ecfa;}.cls-10{opacity:0.07;}.cls-109,.cls-11{fill:#f3e6f8;}.cls-11{opacity:0.1;}.cls-110,.cls-12{fill:#f0e0f7;}.cls-12{opacity:0.12;}.cls-111,.cls-13{fill:#eedaf5;}.cls-13{opacity:0.15;}.cls-112,.cls-14{fill:#ebd3f3;}.cls-14{opacity:0.17;}.cls-113,.cls-15{fill:#e8cdf2;}.cls-15{opacity:0.2;}.cls-114,.cls-16{fill:#e5c7f0;}.cls-16{opacity:0.22;}.cls-115,.cls-17{fill:#e2c1ee;}.cls-17{opacity:0.24;}.cls-116,.cls-18{fill:#dfbbec;}.cls-18{opacity:0.27;}.cls-117,.cls-19{fill:#dcb4eb;}.cls-19{opacity:0.29;}.cls-118,.cls-20{fill:#d9aee9;}.cls-20{opacity:0.32;}.cls-119,.cls-21{fill:#d6a8e7;}.cls-21{opacity:0.34;}.cls-120,.cls-22{fill:#d3a2e6;}.cls-22{opacity:0.37;}.cls-121,.cls-23{fill:#d19be4;}.cls-23{opacity:0.39;}.cls-122,.cls-24{fill:#ce95e2;}.cls-24{opacity:0.41;}.cls-123,.cls-25{fill:#cb8fe1;}.cls-25{opacity:0.44;}.cls-124,.cls-26{fill:#c889df;}.cls-26{opacity:0.46;}.cls-125,.cls-27{fill:#c583dd;}.cls-27{opacity:0.49;}.cls-126,.cls-28{fill:#c27cdc;}.cls-28{opacity:0.51;}.cls-127,.cls-29{fill:#bf76da;}.cls-29{opacity:0.54;}.cls-128,.cls-30{fill:#bc70d8;}.cls-30{opacity:0.56;}.cls-129,.cls-31{fill:#b96ad7;}.cls-31{opacity:0.59;}.cls-130,.cls-32{fill:#b664d5;}.cls-32{opacity:0.61;}.cls-131,.cls-33{fill:#b45dd3;}.cls-33{opacity:0.63;}.cls-132,.cls-34{fill:#b157d2;}.cls-34{opacity:0.66;}.cls-133,.cls-35{fill:#ae51d0;}.cls-35{opacity:0.68;}.cls-134,.cls-36{fill:#ab4bce;}.cls-36{opacity:0.71;}.cls-135,.cls-37{fill:#a844cd;}.cls-37{opacity:0.73;}.cls-136,.cls-38{fill:#a53ecb;}.cls-38{opacity:0.76;}.cls-137,.cls-39{fill:#a238c9;}.cls-39{opacity:0.78;}.cls-138,.cls-40{fill:#9f32c7;}.cls-40{opacity:0.8;}.cls-139,.cls-41{fill:#9c2cc6;}.cls-41{opacity:0.83;}.cls-140,.cls-42{fill:#9925c4;}.cls-42{opacity:0.85;}.cls-141,.cls-43{fill:#971fc2;}.cls-43{opacity:0.88;}.cls-142,.cls-44{fill:#9419c1;}.cls-44{opacity:0.9;}.cls-143,.cls-45{fill:#9113bf;}.cls-45{opacity:0.93;}.cls-144,.cls-46{fill:#8e0cbd;}.cls-46{opacity:0.95;}.cls-145,.cls-47{fill:#8b06bc;}.cls-47{opacity:0.98;}.cls-48{fill:#8800ba;}.cls-49{fill:url(#linear-gradient-5);}.cls-50{fill:url(#linear-gradient-6);}.cls-51{fill:url(#linear-gradient-7);}.cls-52{fill:url(#linear-gradient-8);}.cls-53{fill:url(#linear-gradient-9);}.cls-54{fill:url(#linear-gradient-10);}.cls-55{fill:#eab6ff;opacity:0.5;}.cls-55,.cls-56,.cls-57,.cls-70,.cls-71,.cls-84,.cls-85,.cls-98,.cls-99{mix-blend-mode:overlay;}.cls-56,.cls-57,.cls-70,.cls-71,.cls-84,.cls-85,.cls-98,.cls-99{opacity:0.4;}.cls-56{fill:url(#linear-gradient-11);}.cls-57{fill:url(#linear-gradient-12);}.cls-58{fill:url(#linear-gradient-13);}.cls-59{fill:url(#linear-gradient-14);}.cls-60{fill:url(#linear-gradient-15);}.cls-61{fill:url(#linear-gradient-16);}.cls-62{fill:url(#linear-gradient-17);}.cls-63{fill:url(#linear-gradient-18);}.cls-64{fill:url(#linear-gradient-19);}.cls-65{fill:url(#linear-gradient-20);}.cls-66{fill:url(#linear-gradient-21);}.cls-67{fill:url(#linear-gradient-22);}.cls-68{fill:url(#linear-gradient-23);}.cls-69{fill:url(#linear-gradient-24);}.cls-70{fill:url(#linear-gradient-25);}.cls-71{fill:url(#linear-gradient-26);}.cls-72{fill:url(#linear-gradient-27);}.cls-73{fill:url(#linear-gradient-28);}.cls-74{fill:url(#linear-gradient-29);}.cls-75{fill:url(#linear-gradient-30);}.cls-76{fill:url(#linear-gradient-31);}.cls-77{fill:url(#linear-gradient-32);}.cls-78{fill:url(#linear-gradient-33);}.cls-79{fill:url(#linear-gradient-34);}.cls-80{fill:url(#linear-gradient-35);}.cls-81{fill:url(#linear-gradient-36);}.cls-82{fill:url(#linear-gradient-37);}.cls-83{fill:url(#linear-gradient-38);}.cls-84{fill:url(#linear-gradient-39);}.cls-85{fill:url(#linear-gradient-40);}.cls-86{fill:url(#linear-gradient-41);}.cls-87{fill:url(#linear-gradient-42);}.cls-88{fill:url(#linear-gradient-43);}.cls-89{fill:url(#linear-gradient-44);}.cls-90{fill:url(#linear-gradient-45);}.cls-91{fill:url(#linear-gradient-46);}.cls-92{fill:url(#linear-gradient-47);}.cls-93{fill:url(#linear-gradient-48);}.cls-94{fill:url(#linear-gradient-49);}.cls-95{fill:url(#linear-gradient-50);}.cls-96{fill:url(#linear-gradient-51);}.cls-97{fill:url(#linear-gradient-52);}.cls-98{fill:url(#linear-gradient-53);}.cls-99{fill:url(#linear-gradient-54);}.cls-100{fill:url(#linear-gradient-55);}.cls-101{fill:url(#linear-gradient-56);}.cls-102{fill:url(#linear-gradient-57);}.cls-103{fill:url(#linear-gradient-58);}.cls-104{fill:url(#linear-gradient-59);}.cls-105{fill:url(#linear-gradient-60);}.cls-106{opacity:0.02;}.cls-107{opacity:0.05;}.cls-108{opacity:0.07;}.cls-109{opacity:0.1;}.cls-110{opacity:0.12;}.cls-111{opacity:0.15;}.cls-112{opacity:0.17;}.cls-113{opacity:0.2;}.cls-114{opacity:0.22;}.cls-115{opacity:0.24;}.cls-116{opacity:0.27;}.cls-117{opacity:0.29;}.cls-118{opacity:0.32;}.cls-119{opacity:0.34;}.cls-120{opacity:0.37;}.cls-121{opacity:0.39;}.cls-122{opacity:0.41;}.cls-123{opacity:0.44;}.cls-124{opacity:0.46;}.cls-125{opacity:0.49;}.cls-126{opacity:0.51;}.cls-127{opacity:0.54;}.cls-128{opacity:0.56;}.cls-129{opacity:0.59;}.cls-130{opacity:0.61;}.cls-131{opacity:0.63;}.cls-132{opacity:0.66;}.cls-133{opacity:0.68;}.cls-134{opacity:0.71;}.cls-135{opacity:0.73;}.cls-136{opacity:0.76;}.cls-137{opacity:0.78;}.cls-138{opacity:0.8;}.cls-139{opacity:0.83;}.cls-140{opacity:0.85;}.cls-141{opacity:0.88;}.cls-142{opacity:0.9;}.cls-143{opacity:0.93;}.cls-144{opacity:0.95;}.cls-145{opacity:0.98;}.cls-146{fill:url(#linear-gradient-61);}.cls-147{fill:url(#linear-gradient-62);}.cls-148{fill:url(#linear-gradient-63);}.cls-149{fill:url(#linear-gradient-64);}.cls-150{fill:url(#linear-gradient-65);}.cls-151{fill:url(#linear-gradient-66);}.cls-152{fill:url(#linear-gradient-67);}.cls-153{fill:url(#linear-gradient-68);}.cls-154{fill:url(#linear-gradient-69);}.cls-155{fill:url(#linear-gradient-70);}.cls-156{fill:url(#linear-gradient-71);}.cls-157{fill:url(#linear-gradient-72);}.cls-158{fill:url(#linear-gradient-73);}.cls-159{fill:url(#linear-gradient-74);}.cls-160{fill:url(#linear-gradient-75);}.cls-161{fill:url(#linear-gradient-76);}.cls-162{fill:url(#linear-gradient-77);}.cls-163{fill:url(#linear-gradient-78);}.cls-164{fill:url(#linear-gradient-79);}.cls-165{fill:url(#linear-gradient-80);}.cls-166{fill:url(#linear-gradient-81);}.cls-167{fill:url(#linear-gradient-82);}.cls-168{fill:url(#linear-gradient-83);}.cls-169{fill:url(#linear-gradient-84);}.cls-170{fill:url(#linear-gradient-85);}.cls-171{fill:url(#linear-gradient-86);}.cls-172{fill:url(#linear-gradient-87);}.cls-173{fill:url(#linear-gradient-88);}.cls-174{fill:url(#linear-gradient-89);}.cls-175{fill:url(#linear-gradient-90);}.cls-176{fill:url(#linear-gradient-91);}.cls-177{fill:url(#linear-gradient-92);}</style><linearGradient id="linear-gradient" x1="121.11" y1="130.11" x2="26.95" y2="61.72" gradientUnits="userSpaceOnUse"><stop offset="0" stop-color="#6318ff"/><stop offset="1" stop-color="#13ffe2"/></linearGradient><linearGradient id="linear-gradient-2" x1="138.11" y1="121" x2="237.11" y2="63.67" xlink:href="#linear-gradient"/><linearGradient id="linear-gradient-3" x1="119.39" y1="146.47" x2="55.06" y2="184.8" gradientTransform="translate(96.31 -19.06) rotate(30.36)" xlink:href="#linear-gradient"/><linearGradient id="linear-gradient-4" x1="137.27" y1="143.76" x2="200.61" y2="183.43" gradientTransform="translate(236.08 -70.74) rotate(59.7)" xlink:href="#linear-gradient"/><linearGradient id="linear-gradient-5" x1="44.52" y1="51.37" x2="38.1" y2="51.37" gradientUnits="userSpaceOnUse"><stop offset="0" stop-color="#3d00e7"/><stop offset="1" stop-color="#6031ff"/></linearGradient><linearGradient id="linear-gradient-6" x1="110.43" y1="83.04" x2="12.29" y2="17.02" gradientUnits="userSpaceOnUse"><stop offset="0" stop-color="#6318ff"/><stop offset="1" stop-color="#fff6ff"/></linearGradient><linearGradient id="linear-gradient-7" x1="44.52" y1="31.42" x2="38.1" y2="31.42" xlink:href="#linear-gradient-5"/><linearGradient id="linear-gradient-8" x1="124.4" y1="83.95" x2="22.28" y2="9.77" xlink:href="#linear-gradient-6"/><linearGradient id="linear-gradient-9" x1="28.7" y1="23.05" x2="53.14" y2="23.05" gradientUnits="userSpaceOnUse"><stop offset="0" stop-color="#4500ff"/><stop offset="1" stop-color="#6a31ff"/></linearGradient><linearGradient id="linear-gradient-10" x1="41.78" y1="20.52" x2="38.1" y2="20.52" gradientUnits="userSpaceOnUse"><stop offset="0" stop-color="#3600f4"/><stop offset="1" stop-color="#330ee0"/></linearGradient><linearGradient id="linear-gradient-11" x1="43.92" y1="23.18" x2="38.15" y2="23.18" gradientUnits="userSpaceOnUse"><stop offset="0" stop-color="#8161e2"/><stop offset="1" stop-color="#caccff"/></linearGradient><linearGradient id="linear-gradient-12" x1="43.92" y1="23.18" x2="38.15" y2="23.18" gradientUnits="userSpaceOnUse"><stop offset="0" stop-color="#8161e2"/><stop offset="1" stop-color="#9554ff"/></linearGradient><linearGradient id="linear-gradient-13" x1="107.84" y1="78.08" x2="56.51" y2="59.21" xlink:href="#linear-gradient"/><linearGradient id="linear-gradient-14" x1="60.67" y1="61.41" x2="63.77" y2="73.63" xlink:href="#linear-gradient"/><linearGradient id="linear-gradient-15" x1="46.91" y1="53.75" x2="58.8" y2="71.28" xlink:href="#linear-gradient"/><linearGradient id="linear-gradient-16" x1="107.84" y1="71.9" x2="56.51" y2="53.03" xlink:href="#linear-gradient"/><linearGradient id="linear-gradient-17" x1="61.6" y1="54.99" x2="62.83" y2="59.83" xlink:href="#linear-gradient"/><linearGradient id="linear-gradient-18" x1="50.83" y1="49.42" x2="57.72" y2="59.57" xlink:href="#linear-gradient"/><linearGradient id="linear-gradient-19" x1="224.56" y1="51.4" x2="218.09" y2="51.4" xlink:href="#linear-gradient-5"/><linearGradient id="linear-gradient-20" x1="291.01" y1="83.34" x2="192.07" y2="16.77" xlink:href="#linear-gradient-6"/><linearGradient id="linear-gradient-21" x1="224.56" y1="31.29" x2="218.09" y2="31.29" xlink:href="#linear-gradient-5"/><linearGradient id="linear-gradient-22" x1="305.1" y1="84.25" x2="202.14" y2="9.46" xlink:href="#linear-gradient-6"/><linearGradient id="linear-gradient-23" x1="208.62" y1="22.85" x2="233.25" y2="22.85" xlink:href="#linear-gradient-9"/><linearGradient id="linear-gradient-24" x1="221.8" y1="20.3" x2="218.09" y2="20.3" xlink:href="#linear-gradient-10"/><linearGradient id="linear-gradient-25" x1="223.96" y1="22.98" x2="218.13" y2="22.98" xlink:href="#linear-gradient-11"/><linearGradient id="linear-gradient-26" x1="223.96" y1="22.98" x2="218.13" y2="22.98" xlink:href="#linear-gradient-12"/><linearGradient id="linear-gradient-27" x1="247.01" y1="73.94" x2="198.05" y2="55.94" xlink:href="#linear-gradient"/><linearGradient id="linear-gradient-28" x1="201.5" y1="58.17" x2="205.5" y2="73.95" xlink:href="#linear-gradient"/><linearGradient id="linear-gradient-29" x1="186.71" y1="49.7" x2="200.85" y2="70.54" xlink:href="#linear-gradient"/><linearGradient id="linear-gradient-30" x1="247.01" y1="68.04" x2="198.05" y2="50.05" xlink:href="#linear-gradient"/><linearGradient id="linear-gradient-31" x1="202.91" y1="51.91" x2="204.09" y2="56.53" xlink:href="#linear-gradient"/><linearGradient id="linear-gradient-32" x1="192.64" y1="46.6" x2="199.21" y2="56.28" xlink:href="#linear-gradient"/><linearGradient id="linear-gradient-33" x1="42.95" y1="193.09" x2="36.54" y2="193.09" xlink:href="#linear-gradient-5"/><linearGradient id="linear-gradient-34" x1="108.87" y1="224.77" x2="10.73" y2="158.74" xlink:href="#linear-gradient-6"/><linearGradient id="linear-gradient-35" x1="42.95" y1="173.15" x2="36.54" y2="173.15" xlink:href="#linear-gradient-5"/><linearGradient id="linear-gradient-36" x1="122.84" y1="225.68" x2="20.72" y2="151.5" xlink:href="#linear-gradient-6"/><linearGradient id="linear-gradient-37" x1="27.14" y1="164.77" x2="51.57" y2="164.77" xlink:href="#linear-gradient-9"/><linearGradient id="linear-gradient-38" x1="40.22" y1="162.25" x2="36.53" y2="162.25" xlink:href="#linear-gradient-10"/><linearGradient id="linear-gradient-39" x1="42.36" y1="164.91" x2="36.58" y2="164.91" xlink:href="#linear-gradient-11"/><linearGradient id="linear-gradient-40" x1="42.36" y1="164.91" x2="36.58" y2="164.91" xlink:href="#linear-gradient-12"/><linearGradient id="linear-gradient-41" x1="106.28" y1="219.81" x2="54.94" y2="200.94" xlink:href="#linear-gradient"/><linearGradient id="linear-gradient-42" x1="59.1" y1="203.13" x2="62.21" y2="215.35" xlink:href="#linear-gradient"/><linearGradient id="linear-gradient-43" x1="45.35" y1="195.48" x2="57.24" y2="213.01" xlink:href="#linear-gradient"/><linearGradient id="linear-gradient-44" x1="106.28" y1="213.63" x2="54.94" y2="194.76" xlink:href="#linear-gradient"/><linearGradient id="linear-gradient-45" x1="60.04" y1="196.72" x2="61.27" y2="201.56" xlink:href="#linear-gradient"/><linearGradient id="linear-gradient-46" x1="49.27" y1="191.14" x2="56.16" y2="201.3" xlink:href="#linear-gradient"/><linearGradient id="linear-gradient-47" x1="222.98" y1="194.5" x2="216.52" y2="194.5" xlink:href="#linear-gradient-5"/><linearGradient id="linear-gradient-48" x1="289.44" y1="226.44" x2="190.5" y2="159.87" xlink:href="#linear-gradient-6"/><linearGradient id="linear-gradient-49" x1="222.98" y1="174.39" x2="216.52" y2="174.39" xlink:href="#linear-gradient-5"/><linearGradient id="linear-gradient-50" x1="303.52" y1="227.35" x2="200.56" y2="152.56" xlink:href="#linear-gradient-6"/><linearGradient id="linear-gradient-51" x1="207.04" y1="165.95" x2="231.67" y2="165.95" xlink:href="#linear-gradient-9"/><linearGradient id="linear-gradient-52" x1="220.23" y1="163.4" x2="216.51" y2="163.4" xlink:href="#linear-gradient-10"/><linearGradient id="linear-gradient-53" x1="222.39" y1="166.08" x2="216.56" y2="166.08" xlink:href="#linear-gradient-11"/><linearGradient id="linear-gradient-54" x1="222.39" y1="166.08" x2="216.56" y2="166.08" xlink:href="#linear-gradient-12"/><linearGradient id="linear-gradient-55" x1="245.44" y1="217.04" x2="196.48" y2="199.04" xlink:href="#linear-gradient"/><linearGradient id="linear-gradient-56" x1="199.92" y1="201.27" x2="203.93" y2="217.05" xlink:href="#linear-gradient"/><linearGradient id="linear-gradient-57" x1="185.14" y1="192.81" x2="199.28" y2="213.65" xlink:href="#linear-gradient"/><linearGradient id="linear-gradient-58" x1="245.44" y1="211.14" x2="196.48" y2="193.15" xlink:href="#linear-gradient"/><linearGradient id="linear-gradient-59" x1="201.34" y1="195.02" x2="202.51" y2="199.63" xlink:href="#linear-gradient"/><linearGradient id="linear-gradient-60" x1="191.06" y1="189.7" x2="197.63" y2="199.39" xlink:href="#linear-gradient"/><linearGradient id="linear-gradient-61" x1="136.64" y1="113.57" x2="128.12" y2="113.57" xlink:href="#linear-gradient-5"/><linearGradient id="linear-gradient-62" x1="341.8" y1="225.87" x2="91.12" y2="43.78" xlink:href="#linear-gradient-6"/><linearGradient id="linear-gradient-63" x1="206.03" y1="126.83" x2="70.34" y2="28.27" xlink:href="#linear-gradient-9"/><linearGradient id="linear-gradient-64" x1="123.52" y1="133.56" x2="87.04" y2="107.42" gradientUnits="userSpaceOnUse"><stop offset="0" stop-color="#a43dff"/><stop offset="1" stop-color="#ead6e2"/></linearGradient><linearGradient id="linear-gradient-65" x1="205.53" y1="-46.95" x2="126.67" y2="-104.23" gradientTransform="matrix(0.85, 0.52, 0.47, 1.45, 28.52, 187.94)" gradientUnits="userSpaceOnUse"><stop offset="0" stop-color="#6318ff"/><stop offset="1" stop-color="#fff6e2"/></linearGradient><linearGradient id="linear-gradient-66" x1="123.49" y1="124.16" x2="87" y2="98.02" xlink:href="#linear-gradient-64"/><linearGradient id="linear-gradient-67" x1="209.19" y1="-55.47" x2="130.34" y2="-112.75" xlink:href="#linear-gradient-65"/><linearGradient id="linear-gradient-68" x1="123.55" y1="114.8" x2="87.07" y2="88.66" xlink:href="#linear-gradient-64"/><linearGradient id="linear-gradient-69" x1="213.52" y1="-63.62" x2="134.67" y2="-120.9" gradientTransform="matrix(0.85, 0.52, 0.47, 1.45, 28.52, 187.94)" gradientUnits="userSpaceOnUse"><stop offset="0" stop-color="#6318ff"/><stop offset="0.96" stop-color="#f9eee3"/><stop offset="1" stop-color="#fff6e2"/></linearGradient><linearGradient id="linear-gradient-70" x1="123.55" y1="105.43" x2="87.07" y2="79.29" xlink:href="#linear-gradient-64"/><linearGradient id="linear-gradient-71" x1="219.11" y1="-70.77" x2="140.25" y2="-128.05" xlink:href="#linear-gradient-65"/><linearGradient id="linear-gradient-72" x1="132.8" y1="68.55" x2="127.92" y2="68.55" xlink:href="#linear-gradient-10"/><linearGradient id="linear-gradient-73" x1="261.16" y1="332.14" x2="192.42" y2="282.21" gradientTransform="matrix(0.87, -0.5, 0, 1.15, -42.15, -143.71)" gradientUnits="userSpaceOnUse"><stop offset="0" stop-color="#6318ff"/><stop offset="0.11" stop-color="#573afb"/><stop offset="0.35" stop-color="#3f7ff2"/><stop offset="0.57" stop-color="#2cb6eb"/><stop offset="0.76" stop-color="#1fdee6"/><stop offset="0.91" stop-color="#16f6e3"/><stop offset="1" stop-color="#13ffe2"/></linearGradient><linearGradient id="linear-gradient-74" x1="242.76" y1="318.14" x2="217.96" y2="300.12" xlink:href="#linear-gradient-73"/><linearGradient id="linear-gradient-75" x1="240.16" y1="325.6" x2="198.25" y2="295.16" xlink:href="#linear-gradient-73"/><linearGradient id="linear-gradient-76" x1="253.48" y1="334.29" x2="203.06" y2="297.66" xlink:href="#linear-gradient-73"/><linearGradient id="linear-gradient-77" x1="220.11" y1="319.4" x2="203.82" y2="307.57" xlink:href="#linear-gradient-73"/><linearGradient id="linear-gradient-78" x1="261.16" y1="347.46" x2="192.42" y2="297.54" xlink:href="#linear-gradient-73"/><linearGradient id="linear-gradient-79" x1="242.76" y1="333.48" x2="217.96" y2="315.47" xlink:href="#linear-gradient-73"/><linearGradient id="linear-gradient-80" x1="240.16" y1="340.95" x2="198.25" y2="310.5" xlink:href="#linear-gradient-73"/><linearGradient id="linear-gradient-81" x1="253.48" y1="349.64" x2="203.06" y2="313.01" xlink:href="#linear-gradient-73"/><linearGradient id="linear-gradient-82" x1="220.11" y1="334.74" x2="203.82" y2="322.91" xlink:href="#linear-gradient-73"/><linearGradient id="linear-gradient-83" x1="261.16" y1="362.54" x2="192.42" y2="312.61" xlink:href="#linear-gradient-73"/><linearGradient id="linear-gradient-84" x1="185.92" y1="171.47" x2="124.3" y2="156.72" gradientUnits="userSpaceOnUse"><stop offset="0" stop-color="#6318ff"/><stop offset="0.51" stop-color="#3a8df0"/><stop offset="1" stop-color="#13ffe2"/></linearGradient><linearGradient id="linear-gradient-85" x1="130.57" y1="159.68" x2="136.05" y2="181.23" xlink:href="#linear-gradient"/><linearGradient id="linear-gradient-86" x1="120.38" y1="156.45" x2="128.07" y2="177.33" xlink:href="#linear-gradient"/><linearGradient id="linear-gradient-87" x1="192.59" y1="169.81" x2="125.89" y2="145.3" xlink:href="#linear-gradient"/><linearGradient id="linear-gradient-88" x1="132.16" y1="147.93" x2="134.46" y2="156.98" xlink:href="#linear-gradient"/><linearGradient id="linear-gradient-89" x1="117.05" y1="139.91" x2="127.87" y2="155.86" xlink:href="#linear-gradient"/><linearGradient id="linear-gradient-90" x1="192.59" y1="161.78" x2="125.89" y2="137.27" xlink:href="#linear-gradient"/><linearGradient id="linear-gradient-91" x1="132.51" y1="139.81" x2="134.11" y2="146.1" xlink:href="#linear-gradient"/><linearGradient id="linear-gradient-92" x1="118.51" y1="132.57" x2="127.46" y2="145.77" xlink:href="#linear-gradient"/></defs><g class="cls-1"><g id="Layer_2" data-name="Layer 2"><g id="content"><g id="_6" data-name="6"><path class="cls-2" d="M113.74,131.29,12.9,72.1l2.3-1.27c1.14-.63,27.9-15.46,30-16.47l1.32,2.69C45,57.78,29,66.64,19,72.18l96.3,56.52Z"/><path class="cls-3" d="M149.79,132.75l-1.51-2.59,97.13-56.93c-6.74-3.7-25.76-14.15-27.55-15.17l1.48-2.61c2.11,1.2,29.56,16.27,29.83,16.42l2.32,1.28Z"/><rect class="cls-4" x="31.11" y="166.48" width="104.36" height="3" transform="translate(-73.47 65.12) rotate(-30.36)"/><rect class="cls-5" x="178.18" y="122.95" width="3" height="94.74" transform="translate(-58.03 239.52) rotate(-59.7)"/></g><g id="_5" data-name="5"><g id="_2" data-name="2"><g class="cls-6"><path class="cls-7" d="M34.59,80.37,4.35,62.84C.21,60.44.74,56.27,5.53,53.51l25.56-14.7c4.79-2.75,12-3,16.16-.64L77.49,55.7c4.14,2.39,3.61,6.57-1.18,9.32L50.75,79.72C46,82.48,38.73,82.76,34.59,80.37Z"/><path class="cls-8" d="M34.67,80.08,4.85,62.79C.77,60.42,1.29,56.31,6,53.59l25.22-14.5c4.72-2.72,11.86-3,15.94-.63L77,55.75c4.08,2.36,3.56,6.48-1.16,9.19L50.61,79.45C45.89,82.16,38.75,82.45,34.67,80.08Z"/><path class="cls-9" d="M34.76,79.79,5.34,62.74c-4-2.33-3.51-6.39,1.15-9.07l24.87-14.3c4.66-2.68,11.7-3,15.72-.63l29.42,17c4,2.34,3.51,6.4-1.15,9.08L50.48,79.17C45.82,81.85,38.78,82.13,34.76,79.79Z"/><path class="cls-10" d="M34.85,79.51l-29-16.82c-4-2.3-3.46-6.3,1.13-8.94L31.5,39.64C36.09,37,43,36.73,47,39L76,55.84c4,2.3,3.46,6.31-1.13,9L50.34,78.89C45.75,81.53,38.81,81.81,34.85,79.51Z"/><path class="cls-11" d="M34.93,79.22,6.34,62.64c-3.91-2.26-3.42-6.21,1.11-8.81L31.63,39.92c4.53-2.6,11.37-2.87,15.28-.6L75.5,55.89c3.91,2.27,3.42,6.22-1.11,8.82L50.21,78.61C45.68,81.22,38.84,81.49,34.93,79.22Z"/><path class="cls-12" d="M35,78.93,6.84,62.6C3,60.36,3.47,56.47,7.93,53.9L31.76,40.2c4.46-2.56,11.21-2.83,15.06-.6L75,55.94c3.86,2.23,3.37,6.13-1.09,8.69L50.08,78.33C45.62,80.9,38.87,81.17,35,78.93Z"/><path class="cls-13" d="M35.1,78.65,7.33,62.55C3.53,60.34,4,56.51,8.41,54L31.9,40.48c4.39-2.53,11-2.79,14.84-.59L74.51,56c3.8,2.2,3.31,6-1.08,8.56L49.94,78.06C45.55,80.58,38.9,80.85,35.1,78.65Z"/><path class="cls-14" d="M35.19,78.36,7.83,62.5c-3.74-2.17-3.27-6,1.06-8.44L32,40.76c4.33-2.49,10.88-2.75,14.62-.58L74,56C77.75,58.21,77.28,62,73,64.47L49.81,77.78C45.48,80.27,38.93,80.53,35.19,78.36Z"/><path class="cls-15" d="M35.28,78.07,8.33,62.45c-3.69-2.14-3.22-5.86,1.05-8.31L32.16,41c4.27-2.46,10.72-2.71,14.4-.58l27,15.62c3.69,2.14,3.22,5.86-1.05,8.32L49.68,77.5C45.41,80,39,80.21,35.28,78.07Z"/><path class="cls-16" d="M35.36,77.79,8.82,62.4c-3.63-2.1-3.16-5.77,1-8.18L32.3,41.31c4.2-2.41,10.55-2.66,14.18-.56L73,56.13c3.63,2.11,3.16,5.77-1,8.19L49.54,77.22C45.34,79.64,39,79.89,35.36,77.79Z"/><path class="cls-17" d="M35.45,77.5,9.32,62.35c-3.57-2.07-3.12-5.68,1-8.05L32.43,41.59c4.14-2.38,10.39-2.63,14-.55L72.52,56.18c3.57,2.07,3.12,5.68-1,8.06L49.41,76.94C45.27,79.32,39,79.57,35.45,77.5Z"/><path class="cls-18" d="M35.53,77.21,9.82,62.3c-3.52-2-3.07-5.59,1-7.93l21.74-12.5c4.07-2.34,10.23-2.59,13.75-.55L72,56.23c3.52,2,3.07,5.59-1,7.93L49.28,76.67C45.21,79,39.05,79.25,35.53,77.21Z"/><path class="cls-19" d="M35.62,76.92,10.32,62.26c-3.47-2-3-5.51,1-7.81l21.4-12.3c4-2.31,10.06-2.55,13.52-.54l25.3,14.67c3.47,2,3,5.5-1,7.8L49.14,76.39C45.14,78.69,39.08,78.93,35.62,76.92Z"/><path class="cls-20" d="M35.71,76.64,10.81,62.21c-3.4-2-3-5.41,1-7.68l21-12.1c3.94-2.27,9.9-2.51,13.3-.53L71,56.33c3.4,2,3,5.41-1,7.68L49,76.11C45.07,78.38,39.11,78.61,35.71,76.64Z"/><path class="cls-21" d="M35.79,76.35,11.31,62.16c-3.35-1.94-2.92-5.32.95-7.55L33,42.7c3.88-2.23,9.74-2.46,13.09-.52l24.48,14.2c3.35,1.94,2.92,5.32-1,7.55l-20.7,11.9C45,78.06,39.14,78.29,35.79,76.35Z"/><path class="cls-22" d="M35.88,76.06l-24.07-14c-3.3-1.91-2.88-5.23.93-7.42L33.1,43c3.81-2.19,9.57-2.42,12.86-.51L70,56.42c3.3,1.91,2.88,5.24-.93,7.43L48.74,75.55C44.93,77.74,39.17,78,35.88,76.06Z"/><path class="cls-23" d="M36,75.78,12.3,62.06c-3.23-1.87-2.82-5.14.92-7.3l20-11.5c3.75-2.15,9.41-2.38,12.65-.5L69.54,56.47c3.23,1.88,2.82,5.15-.92,7.3l-20,11.51C44.86,77.43,39.2,77.65,36,75.78Z"/><path class="cls-24" d="M36.05,75.49,12.8,62c-3.18-1.84-2.77-5,.91-7.17l19.66-11.3c3.68-2.12,9.24-2.34,12.42-.5L69,56.52c3.18,1.85,2.77,5.06-.91,7.17L48.48,75C44.79,77.11,39.23,77.33,36.05,75.49Z"/><path class="cls-25" d="M36.14,75.2,13.3,62c-3.13-1.81-2.73-5,.89-7L33.5,43.82c3.61-2.08,9.08-2.3,12.2-.49L68.54,56.57c3.13,1.81,2.73,5-.89,7L48.34,74.72C44.73,76.8,39.26,77,36.14,75.2Z"/><path class="cls-26" d="M36.22,74.92l-22.42-13c-3.07-1.78-2.68-4.88.87-6.92l19-10.91c3.55-2,8.92-2.25,12-.47L68,56.62c3.07,1.78,2.68,4.87-.87,6.92l-19,10.9C44.66,76.48,39.29,76.7,36.22,74.92Z"/><path class="cls-27" d="M36.31,74.63l-22-12.76c-3-1.75-2.63-4.79.86-6.79L33.77,44.37c3.48-2,8.75-2.21,11.76-.47l22,12.77c3,1.74,2.63,4.78-.86,6.79L48.07,74.16C44.59,76.17,39.32,76.38,36.31,74.63Z"/><path class="cls-28" d="M36.4,74.34,14.79,61.82c-3-1.71-2.58-4.7.84-6.66L33.9,44.65c3.42-2,8.59-2.17,11.54-.46L67.05,56.72c3,1.71,2.58,4.69-.84,6.66L47.94,73.89C44.52,75.85,39.35,76.06,36.4,74.34Z"/><path class="cls-29" d="M36.48,74.06,15.29,61.77c-2.9-1.68-2.53-4.61.82-6.54L34,44.93c3.36-1.93,8.43-2.13,11.33-.45L66.55,56.76c2.9,1.69,2.53,4.61-.82,6.54L47.81,73.61C44.45,75.54,39.38,75.74,36.48,74.06Z"/><path class="cls-30" d="M36.57,73.77l-20.79-12c-2.84-1.65-2.48-4.52.81-6.41l17.58-10.1c3.29-1.9,8.26-2.09,11.1-.44l20.79,12c2.84,1.65,2.48,4.52-.81,6.41L47.67,73.33C44.38,75.22,39.41,75.42,36.57,73.77Z"/><path class="cls-31" d="M36.65,73.48,16.28,61.67c-2.79-1.61-2.43-4.43.79-6.28L34.3,45.48c3.23-1.85,8.1-2,10.89-.43L65.56,56.86c2.79,1.62,2.43,4.43-.79,6.28L47.54,73.05C44.32,74.91,39.44,75.1,36.65,73.48Z"/><path class="cls-32" d="M36.74,73.2l-20-11.57c-2.73-1.59-2.39-4.34.77-6.16l16.88-9.71c3.16-1.81,7.94-2,10.67-.42l20,11.57c2.73,1.58,2.39,4.34-.77,6.16l-16.88,9.7C44.25,74.59,39.47,74.78,36.74,73.2Z"/><path class="cls-33" d="M36.83,72.91,17.28,61.58c-2.68-1.55-2.34-4.25.76-6L34.57,46c3.09-1.78,7.77-2,10.44-.41L64.56,57c2.68,1.55,2.34,4.25-.76,6l-16.53,9.5C44.18,74.27,39.5,74.46,36.83,72.91Z"/><path class="cls-34" d="M36.91,72.62,17.77,61.53c-2.62-1.52-2.28-4.16.75-5.91l16.18-9.3c3-1.74,7.61-1.93,10.23-.41L64.07,57c2.62,1.52,2.28,4.16-.75,5.9L47.14,72.22C44.11,74,39.53,74.14,36.91,72.62Z"/><path class="cls-35" d="M37,72.34,18.27,61.48C15.71,60,16,57.41,19,55.7l15.83-9.1c3-1.71,7.45-1.89,10-.4L63.57,57.06c2.56,1.48,2.24,4.07-.73,5.77L47,71.94C44,73.64,39.56,73.82,37,72.34Z"/><path class="cls-36" d="M37.08,72.05,18.77,61.43c-2.51-1.45-2.19-4,.71-5.65L35,46.87c2.9-1.66,7.28-1.84,9.79-.38L63.07,57.1c2.51,1.46,2.19,4-.71,5.65L46.87,71.66C44,73.33,39.59,73.5,37.08,72.05Z"/><path class="cls-37" d="M37.17,71.76,19.26,61.38c-2.45-1.42-2.13-3.89.7-5.52L35.1,47.15c2.84-1.63,7.12-1.8,9.57-.38L62.58,57.15c2.45,1.42,2.13,3.9-.7,5.53l-15.14,8.7C43.9,73,39.62,73.18,37.17,71.76Z"/><path class="cls-38" d="M37.26,71.48,19.76,61.33c-2.39-1.38-2.09-3.8.68-5.39l14.8-8.51c2.76-1.59,6.95-1.76,9.34-.37L62.08,57.2c2.39,1.39,2.09,3.8-.68,5.4L46.61,71.1C43.84,72.7,39.65,72.86,37.26,71.48Z"/><path class="cls-39" d="M37.34,71.19l-17.08-9.9c-2.34-1.36-2-3.72.66-5.27l14.45-8.31c2.7-1.56,6.79-1.72,9.13-.36l17.08,9.9c2.34,1.35,2,3.71-.66,5.27L46.47,70.83C43.77,72.38,39.68,72.54,37.34,71.19Z"/><path class="cls-40" d="M37.43,70.9,20.76,61.24c-2.29-1.33-2-3.63.64-5.15L35.5,48c2.64-1.52,6.63-1.68,8.91-.36L61.09,57.3c2.28,1.32,2,3.62-.65,5.14l-14.1,8.11C43.7,72.07,39.71,72.22,37.43,70.9Z"/><path class="cls-41" d="M37.51,70.61,21.25,61.19c-2.22-1.29-1.94-3.54.63-5l13.76-7.9c2.57-1.48,6.46-1.64,8.69-.35l16.26,9.43c2.22,1.29,1.94,3.53-.63,5L46.2,70.27C43.63,71.75,39.74,71.9,37.51,70.61Z"/><path class="cls-42" d="M37.6,70.33,21.75,61.14c-2.17-1.26-1.89-3.45.62-4.89l13.4-7.71c2.51-1.44,6.3-1.59,8.47-.33L60.09,57.4c2.17,1.25,1.89,3.44-.62,4.88L46.07,70C43.56,71.43,39.77,71.59,37.6,70.33Z"/><path class="cls-43" d="M37.69,70l-15.44-9c-2.12-1.22-1.85-3.36.6-4.76l13-7.51c2.45-1.4,6.14-1.55,8.25-.33l15.44,8.95c2.12,1.23,1.85,3.36-.6,4.77l-13.05,7.5C43.49,71.12,39.8,71.27,37.69,70Z"/><path class="cls-44" d="M37.77,69.75,22.74,61c-2-1.19-1.79-3.26.59-4.63L36,49.1c2.38-1.37,6-1.51,8-.32l15,8.71c2,1.19,1.79,3.27-.59,4.64L45.8,69.44C43.42,70.8,39.83,71,37.77,69.75Z"/><path class="cls-45" d="M37.86,69.47,23.24,61c-2-1.16-1.74-3.17.57-4.5l12.36-7.11c2.31-1.33,5.81-1.47,7.81-.31L58.6,57.54c2,1.16,1.74,3.18-.57,4.51L45.67,69.16C43.36,70.49,39.86,70.63,37.86,69.47Z"/><path class="cls-46" d="M37.94,69.18,23.74,61c-1.95-1.13-1.7-3.09.55-4.39l12-6.9a8.46,8.46,0,0,1,7.6-.31l14.2,8.24c1.95,1.13,1.7,3.09-.55,4.38l-12,6.91C43.29,70.17,39.89,70.31,37.94,69.18Z"/><path class="cls-47" d="M38,68.89l-13.79-8c-1.89-1.1-1.65-3,.53-4.26l11.67-6.71a8.22,8.22,0,0,1,7.37-.29l13.8,8c1.88,1.09,1.64,3-.54,4.25L45.4,68.6A8.16,8.16,0,0,1,38,68.89Z"/><path class="cls-48" d="M38.12,68.61,24.73,60.85c-1.83-1.06-1.6-2.91.52-4.13l11.32-6.51a7.94,7.94,0,0,1,7.15-.28l13.39,7.76c1.83,1.06,1.6,2.91-.52,4.13l-11.32,6.5A8,8,0,0,1,38.12,68.61Z"/></g><path class="cls-49" d="M60.75,55.63l-.09-18.89L20.84,36l.09,18.56a1,1,0,0,0,.58,1.2L39.57,66.4a4.09,4.09,0,0,0,3.68-.12l16.6-9.35C60.5,56.56,60.81,56.08,60.75,55.63Z"/><path class="cls-50" d="M39.49,47.28,21.42,36.6c-.94-.55-.81-1.5.29-2.12l16.6-9.35A4,4,0,0,1,42,25L60.05,35.7c.93.55.8,1.5-.29,2.12l-16.6,9.35A4,4,0,0,1,39.49,47.28Z"/><path class="cls-51" d="M60.76,31.84V23.72l-13.4-.31-5.29-3.12a4,4,0,0,0-3.67.11l-4.8,2.7-12.71-.28V31a1.1,1.1,0,0,0,.62.91L39.58,42.56a4.07,4.07,0,0,0,3.67-.12l16.6-9.35C60.48,32.73,60.79,32.27,60.76,31.84Z"/><path class="cls-52" d="M39.58,34.38,21.51,23.69c-.93-.55-.8-1.5.29-2.11l16.6-9.36a4.07,4.07,0,0,1,3.67-.11L60.14,22.79c.94.56.81,1.5-.29,2.12l-16.6,9.35A4.07,4.07,0,0,1,39.58,34.38Z"/><path class="cls-53" d="M40.16,29.87,29.09,23.32c-.58-.34-.5-.92.17-1.29l10.17-5.74a2.52,2.52,0,0,1,2.25-.06l11.07,6.54c.58.34.5.92-.17,1.3L42.41,29.8A2.49,2.49,0,0,1,40.16,29.87Z"/><path class="cls-54" d="M29.09,23.34l1.84,1.1,8.5-4.79a2.49,2.49,0,0,1,2.25-.07L50.91,25l1.67-.94c.67-.38.75-1,.17-1.3L41.68,16.25a2.49,2.49,0,0,0-2.25.07L29.26,22.05C28.59,22.42,28.51,23,29.09,23.34Z"/><path class="cls-55" d="M39.58,23,21.51,12.35c-.93-.55-.81-1.5.29-2.11L38.4.88A4.07,4.07,0,0,1,42.07.77L60.14,11.45c.93.55.81,1.5-.29,2.12l-16.6,9.35A4.07,4.07,0,0,1,39.58,23Z"/><path class="cls-56" d="M59.85,13.57l-16.6,9.35a4.07,4.07,0,0,1-3.67.12L21.51,12.35a1.09,1.09,0,0,1-.62-.87V22.9a1.1,1.1,0,0,0,.63.91L39.58,34.5a4.09,4.09,0,0,0,3.68-.12L59.86,25a1.5,1.5,0,0,0,.91-1.25V12.38A1.49,1.49,0,0,1,59.85,13.57Z"/><path class="cls-57" d="M59.85,13.57l-16.6,9.35a4.07,4.07,0,0,1-3.67.12L21.51,12.35a1.09,1.09,0,0,1-.62-.87V22.9a1.1,1.1,0,0,0,.63.91L39.58,34.5a4.09,4.09,0,0,0,3.68-.12L59.86,25a1.5,1.5,0,0,0,.91-1.25V12.38A1.49,1.49,0,0,1,59.85,13.57Z"/></g><polygon class="cls-58" points="53.22 60.17 59.22 56.72 65.22 60.25 59.22 63.7 53.22 60.17"/><polygon class="cls-59" points="59.22 74.78 59.22 63.7 65.22 60.25 65.22 71.33 59.22 74.78"/><polygon class="cls-60" points="53.22 60.17 53.22 71.25 59.22 74.78 59.22 63.7 53.22 60.17"/><polygon class="cls-61" points="53.22 53.99 59.22 50.54 65.22 54.07 59.22 57.52 53.22 53.99"/><polygon class="cls-62" points="59.22 60.75 59.22 57.52 65.22 54.07 65.22 57.3 59.22 60.75"/><polygon class="cls-63" points="53.22 53.99 53.22 57.22 59.22 60.75 59.22 57.52 53.22 53.99"/></g><g id="_4" data-name="4"><g id="_2-2" data-name="2"><g class="cls-6"><path class="cls-7" d="M214.55,80.64,184.06,63c-4.17-2.42-3.64-6.63,1.19-9.41L211,38.74c4.82-2.77,12.11-3.06,16.29-.65L257.8,55.77c4.17,2.41,3.64,6.62-1.18,9.4L230.84,80C226,82.77,218.72,83.06,214.55,80.64Z"/><path class="cls-8" d="M214.63,80.35,184.56,62.92c-4.11-2.39-3.59-6.54,1.17-9.28L211.16,39c4.76-2.74,12-3,16.07-.64L257.3,55.81c4.11,2.39,3.59,6.54-1.17,9.28L230.7,79.71C225.94,82.45,218.75,82.73,214.63,80.35Z"/><path class="cls-9" d="M214.72,80.06,185.07,62.87c-4.06-2.35-3.55-6.45,1.15-9.15L211.3,39.3c4.69-2.7,11.78-3,15.84-.63L256.8,55.86c4.06,2.36,3.54,6.45-1.16,9.15L230.57,79.43C225.87,82.13,218.78,82.41,214.72,80.06Z"/><path class="cls-10" d="M214.81,79.77,185.57,62.82c-4-2.32-3.5-6.36,1.13-9l24.73-14.22c4.63-2.66,11.62-2.94,15.63-.62L256.3,55.91c4,2.32,3.49,6.36-1.14,9L230.43,79.15C225.8,81.81,218.81,82.09,214.81,79.77Z"/><path class="cls-11" d="M214.9,79.48,186.07,62.77c-3.95-2.29-3.44-6.27,1.12-8.89l24.37-14C216.13,37.24,223,37,227,39.25L255.8,56c3.94,2.29,3.44,6.27-1.13,8.89l-24.37,14C225.74,81.49,218.84,81.77,214.9,79.48Z"/><path class="cls-12" d="M215,79.19,186.57,62.72c-3.89-2.25-3.39-6.18,1.1-8.76l24-13.82c4.5-2.58,11.29-2.85,15.18-.6L255.3,56c3.88,2.25,3.39,6.18-1.11,8.76l-24,13.82C225.67,81.17,218.87,81.44,215,79.19Z"/><path class="cls-13" d="M215.07,78.9l-28-16.23c-3.83-2.22-3.34-6.08,1.09-8.63l23.67-13.62c4.44-2.55,11.13-2.81,15-.59l28,16.23c3.83,2.22,3.35,6.09-1.09,8.63L230,78.31C225.6,80.86,218.9,81.12,215.07,78.9Z"/><path class="cls-14" d="M215.16,78.61l-27.59-16c-3.77-2.18-3.29-6,1.07-8.5L212,40.7c4.37-2.51,11-2.77,14.74-.58l27.58,16c3.78,2.19,3.3,6-1.07,8.51L229.9,78C225.53,80.54,218.93,80.8,215.16,78.61Z"/><path class="cls-15" d="M215.24,78.32,188.07,62.57c-3.71-2.15-3.24-5.9,1.06-8.38L212.1,41c4.3-2.47,10.8-2.73,14.52-.57l27.17,15.75c3.72,2.15,3.25,5.9-1.06,8.38l-23,13.21C225.46,80.22,219,80.48,215.24,78.32Z"/><path class="cls-16" d="M215.33,78l-26.76-15.5c-3.66-2.13-3.19-5.82,1-8.26l22.63-13c4.23-2.43,10.63-2.69,14.29-.56l26.76,15.51c3.66,2.12,3.19,5.81-1,8.25l-22.62,13C225.39,79.9,219,80.16,215.33,78Z"/><path class="cls-17" d="M215.42,77.75,189.07,62.48c-3.6-2.09-3.14-5.73,1-8.13l22.27-12.81c4.17-2.39,10.47-2.64,14.08-.55l26.34,15.26c3.6,2.09,3.14,5.73-1,8.13L229.49,77.19C225.32,79.58,219,79.83,215.42,77.75Z"/><path class="cls-18" d="M215.5,77.46l-25.92-15c-3.55-2.06-3.1-5.64,1-8l21.93-12.61c4.1-2.36,10.3-2.6,13.85-.55l25.93,15c3.55,2.06,3.09,5.64-1,8L229.36,76.91C225.25,79.27,219.05,79.51,215.5,77.46Z"/><path class="cls-19" d="M215.59,77.17,190.08,62.38c-3.49-2-3.05-5.55,1-7.87l21.57-12.4c4-2.33,10.14-2.57,13.63-.55l25.52,14.79c3.49,2,3,5.55-1,7.87L229.22,76.63C225.18,79,219.08,79.19,215.59,77.17Z"/><path class="cls-20" d="M215.68,76.88l-25.1-14.55c-3.44-2-3-5.46,1-7.74l21.23-12.2c4-2.29,10-2.53,13.41-.54l25.1,14.55c3.43,2,3,5.46-1,7.74L229.09,76.35C225.11,78.63,219.11,78.87,215.68,76.88Z"/><path class="cls-21" d="M215.76,76.59,191.08,62.28c-3.38-2-3-5.37,1-7.61l20.87-12c3.91-2.25,9.81-2.49,13.19-.53l24.68,14.31c3.38,2,2.95,5.37-1,7.61L229,76.07C225.05,78.31,219.14,78.55,215.76,76.59Z"/><path class="cls-22" d="M215.85,76.3,191.58,62.23c-3.32-1.92-2.9-5.27.94-7.48L213.05,43c3.84-2.21,9.64-2.44,13-.52L250.28,56.5c3.32,1.92,2.9,5.28-.94,7.48l-20.52,11.8C225,78,219.17,78.22,215.85,76.3Z"/><path class="cls-23" d="M215.94,76,192.08,62.18c-3.26-1.89-2.85-5.18.93-7.35l20.17-11.6c3.78-2.17,9.48-2.4,12.75-.51l23.85,13.83c3.27,1.89,2.85,5.18-.93,7.36L228.68,75.5C224.91,77.68,219.2,77.9,215.94,76Z"/><path class="cls-24" d="M216,75.72,192.58,62.13c-3.2-1.86-2.8-5.09.91-7.23l19.83-11.39c3.71-2.14,9.31-2.36,12.52-.5L249.28,56.6c3.21,1.86,2.8,5.09-.91,7.23L228.55,75.22C224.84,77.36,219.23,77.58,216,75.72Z"/><path class="cls-25" d="M216.11,75.43l-23-13.34c-3.15-1.83-2.75-5,.9-7.11l19.47-11.19c3.64-2.1,9.15-2.32,12.3-.49l23,13.35c3.15,1.82,2.75,5-.9,7.1L228.41,74.94C224.77,77,219.26,77.26,216.11,75.43Z"/><path class="cls-26" d="M216.2,75.14,193.59,62c-3.1-1.8-2.7-4.92.87-7l19.12-11c3.58-2.06,9-2.28,12.09-.48L248.28,56.7c3.09,1.79,2.7,4.91-.88,7l-19.12,11C224.7,76.72,219.29,76.94,216.2,75.14Z"/><path class="cls-27" d="M216.28,74.85,194.09,62c-3-1.76-2.65-4.83.86-6.85l18.77-10.79c3.51-2,8.82-2.23,11.86-.47l22.2,12.86c3,1.76,2.65,4.83-.87,6.85L228.14,74.38C224.63,76.4,219.32,76.61,216.28,74.85Z"/><path class="cls-28" d="M216.37,74.56,194.59,61.94c-3-1.73-2.6-4.74.85-6.72l18.41-10.59c3.45-2,8.66-2.19,11.64-.46l21.79,12.62c3,1.73,2.6,4.74-.85,6.72L228,74.1C224.56,76.09,219.35,76.29,216.37,74.56Z"/><path class="cls-29" d="M216.46,74.28,195.09,61.89c-2.92-1.7-2.55-4.65.83-6.59L214,44.91c3.38-1.95,8.49-2.15,11.42-.45l21.36,12.38c2.93,1.7,2.56,4.65-.83,6.59L227.88,73.82C224.49,75.77,219.38,76,216.46,74.28Z"/><path class="cls-30" d="M216.54,74,195.59,61.84c-2.87-1.66-2.5-4.55.82-6.46l17.71-10.19c3.32-1.91,8.33-2.11,11.2-.45l21,12.15c2.87,1.66,2.51,4.56-.81,6.46L227.74,73.54C224.42,75.45,219.41,75.65,216.54,74Z"/><path class="cls-31" d="M216.63,73.7,196.09,61.79c-2.81-1.63-2.45-4.46.8-6.33l17.37-10c3.25-1.87,8.16-2.07,11-.44l20.54,11.91c2.81,1.63,2.45,4.47-.8,6.33l-17.36,10C224.35,75.13,219.44,75.33,216.63,73.7Z"/><path class="cls-32" d="M216.72,73.41,196.59,61.74c-2.75-1.59-2.4-4.37.79-6.2l17-9.79c3.19-1.83,8-2,10.76-.43L245.27,57c2.75,1.59,2.4,4.37-.78,6.21l-17,9.78C224.29,74.81,219.47,75,216.72,73.41Z"/><path class="cls-33" d="M216.8,73.12,197.09,61.69c-2.69-1.56-2.35-4.28.77-6.08L214.53,46c3.12-1.79,7.83-2,10.53-.42L244.77,57c2.7,1.56,2.35,4.28-.77,6.08L227.34,72.7C224.22,74.5,219.5,74.68,216.8,73.12Z"/><path class="cls-34" d="M216.89,72.83l-19.3-11.19c-2.64-1.53-2.3-4.19.76-6l16.31-9.38c3.06-1.76,7.67-1.94,10.31-.41l19.3,11.19c2.64,1.53,2.3,4.19-.75,5.95L227.2,72.42C224.15,74.18,219.53,74.36,216.89,72.83Z"/><path class="cls-35" d="M217,72.54,198.1,61.6c-2.59-1.5-2.26-4.11.73-5.83l16-9.18c3-1.72,7.5-1.9,10.09-.4l18.88,11c2.58,1.49,2.25,4.1-.74,5.82l-16,9.18C224.08,73.86,219.56,74,217,72.54Z"/><path class="cls-36" d="M217.06,72.25,198.6,61.55c-2.53-1.47-2.21-4,.72-5.7l15.61-9c2.92-1.68,7.34-1.85,9.87-.39l18.47,10.7c2.52,1.47,2.2,4-.72,5.7l-15.62,9C224,73.54,219.59,73.72,217.06,72.25Z"/><path class="cls-37" d="M217.15,72,199.1,61.5c-2.47-1.43-2.16-3.93.7-5.57l15.27-8.78c2.85-1.64,7.17-1.81,9.64-.38l18.06,10.46c2.47,1.44,2.15,3.93-.71,5.57L226.8,71.58C223.94,73.22,219.62,73.39,217.15,72Z"/><path class="cls-38" d="M217.24,71.67,199.6,61.45c-2.41-1.4-2.11-3.84.69-5.44l14.91-8.58c2.79-1.6,7-1.77,9.43-.37l17.63,10.22c2.42,1.4,2.11,3.84-.68,5.44L226.66,71.3C223.87,72.9,219.65,73.07,217.24,71.67Z"/><path class="cls-39" d="M217.32,71.38l-17.22-10c-2.36-1.37-2.06-3.74.67-5.31l14.57-8.38c2.72-1.57,6.84-1.73,9.2-.36l17.22,10c2.36,1.37,2.06,3.75-.67,5.31L226.53,71C223.8,72.59,219.68,72.75,217.32,71.38Z"/><path class="cls-40" d="M217.41,71.1,200.6,61.35c-2.3-1.33-2-3.65.66-5.18L215.47,48c2.66-1.53,6.68-1.69,9-.35l16.81,9.74c2.3,1.33,2,3.65-.65,5.18l-14.22,8.18C223.73,72.27,219.71,72.43,217.41,71.1Z"/><path class="cls-41" d="M217.5,70.81,201.1,61.3c-2.24-1.3-1.95-3.56.64-5l13.86-8c2.6-1.49,6.52-1.64,8.77-.34l16.39,9.5c2.24,1.3,2,3.56-.64,5.06l-13.86,8C223.66,72,219.74,72.11,217.5,70.81Z"/><path class="cls-42" d="M217.59,70.52l-16-9.27c-2.18-1.26-1.9-3.47.63-4.93l13.51-7.77c2.53-1.45,6.35-1.6,8.54-.34l16,9.27c2.19,1.27,1.91,3.47-.62,4.93l-13.52,7.77C223.59,71.63,219.77,71.78,217.59,70.52Z"/><path class="cls-43" d="M217.67,70.23l-15.56-9c-2.13-1.23-1.86-3.38.6-4.8l13.16-7.57c2.47-1.41,6.19-1.56,8.32-.33l15.57,9c2.13,1.23,1.86,3.38-.61,4.8L226,69.9C223.53,71.31,219.8,71.46,217.67,70.23Z"/><path class="cls-44" d="M217.76,69.94l-15.15-8.78c-2.08-1.21-1.81-3.3.59-4.68L216,49.11c2.4-1.37,6-1.52,8.09-.32l15.16,8.79c2.07,1.2,1.81,3.29-.59,4.67l-12.81,7.37C223.46,71,219.83,71.14,217.76,69.94Z"/><path class="cls-45" d="M217.85,69.65l-14.74-8.54c-2-1.17-1.76-3.21.57-4.55l12.46-7.17c2.34-1.34,5.86-1.48,7.88-.31l14.74,8.55c2,1.16,1.76,3.2-.58,4.54l-12.46,7.17C223.39,70.68,219.86,70.82,217.85,69.65Z"/><path class="cls-46" d="M217.93,69.36l-14.32-8.3c-2-1.14-1.71-3.12.56-4.42l12.11-7a8.5,8.5,0,0,1,7.65-.31l14.32,8.3c2,1.14,1.71,3.12-.55,4.42l-12.11,7C223.32,70.36,219.89,70.5,217.93,69.36Z"/><path class="cls-47" d="M218,69.07,204.11,61c-1.9-1.1-1.66-3,.54-4.29L216.41,50a8.25,8.25,0,0,1,7.43-.3l13.91,8.06c1.91,1.11,1.66,3-.54,4.29l-11.76,6.77A8.28,8.28,0,0,1,218,69.07Z"/><path class="cls-48" d="M218.11,68.78,204.61,61c-1.84-1.07-1.61-2.93.53-4.16l11.41-6.56a8,8,0,0,1,7.21-.29l13.49,7.82c1.85,1.07,1.61,2.94-.52,4.16L225.32,68.5A8,8,0,0,1,218.11,68.78Z"/></g><path class="cls-64" d="M240.93,55.7l-.09-19.05-40.15-.79.09,18.71a1,1,0,0,0,.58,1.21l18.22,10.77a4.1,4.1,0,0,0,3.7-.11L240,57C240.67,56.64,241,56.15,240.93,55.7Z"/><path class="cls-65" d="M219.49,47.28,201.27,36.51c-.94-.55-.81-1.51.29-2.13L218.3,25a4.14,4.14,0,0,1,3.7-.12L240.21,35.6c.95.56.82,1.52-.28,2.14l-16.74,9.43A4.1,4.1,0,0,1,219.49,47.28Z"/><path class="cls-66" d="M240.94,31.71V23.52l-13.51-.3-5.33-3.16a4.16,4.16,0,0,0-3.71.12l-4.84,2.73-12.81-.29v8.21a1.08,1.08,0,0,0,.63.91l18.21,10.78a4.14,4.14,0,0,0,3.7-.12L240,33A1.49,1.49,0,0,0,240.94,31.71Z"/><path class="cls-67" d="M219.58,34.27,201.37,23.5c-1-.56-.82-1.51.28-2.13l16.74-9.44a4.1,4.1,0,0,1,3.7-.11l18.22,10.77c.94.56.81,1.51-.29,2.14l-16.74,9.43A4.1,4.1,0,0,1,219.58,34.27Z"/><path class="cls-68" d="M220.16,29.73,209,23.13c-.58-.34-.5-.93.18-1.31L219.43,16A2.53,2.53,0,0,1,221.7,16l11.16,6.6c.58.34.5.93-.18,1.31l-10.25,5.78A2.53,2.53,0,0,1,220.16,29.73Z"/><path class="cls-69" d="M209,23.15l1.86,1.1,8.57-4.83a2.53,2.53,0,0,1,2.27-.07l9.3,5.5,1.68-1c.68-.38.76-1,.18-1.31L221.7,16a2.53,2.53,0,0,0-2.27.07l-10.25,5.78C208.5,22.22,208.42,22.81,209,23.15Z"/><path class="cls-55" d="M219.58,22.84,201.36,12.07c-.94-.56-.81-1.52.29-2.14L218.39.5a4.1,4.1,0,0,1,3.7-.11l18.22,10.77c.94.56.81,1.51-.29,2.13l-16.74,9.44A4.1,4.1,0,0,1,219.58,22.84Z"/><path class="cls-70" d="M240,13.29l-16.74,9.44a4.1,4.1,0,0,1-3.7.11L201.36,12.07a1.15,1.15,0,0,1-.63-.89V22.7a1.11,1.11,0,0,0,.63.92l18.21,10.77a4.12,4.12,0,0,0,3.71-.11L240,24.85c.64-.36.95-.82.92-1.26V12.09A1.51,1.51,0,0,1,240,13.29Z"/><path class="cls-71" d="M240,13.29l-16.74,9.44a4.1,4.1,0,0,1-3.7.11L201.36,12.07a1.15,1.15,0,0,1-.63-.89V22.7a1.11,1.11,0,0,0,.63.92l18.21,10.77a4.12,4.12,0,0,0,3.71-.11L240,24.85c.64-.36.95-.82.92-1.26V12.09A1.51,1.51,0,0,1,240,13.29Z"/></g><polygon class="cls-72" points="194.92 56.85 200.64 53.57 206.36 56.93 200.64 60.22 194.92 56.85"/><polygon class="cls-73" points="200.64 75.19 200.64 60.22 206.36 56.93 206.36 71.9 200.64 75.19"/><polygon class="cls-74" points="194.92 56.85 194.92 71.82 200.64 75.19 200.64 60.22 194.92 56.85"/><polygon class="cls-75" points="194.92 50.96 200.64 47.67 206.36 51.04 200.64 54.33 194.92 50.96"/><polygon class="cls-76" points="200.64 57.4 200.64 54.33 206.36 51.04 206.36 54.12 200.64 57.4"/><polygon class="cls-77" points="194.92 50.96 194.92 54.04 200.64 57.4 200.64 54.33 194.92 50.96"/></g><g id="_3" data-name="3"><g id="_2-3" data-name="2"><g class="cls-6"><path class="cls-7" d="M33,222.09,2.79,204.57C-1.35,202.17-.82,198,4,195.24l25.57-14.7c4.79-2.76,12-3,16.16-.64l30.24,17.52c4.14,2.4,3.61,6.58-1.18,9.33l-25.57,14.7C44.4,224.2,37.16,224.49,33,222.09Z"/><path class="cls-8" d="M33.11,221.81,3.29,204.52c-4.08-2.37-3.57-6.49,1.16-9.2l25.22-14.5c4.72-2.72,11.85-3,15.93-.64l29.83,17.29c4.08,2.37,3.56,6.49-1.16,9.2l-25.22,14.5C44.33,223.89,37.19,224.17,33.11,221.81Z"/><path class="cls-9" d="M33.2,221.52,3.78,204.47c-4-2.33-3.51-6.4,1.15-9.07L29.8,181.09c4.66-2.67,11.69-3,15.72-.62l29.41,17.05c4,2.33,3.52,6.4-1.14,9.07L48.92,220.9C44.26,223.57,37.22,223.85,33.2,221.52Z"/><path class="cls-10" d="M33.28,221.23l-29-16.81c-4-2.3-3.46-6.31,1.13-8.95l24.52-14.1c4.59-2.64,11.53-2.91,15.5-.61l29,16.81c4,2.3,3.46,6.3-1.13,8.94L48.78,220.62C44.19,223.26,37.25,223.53,33.28,221.23Z"/><path class="cls-11" d="M33.37,221,4.78,204.37c-3.91-2.27-3.42-6.21,1.11-8.82l24.18-13.9c4.52-2.6,11.36-2.87,15.28-.61l28.59,16.58c3.91,2.27,3.41,6.21-1.11,8.82l-24.18,13.9C44.12,222.94,37.28,223.21,33.37,221Z"/><path class="cls-12" d="M33.46,220.66,5.27,204.32c-3.85-2.23-3.36-6.12,1.1-8.69l23.83-13.7c4.46-2.57,11.2-2.84,15.06-.6l28.18,16.34c3.86,2.23,3.37,6.12-1.09,8.69l-23.83,13.7C44.05,222.63,37.31,222.89,33.46,220.66Z"/><path class="cls-13" d="M33.54,220.37,5.77,204.27c-3.8-2.2-3.31-6,1.08-8.56l23.48-13.5c4.4-2.53,11-2.8,14.84-.59L73,197.71c3.79,2.21,3.31,6-1.08,8.57l-23.49,13.5C44,222.31,37.34,222.58,33.54,220.37Z"/><path class="cls-14" d="M33.63,220.09,6.27,204.23c-3.74-2.17-3.27-5.95,1.06-8.44l23.14-13.31c4.33-2.49,10.87-2.75,14.62-.58l27.36,15.86c3.74,2.17,3.27,6-1.07,8.44L48.25,219.51C43.92,222,37.37,222.26,33.63,220.09Z"/><path class="cls-15" d="M33.71,219.8,6.77,204.18c-3.69-2.14-3.22-5.86,1-8.31L30.6,182.76c4.27-2.45,10.71-2.71,14.4-.57l27,15.62c3.69,2.14,3.22,5.86-1,8.31L48.12,219.23C43.85,221.68,37.4,221.94,33.71,219.8Z"/><path class="cls-16" d="M33.8,219.51,7.26,204.13c-3.63-2.11-3.17-5.77,1-8.19L30.73,183c4.21-2.42,10.55-2.67,14.19-.56l26.53,15.38c3.63,2.11,3.17,5.77-1,8.19L48,219C43.78,221.36,37.43,221.62,33.8,219.51Z"/><path class="cls-17" d="M33.89,219.23,7.76,204.08c-3.57-2.07-3.12-5.68,1-8.06l22.09-12.7c4.13-2.38,10.39-2.63,14-.56L71,197.91c3.57,2.07,3.12,5.68-1,8.06l-22.09,12.7C43.71,221.05,37.46,221.3,33.89,219.23Z"/><path class="cls-18" d="M34,218.94,8.26,204c-3.52-2-3.07-5.59,1-7.93L31,183.6c4.07-2.34,10.23-2.59,13.74-.55L70.46,198c3.52,2,3.07,5.59-1,7.93l-21.75,12.5C43.64,220.73,37.49,221,34,218.94Z"/><path class="cls-19" d="M34.06,218.65,8.75,204c-3.46-2-3-5.5,1-7.8l21.4-12.31c4-2.3,10.06-2.54,13.52-.53L70,198c3.46,2,3,5.5-1,7.8l-21.4,12.3C43.58,220.42,37.52,220.66,34.06,218.65Z"/><path class="cls-20" d="M34.15,218.36,9.25,203.93c-3.4-2-3-5.41,1-7.67l21-12.11c3.94-2.26,9.9-2.5,13.3-.53l24.9,14.43c3.4,2,3,5.42-1,7.68l-21,12.11C43.51,220.1,37.55,220.34,34.15,218.36Z"/><path class="cls-21" d="M34.23,218.08,9.75,203.89c-3.35-1.95-2.92-5.33.95-7.55l20.7-11.91c3.88-2.23,9.74-2.46,13.09-.52L69,198.1c3.35,1.94,2.92,5.33-1,7.55L47.31,217.56C43.44,219.79,37.58,220,34.23,218.08Z"/><path class="cls-22" d="M34.32,217.79,10.25,203.84c-3.3-1.91-2.88-5.24.93-7.43l20.36-11.7c3.81-2.19,9.57-2.42,12.86-.51l24.07,14c3.29,1.91,2.88,5.23-.94,7.43l-20.35,11.7C43.37,219.47,37.61,219.7,34.32,217.79Z"/><path class="cls-23" d="M34.4,217.5,10.74,203.79c-3.23-1.88-2.82-5.14.92-7.3l20-11.5c3.75-2.16,9.41-2.38,12.64-.51L68,198.2c3.24,1.88,2.83,5.14-.92,7.3l-20,11.5C43.3,219.16,37.64,219.38,34.4,217.5Z"/><path class="cls-24" d="M34.49,217.22,11.24,203.74c-3.18-1.84-2.78-5.05.9-7.17L31.8,185.26c3.68-2.11,9.25-2.33,12.43-.49l23.25,13.48c3.18,1.84,2.77,5.05-.91,7.17l-19.66,11.3C43.23,218.84,37.67,219.06,34.49,217.22Z"/><path class="cls-25" d="M34.58,216.93,11.74,203.69c-3.13-1.81-2.73-5,.89-7l19.31-11.11c3.61-2.08,9.08-2.29,12.2-.48L67,198.3c3.12,1.81,2.73,5-.89,7L46.78,216.45C43.16,218.53,37.7,218.74,34.58,216.93Z"/><path class="cls-26" d="M34.66,216.64l-22.43-13c-3.06-1.78-2.67-4.87.88-6.91l19-10.91c3.55-2,8.92-2.25,12-.47l22.42,13c3.07,1.77,2.68,4.87-.87,6.91l-19,10.91C43.1,218.21,37.73,218.42,34.66,216.64Z"/><path class="cls-27" d="M34.75,216.36l-22-12.77c-3-1.74-2.63-4.78.86-6.79L32.2,186.1c3.49-2,8.76-2.21,11.77-.47l22,12.76c3,1.75,2.62,4.79-.86,6.79L46.51,215.89C43,217.89,37.76,218.1,34.75,216.36Z"/><path class="cls-28" d="M34.83,216.07l-21.6-12.52c-3-1.72-2.58-4.7.84-6.67l18.27-10.5c3.42-2,8.59-2.17,11.54-.46l21.61,12.52c3,1.72,2.58,4.7-.84,6.67l-18.27,10.5C43,217.58,37.79,217.78,34.83,216.07Z"/><path class="cls-29" d="M34.92,215.78,13.73,203.5c-2.9-1.68-2.54-4.61.82-6.54l17.92-10.3c3.36-1.93,8.43-2.14,11.33-.45L65,198.49c2.9,1.68,2.53,4.61-.82,6.54l-17.92,10.3C42.89,217.26,37.82,217.46,34.92,215.78Z"/><path class="cls-30" d="M35,215.5,14.22,203.45c-2.84-1.65-2.48-4.52.81-6.41L32.6,186.93c3.29-1.89,8.27-2.09,11.11-.44l20.78,12c2.85,1.65,2.49,4.52-.8,6.41L46.11,215.06C42.82,217,37.85,217.15,35,215.5Z"/><path class="cls-31" d="M35.09,215.21,14.72,203.4c-2.79-1.62-2.43-4.43.79-6.28l17.23-9.91c3.22-1.85,8.1-2.05,10.88-.43L64,198.59c2.78,1.61,2.43,4.43-.8,6.28L46,214.78C42.75,216.63,37.88,216.83,35.09,215.21Z"/><path class="cls-32" d="M35.18,214.92l-20-11.57c-2.73-1.58-2.39-4.34.77-6.15l16.88-9.71c3.16-1.82,7.94-2,10.67-.42l20,11.57c2.73,1.58,2.38,4.34-.78,6.15L45.84,214.5C42.68,216.32,37.91,216.51,35.18,214.92Z"/><path class="cls-33" d="M35.26,214.64,15.71,203.3c-2.67-1.55-2.33-4.25.76-6L33,187.77c3.09-1.78,7.77-2,10.44-.42L63,198.69c2.68,1.55,2.34,4.25-.76,6l-16.53,9.5C42.62,216,37.94,216.19,35.26,214.64Z"/><path class="cls-34" d="M35.35,214.35l-19.14-11.1c-2.62-1.51-2.28-4.16.75-5.9l16.18-9.3c3-1.75,7.61-1.93,10.23-.41l19.14,11.09c2.61,1.52,2.28,4.17-.75,5.91l-16.18,9.3C42.55,215.69,38,215.87,35.35,214.35Z"/><path class="cls-35" d="M35.44,214.06,16.71,203.21c-2.56-1.49-2.24-4.07.73-5.78l15.83-9.11c3-1.7,7.45-1.88,10-.39L62,198.78c2.56,1.49,2.24,4.07-.73,5.78l-15.84,9.11C42.48,215.37,38,215.55,35.44,214.06Z"/><path class="cls-36" d="M35.52,213.78,17.2,203.16c-2.5-1.45-2.18-4,.72-5.65l15.49-8.91c2.9-1.67,7.28-1.84,9.78-.39l18.32,10.62c2.51,1.45,2.19,4-.71,5.65l-15.49,8.91C42.41,215.05,38,215.23,35.52,213.78Z"/><path class="cls-37" d="M35.61,213.49,17.7,203.11c-2.45-1.42-2.14-3.89.7-5.52l15.14-8.71c2.83-1.63,7.12-1.8,9.57-.38L61,198.88c2.45,1.42,2.14,3.89-.69,5.52l-15.14,8.71C42.34,214.74,38.06,214.91,35.61,213.49Z"/><path class="cls-38" d="M35.69,213.2,18.2,203.06c-2.39-1.39-2.09-3.8.68-5.4l14.79-8.5c2.77-1.59,7-1.76,9.35-.37l17.5,10.14c2.39,1.39,2.09,3.8-.68,5.39L45,212.83C42.27,214.42,38.09,214.59,35.69,213.2Z"/><path class="cls-39" d="M35.78,212.92,18.7,203c-2.34-1.35-2-3.71.66-5.27l14.45-8.3c2.7-1.56,6.79-1.72,9.13-.37L60,199c2.34,1.35,2,3.71-.66,5.27l-14.45,8.3C42.21,214.11,38.12,214.27,35.78,212.92Z"/><path class="cls-40" d="M35.87,212.63,19.19,203c-2.28-1.32-2-3.62.65-5.14l14.1-8.11c2.64-1.51,6.63-1.67,8.91-.35L59.52,199c2.28,1.32,2,3.62-.65,5.14l-14.09,8.1C42.14,213.79,38.15,214,35.87,212.63Z"/><path class="cls-41" d="M36,212.34l-16.26-9.42c-2.22-1.29-1.94-3.54.63-5L34.07,190c2.58-1.48,6.47-1.63,8.69-.34L59,199.07c2.22,1.29,1.94,3.54-.64,5L44.64,212C42.07,213.48,38.18,213.63,36,212.34Z"/><path class="cls-42" d="M36,212.06l-15.85-9.19c-2.17-1.26-1.89-3.45.61-4.89l13.41-7.71c2.51-1.44,6.3-1.59,8.47-.34l15.85,9.19c2.17,1.26,1.89,3.45-.62,4.89l-13.4,7.71C42,213.16,38.21,213.31,36,212.06Z"/><path class="cls-43" d="M36.12,211.77l-15.44-9c-2.11-1.23-1.84-3.36.61-4.76l13.05-7.51c2.45-1.41,6.14-1.55,8.25-.33L58,199.17c2.11,1.23,1.85,3.36-.6,4.76l-13,7.51C41.93,212.85,38.24,213,36.12,211.77Z"/><path class="cls-44" d="M36.21,211.48l-15-8.71c-2.05-1.19-1.79-3.27.59-4.64l12.7-7.3c2.38-1.37,6-1.51,8-.32l15,8.71c2.06,1.19,1.8,3.27-.58,4.63l-12.71,7.31C41.86,212.53,38.27,212.67,36.21,211.48Z"/><path class="cls-45" d="M36.3,211.19l-14.62-8.47c-2-1.16-1.75-3.18.57-4.51l12.36-7.11c2.31-1.33,5.81-1.46,7.81-.31L57,199.27c2,1.16,1.74,3.18-.57,4.51l-12.36,7.1C41.79,212.22,38.3,212.35,36.3,211.19Z"/><path class="cls-46" d="M36.38,210.91l-14.2-8.24c-1.95-1.12-1.7-3.09.55-4.38l12-6.91c2.25-1.29,5.65-1.43,7.59-.3l14.21,8.24c1.94,1.12,1.7,3.09-.55,4.38l-12,6.91A8.46,8.46,0,0,1,36.38,210.91Z"/><path class="cls-47" d="M36.47,210.62l-13.8-8c-1.88-1.09-1.64-3,.54-4.25l11.67-6.71c2.18-1.25,5.48-1.39,7.37-.29l13.79,8c1.89,1.09,1.65,3-.53,4.25l-11.67,6.71C41.66,211.58,38.36,211.72,36.47,210.62Z"/><path class="cls-48" d="M36.56,210.33l-13.39-7.75c-1.83-1.07-1.6-2.91.52-4.13L35,191.94a8,8,0,0,1,7.15-.29l13.39,7.76c1.83,1.07,1.59,2.91-.52,4.13l-11.32,6.51A7.91,7.91,0,0,1,36.56,210.33Z"/></g><path class="cls-78" d="M59.19,197.36l-.09-18.89-39.82-.79.09,18.56a1,1,0,0,0,.58,1.2L38,208.12a4.06,4.06,0,0,0,3.68-.11l16.6-9.35C58.94,198.29,59.24,197.81,59.19,197.36Z"/><path class="cls-79" d="M37.92,189,19.86,178.33c-.94-.56-.81-1.5.28-2.12l16.61-9.35a4.07,4.07,0,0,1,3.67-.12l18.06,10.69c.94.55.81,1.5-.28,2.11L41.6,188.9A4.12,4.12,0,0,1,37.92,189Z"/><path class="cls-80" d="M59.2,173.57v-8.13l-13.4-.3L40.51,162a4.07,4.07,0,0,0-3.67.12l-4.8,2.7-12.71-.29v8.15a1.1,1.1,0,0,0,.62.91L38,184.28a4.07,4.07,0,0,0,3.67-.11l16.6-9.36C58.92,174.46,59.23,174,59.2,173.57Z"/><path class="cls-81" d="M38,176.1,20,165.42c-.93-.55-.81-1.5.29-2.12L36.84,154a4.07,4.07,0,0,1,3.67-.12l18.07,10.69c.93.55.81,1.5-.29,2.12L41.69,176A4,4,0,0,1,38,176.1Z"/><path class="cls-82" d="M38.59,171.6l-11.06-6.55c-.58-.34-.5-.92.17-1.3L37.87,158a2.49,2.49,0,0,1,2.25-.07l11.07,6.55c.57.34.5.92-.17,1.29l-10.18,5.74A2.55,2.55,0,0,1,38.59,171.6Z"/><path class="cls-83" d="M27.53,165.07l1.84,1.09,8.5-4.79a2.52,2.52,0,0,1,2.25-.07l9.23,5.46,1.67-.94c.67-.38.74-1,.17-1.3L40.12,158a2.52,2.52,0,0,0-2.25.07L27.7,163.77C27,164.15,27,164.73,27.53,165.07Z"/><path class="cls-55" d="M38,164.77,20,154.08c-.94-.55-.81-1.5.29-2.12l16.6-9.35a4.07,4.07,0,0,1,3.67-.12l18.07,10.69c.93.55.8,1.5-.29,2.12l-16.6,9.35A4.09,4.09,0,0,1,38,164.77Z"/><path class="cls-84" d="M58.29,155.3l-16.6,9.35a4.09,4.09,0,0,1-3.68.12L20,154.08a1.1,1.1,0,0,1-.62-.88v11.43a1.09,1.09,0,0,0,.63.91L38,176.22a4.07,4.07,0,0,0,3.67-.11l16.61-9.36c.62-.35.93-.81.9-1.24v-11.4A1.51,1.51,0,0,1,58.29,155.3Z"/><path class="cls-85" d="M58.29,155.3l-16.6,9.35a4.09,4.09,0,0,1-3.68.12L20,154.08a1.1,1.1,0,0,1-.62-.88v11.43a1.09,1.09,0,0,0,.63.91L38,176.22a4.07,4.07,0,0,0,3.67-.11l16.61-9.36c.62-.35.93-.81.9-1.24v-11.4A1.51,1.51,0,0,1,58.29,155.3Z"/></g><polygon class="cls-86" points="51.66 201.9 57.66 198.45 63.65 201.98 57.66 205.43 51.66 201.9"/><polygon class="cls-87" points="57.66 216.51 57.66 205.43 63.65 201.98 63.65 213.06 57.66 216.51"/><polygon class="cls-88" points="51.66 201.9 51.66 212.98 57.66 216.51 57.66 205.43 51.66 201.9"/><polygon class="cls-89" points="51.66 195.72 57.66 192.27 63.65 195.8 57.66 199.25 51.66 195.72"/><polygon class="cls-90" points="57.66 202.47 57.66 199.25 63.65 195.8 63.65 199.02 57.66 202.47"/><polygon class="cls-91" points="51.66 195.72 51.66 198.94 57.66 202.47 57.66 199.25 51.66 195.72"/></g><g id="_2-4" data-name="2"><g id="_2-5" data-name="2"><g class="cls-6"><path class="cls-7" d="M213,223.74l-30.48-17.67c-4.17-2.42-3.64-6.63,1.18-9.4l25.78-14.83c4.83-2.77,12.12-3.06,16.29-.64l30.49,17.67c4.17,2.42,3.64,6.62-1.19,9.4l-25.78,14.82C224.44,225.87,217.14,226.16,213,223.74Z"/><path class="cls-8" d="M213.06,223.45,183,206c-4.12-2.39-3.59-6.54,1.17-9.28l25.43-14.62c4.76-2.73,11.95-3,16.06-.63l30.07,17.43c4.12,2.38,3.6,6.53-1.17,9.27l-25.42,14.62C224.37,225.55,217.17,225.84,213.06,223.45Z"/><path class="cls-9" d="M213.15,223.16,183.49,206c-4.06-2.35-3.54-6.45,1.15-9.15l25.08-14.42c4.69-2.7,11.79-3,15.85-.63L255.22,199c4.06,2.35,3.54,6.44-1.15,9.14L229,222.53C224.3,225.23,217.2,225.51,213.15,223.16Z"/><path class="cls-10" d="M213.23,222.87l-29.24-17c-4-2.32-3.49-6.36,1.14-9l24.72-14.22c4.63-2.66,11.63-2.94,15.63-.62L254.72,199c4,2.32,3.49,6.36-1.14,9l-24.72,14.22C224.23,224.91,217.23,225.19,213.23,222.87Z"/><path class="cls-11" d="M213.32,222.58l-28.83-16.71c-3.94-2.28-3.44-6.26,1.12-8.89L210,183c4.56-2.62,11.46-2.89,15.4-.61l28.83,16.71c4,2.29,3.44,6.27-1.12,8.89l-24.38,14C224.16,224.6,217.26,224.87,213.32,222.58Z"/><path class="cls-12" d="M213.41,222.29,185,205.82c-3.88-2.25-3.39-6.17,1.11-8.76l24-13.81c4.5-2.59,11.3-2.86,15.19-.61l28.41,16.47c3.89,2.26,3.39,6.18-1.11,8.77l-24,13.81C224.09,224.28,217.29,224.55,213.41,222.29Z"/><path class="cls-13" d="M213.49,222l-28-16.23c-3.83-2.22-3.34-6.08,1.09-8.63l23.68-13.61c4.43-2.55,11.13-2.82,15-.6l28,16.23c3.83,2.22,3.34,6.09-1.09,8.64l-23.68,13.61C224,224,217.32,224.23,213.49,222Z"/><path class="cls-14" d="M213.58,221.72l-27.58-16c-3.78-2.19-3.3-6,1.07-8.51l23.32-13.41c4.37-2.52,11-2.78,14.74-.59l27.59,16c3.77,2.19,3.29,6-1.08,8.51l-23.32,13.41C224,223.64,217.35,223.9,213.58,221.72Z"/><path class="cls-15" d="M213.67,221.43,186.5,205.68c-3.72-2.16-3.25-5.91,1.05-8.38l23-13.21c4.3-2.48,10.8-2.74,14.52-.58l27.17,15.75c3.71,2.15,3.24,5.91-1.06,8.38l-23,13.21C223.88,223.32,217.38,223.58,213.67,221.43Z"/><path class="cls-16" d="M213.75,221.14,187,205.63c-3.66-2.12-3.2-5.82,1-8.25l22.62-13c4.24-2.44,10.64-2.69,14.3-.57l26.76,15.51c3.66,2.12,3.19,5.81-1.05,8.25l-22.62,13C223.82,223,217.41,223.26,213.75,221.14Z"/><path class="cls-17" d="M213.84,220.85,187.5,205.58c-3.6-2.09-3.15-5.73,1-8.13l22.28-12.8c4.17-2.4,10.47-2.65,14.07-.56l26.34,15.27c3.61,2.09,3.15,5.72-1,8.12l-22.27,12.81C223.75,222.69,217.44,222.94,213.84,220.85Z"/><path class="cls-18" d="M213.93,220.56l-25.93-15c-3.55-2.06-3.09-5.64,1-8l21.92-12.6c4.11-2.36,10.31-2.61,13.86-.55l25.92,15c3.55,2.05,3.1,5.63-1,8L227.78,220C223.68,222.37,217.47,222.61,213.93,220.56Z"/><path class="cls-19" d="M214,220.27,188.5,205.48c-3.49-2-3-5.55,1-7.87l21.58-12.4c4-2.32,10.14-2.57,13.63-.54l25.51,14.78c3.49,2,3,5.55-1,7.87l-21.57,12.41C223.61,222.05,217.5,222.29,214,220.27Z"/><path class="cls-20" d="M214.1,220,189,205.43c-3.43-2-3-5.45,1-7.74l21.22-12.2c4-2.29,10-2.53,13.41-.53l25.1,14.54c3.43,2,3,5.46-1,7.74l-21.22,12.21C223.54,221.73,217.53,222,214.1,220Z"/><path class="cls-21" d="M214.19,219.69,189.5,205.38c-3.37-1.95-2.94-5.36,1-7.61l20.88-12c3.9-2.25,9.81-2.48,13.19-.53l24.68,14.31c3.38,2,2.95,5.37-1,7.62l-20.87,12C223.47,221.41,217.56,221.65,214.19,219.69Z"/><path class="cls-22" d="M214.27,219.4,190,205.33c-3.32-1.92-2.9-5.27.94-7.48l20.52-11.8c3.84-2.21,9.65-2.44,13-.52l24.27,14.07c3.32,1.93,2.9,5.28-1,7.49l-20.52,11.8C223.4,221.1,217.59,221.33,214.27,219.4Z"/><path class="cls-23" d="M214.36,219.11l-23.85-13.82c-3.27-1.9-2.85-5.19.92-7.36l20.18-11.6c3.77-2.17,9.48-2.4,12.74-.51l23.86,13.83c3.26,1.89,2.85,5.19-.93,7.36l-20.17,11.6C223.33,220.78,217.63,221,214.36,219.11Z"/><path class="cls-24" d="M214.45,218.82,191,205.24c-3.21-1.86-2.8-5.1.91-7.23l19.82-11.4c3.71-2.13,9.32-2.36,12.53-.5l23.44,13.59c3.2,1.86,2.79,5.1-.92,7.23L227,218.33C223.26,220.46,217.66,220.68,214.45,218.82Z"/><path class="cls-25" d="M214.53,218.53l-23-13.34c-3.15-1.83-2.75-5,.89-7.1l19.47-11.2c3.65-2.1,9.16-2.31,12.31-.49l23,13.35c3.15,1.82,2.75,5-.89,7.1l-19.47,11.2C223.19,220.14,217.69,220.36,214.53,218.53Z"/><path class="cls-26" d="M214.62,218.25,192,205.14c-3.09-1.79-2.7-4.92.88-7l19.12-11c3.58-2.06,9-2.27,12.08-.48L246.7,199.8c3.1,1.79,2.7,4.91-.88,7l-19.12,11C223.12,219.82,217.72,220,214.62,218.25Z"/><path class="cls-27" d="M214.71,218l-22.2-12.87c-3-1.76-2.65-4.83.86-6.85l18.77-10.79c3.52-2,8.83-2.23,11.87-.47l22.19,12.87c3,1.76,2.65,4.82-.86,6.84l-18.77,10.8C223.06,219.51,217.75,219.72,214.71,218Z"/><path class="cls-28" d="M214.8,217.67,193,205c-3-1.73-2.6-4.73.85-6.72l18.42-10.59c3.45-2,8.66-2.19,11.64-.46L245.7,199.9c3,1.72,2.6,4.73-.85,6.71l-18.42,10.6C223,219.19,217.78,219.39,214.8,217.67Z"/><path class="cls-29" d="M214.88,217.38,193.51,205c-2.92-1.69-2.55-4.64.84-6.59L212.41,188c3.39-1.94,8.5-2.15,11.42-.45l21.37,12.38c2.92,1.7,2.55,4.65-.83,6.59L226.3,216.92C222.92,218.87,217.81,219.07,214.88,217.38Z"/><path class="cls-30" d="M215,217.09,194,204.94c-2.87-1.66-2.51-4.55.81-6.46l17.72-10.19c3.32-1.91,8.33-2.1,11.19-.44l21,12.14c2.87,1.67,2.5,4.56-.82,6.47l-17.71,10.18C222.85,218.55,217.84,218.75,215,217.09Z"/><path class="cls-31" d="M215.06,216.8l-20.54-11.91c-2.81-1.63-2.46-4.46.8-6.33l17.36-10c3.25-1.87,8.17-2.06,11-.43L244.2,200c2.81,1.63,2.45,4.47-.8,6.34l-17.37,10C222.78,218.23,217.87,218.43,215.06,216.8Z"/><path class="cls-32" d="M215.14,216.51,195,204.84c-2.76-1.59-2.41-4.37.78-6.2l17-9.79c3.18-1.83,8-2,10.75-.42l20.13,11.66c2.75,1.6,2.4,4.38-.79,6.21l-17,9.78C222.71,217.92,217.9,218.11,215.14,216.51Z"/><path class="cls-33" d="M215.23,216.22,195.52,204.8c-2.7-1.57-2.35-4.29.77-6.08L213,189.13c3.12-1.79,7.84-2,10.53-.42l19.72,11.43c2.69,1.56,2.35,4.29-.77,6.08l-16.67,9.58C222.64,217.6,217.93,217.78,215.23,216.22Z"/><path class="cls-34" d="M215.32,215.93,196,204.75c-2.64-1.53-2.3-4.2.75-5.95l16.32-9.39c3-1.75,7.67-1.94,10.31-.41l19.29,11.19c2.64,1.53,2.31,4.19-.75,5.95l-16.31,9.38C222.57,217.28,218,217.46,215.32,215.93Z"/><path class="cls-35" d="M215.4,215.64,196.52,204.7c-2.58-1.5-2.25-4.11.74-5.83l16-9.18c3-1.72,7.51-1.89,10.09-.4l18.88,11c2.59,1.5,2.26,4.1-.73,5.82l-16,9.18C222.5,217,218,217.14,215.4,215.64Z"/><path class="cls-36" d="M215.49,215.35,197,204.65c-2.52-1.47-2.2-4,.72-5.7l15.62-9c2.92-1.68,7.34-1.85,9.86-.39l18.47,10.71c2.53,1.46,2.21,4-.72,5.69l-15.61,9C222.43,216.64,218,216.82,215.49,215.35Z"/><path class="cls-37" d="M215.58,215.06,197.52,204.6c-2.47-1.43-2.15-3.92.71-5.57l15.26-8.78c2.86-1.64,7.18-1.81,9.65-.38l18.05,10.47c2.47,1.43,2.16,3.92-.7,5.56l-15.27,8.78C222.37,216.33,218.05,216.5,215.58,215.06Z"/><path class="cls-38" d="M215.66,214.78,198,204.55c-2.41-1.4-2.1-3.83.69-5.44l14.92-8.58c2.79-1.6,7-1.77,9.42-.37l17.64,10.22c2.41,1.4,2.11,3.84-.69,5.44l-14.91,8.58C222.3,216,218.08,216.17,215.66,214.78Z"/><path class="cls-39" d="M215.75,214.49l-17.22-10c-2.36-1.36-2.06-3.74.67-5.31l14.56-8.38c2.73-1.56,6.85-1.73,9.2-.36l17.23,10c2.35,1.37,2.05,3.75-.67,5.32L225,214.12C222.23,215.69,218.11,215.85,215.75,214.49Z"/><path class="cls-40" d="M215.84,214.2,199,204.45c-2.3-1.33-2-3.65.65-5.18l14.21-8.17c2.67-1.53,6.69-1.69,9-.36l16.81,9.74c2.3,1.34,2,3.66-.66,5.19l-14.21,8.17C222.16,215.37,218.14,215.53,215.84,214.2Z"/><path class="cls-41" d="M215.92,213.91l-16.39-9.51c-2.25-1.3-2-3.56.64-5.05l13.86-8c2.59-1.5,6.52-1.65,8.76-.35l16.4,9.5c2.24,1.3,1.95,3.57-.64,5.06l-13.87,8C222.09,215.05,218.17,215.21,215.92,213.91Z"/><path class="cls-42" d="M216,213.62l-16-9.26c-2.19-1.27-1.91-3.48.62-4.93l13.51-7.77c2.53-1.46,6.36-1.61,8.54-.34l16,9.26c2.19,1.27,1.91,3.47-.62,4.93l-13.51,7.77C222,214.73,218.2,214.89,216,213.62Z"/><path class="cls-43" d="M216.1,213.33l-15.57-9c-2.13-1.24-1.86-3.39.61-4.8l13.16-7.57c2.46-1.42,6.19-1.57,8.32-.33l15.56,9c2.13,1.23,1.86,3.38-.6,4.8L224.42,213C222,214.42,218.23,214.56,216.1,213.33Z"/><path class="cls-44" d="M216.18,213,201,204.26c-2.07-1.2-1.81-3.3.59-4.68l12.81-7.36c2.4-1.38,6-1.53,8.1-.32l15.15,8.78c2.08,1.2,1.81,3.29-.59,4.67l-12.81,7.37C221.88,214.1,218.26,214.24,216.18,213Z"/><path class="cls-45" d="M216.27,212.75l-14.74-8.54c-2-1.17-1.76-3.21.58-4.55l12.46-7.16c2.33-1.34,5.86-1.48,7.87-.32l14.74,8.55c2,1.17,1.76,3.2-.57,4.54l-12.46,7.17C221.81,213.78,218.29,213.92,216.27,212.75Z"/><path class="cls-46" d="M216.36,212.46,202,204.16c-2-1.14-1.71-3.11.56-4.42l12.11-7c2.27-1.31,5.7-1.44,7.66-.31l14.32,8.31c2,1.13,1.71,3.11-.56,4.41l-12.11,7C221.74,213.46,218.32,213.6,216.36,212.46Z"/><path class="cls-47" d="M216.44,212.17l-13.9-8.06c-1.91-1.1-1.67-3,.54-4.29l11.76-6.76a8.25,8.25,0,0,1,7.43-.3l13.91,8.07c1.9,1.1,1.66,3-.54,4.29l-11.76,6.76C221.67,213.14,218.35,213.28,216.44,212.17Z"/><path class="cls-48" d="M216.53,211.88,203,204.06c-1.85-1.07-1.61-2.93.52-4.16L215,193.34a8,8,0,0,1,7.21-.29l13.5,7.82c1.84,1.07,1.61,2.94-.53,4.17l-11.41,6.56A8,8,0,0,1,216.53,211.88Z"/></g><path class="cls-92" d="M239.35,198.8l-.09-19-40.15-.8.09,18.71a1,1,0,0,0,.59,1.21L218,209.66a4.14,4.14,0,0,0,3.7-.12l16.74-9.43C239.1,199.74,239.41,199.25,239.35,198.8Z"/><path class="cls-93" d="M217.91,190.39,199.7,179.62c-.95-.56-.82-1.52.28-2.14l16.74-9.43a4.12,4.12,0,0,1,3.71-.11l18.21,10.77c.94.55.81,1.51-.29,2.13l-16.74,9.43A4.14,4.14,0,0,1,217.91,190.39Z"/><path class="cls-94" d="M239.36,174.82v-8.19l-13.51-.31-5.33-3.15a4.1,4.1,0,0,0-3.7.11L212,166l-12.82-.29v8.21a1.13,1.13,0,0,0,.63.92L218,185.62a4.07,4.07,0,0,0,3.7-.12l16.74-9.43A1.45,1.45,0,0,0,239.36,174.82Z"/><path class="cls-95" d="M218,177.37,199.79,166.6c-.94-.56-.81-1.51.29-2.13L216.82,155a4.11,4.11,0,0,1,3.7-.12l18.21,10.77c1,.56.82,1.52-.28,2.14l-16.74,9.43A4.1,4.1,0,0,1,218,177.37Z"/><path class="cls-96" d="M218.59,172.83l-11.16-6.6c-.58-.34-.5-.93.17-1.31l10.26-5.78a2.53,2.53,0,0,1,2.27-.07l11.16,6.6c.57.34.49.93-.18,1.31l-10.25,5.78A2.53,2.53,0,0,1,218.59,172.83Z"/><path class="cls-97" d="M207.43,166.25l1.86,1.1,8.57-4.83a2.53,2.53,0,0,1,2.27-.07l9.3,5.5,1.68-.95c.67-.38.75-1,.18-1.31l-11.16-6.6a2.53,2.53,0,0,0-2.27.07l-10.26,5.78C206.93,165.32,206.85,165.91,207.43,166.25Z"/><path class="cls-55" d="M218,165.94l-18.21-10.77c-.94-.56-.82-1.51.29-2.14l16.73-9.43a4.12,4.12,0,0,1,3.71-.11l18.21,10.77c.94.56.82,1.51-.29,2.14l-16.73,9.43A4.12,4.12,0,0,1,218,165.94Z"/><path class="cls-98" d="M238.44,156.4l-16.73,9.43a4.12,4.12,0,0,1-3.71.11l-18.21-10.77a1.12,1.12,0,0,1-.63-.88V165.8a1.09,1.09,0,0,0,.63.92L218,177.49a4.1,4.1,0,0,0,3.7-.11L238.45,168a1.5,1.5,0,0,0,.92-1.26v-11.5A1.5,1.5,0,0,1,238.44,156.4Z"/><path class="cls-99" d="M238.44,156.4l-16.73,9.43a4.12,4.12,0,0,1-3.71.11l-18.21-10.77a1.12,1.12,0,0,1-.63-.88V165.8a1.09,1.09,0,0,0,.63.92L218,177.49a4.1,4.1,0,0,0,3.7-.11L238.45,168a1.5,1.5,0,0,0,.92-1.26v-11.5A1.5,1.5,0,0,1,238.44,156.4Z"/></g><polygon class="cls-100" points="193.35 199.96 199.07 196.67 204.78 200.03 199.07 203.32 193.35 199.96"/><polygon class="cls-101" points="199.07 218.29 199.07 203.32 204.78 200.03 204.78 215 199.07 218.29"/><polygon class="cls-102" points="193.35 199.96 193.35 214.92 199.07 218.29 199.07 203.32 193.35 199.96"/><polygon class="cls-103" points="193.35 194.06 199.07 190.77 204.78 194.14 199.07 197.43 193.35 194.06"/><polygon class="cls-104" points="199.07 200.51 199.07 197.43 204.78 194.14 204.78 197.22 199.07 200.51"/><polygon class="cls-105" points="193.35 194.06 193.35 197.14 199.07 200.51 199.07 197.43 193.35 194.06"/></g><g id="_1" data-name="1"><g id="_5-2" data-name="5"><g class="cls-6"><path class="cls-7" d="M122.24,173,78.91,147.9c-5.93-3.44-5.17-9.42,1.69-13.37l36.63-21.06c6.86-4,17.23-4.36,23.16-.92l43.33,25.11c5.92,3.44,5.17,9.42-1.69,13.37L145.39,172.1C138.53,176,128.17,176.45,122.24,173Z"/><path class="cls-106" d="M122.36,172.6,79.62,147.83c-5.84-3.39-5.1-9.29,1.67-13.18l36.14-20.78c6.76-3.9,17-4.3,22.83-.91L183,137.73c5.85,3.39,5.11,9.3-1.66,13.19L145.2,171.7C138.44,175.59,128.21,176,122.36,172.6Z"/><path class="cls-107" d="M122.49,172.19,80.34,147.76c-5.77-3.34-5-9.16,1.64-13l35.64-20.5c6.67-3.83,16.75-4.23,22.52-.89l42.15,24.43c5.77,3.35,5,9.17-1.64,13L145,171.3C138.34,175.14,128.25,175.54,122.49,172.19Z"/><path class="cls-108" d="M122.61,171.78,81.05,147.69c-5.69-3.3-5-9,1.61-12.82l35.15-20.21c6.58-3.78,16.52-4.18,22.21-.88l41.56,24.09c5.69,3.3,5,9-1.62,12.82L144.82,170.9C138.24,174.68,128.3,175.08,122.61,171.78Z"/><path class="cls-109" d="M122.73,171.37l-41-23.75c-5.61-3.25-4.89-8.91,1.59-12.64L118,115.06c6.49-3.73,16.29-4.12,21.89-.87l41,23.75c5.6,3.25,4.89,8.91-1.6,12.64L144.63,170.5C138.14,174.23,128.34,174.62,122.73,171.37Z"/><path class="cls-110" d="M122.86,171,82.47,147.55c-5.52-3.2-4.82-8.78,1.57-12.45l34.15-19.64c6.39-3.68,16.06-4.06,21.58-.86L180.16,138c5.52,3.2,4.82,8.78-1.58,12.46L144.44,170.1C138,173.78,128.38,174.16,122.86,171Z"/><path class="cls-111" d="M123,170.55,83.19,147.48c-5.45-3.16-4.76-8.65,1.54-12.27l33.65-19.35c6.3-3.62,15.82-4,21.27-.85l39.79,23.07c5.45,3.16,4.75,8.65-1.55,12.28L144.25,169.7C138,173.33,128.42,173.71,123,170.55Z"/><path class="cls-112" d="M123.1,170.14,83.9,147.41c-5.37-3.11-4.68-8.52,1.52-12.09l33.15-19.06c6.21-3.57,15.59-4,21-.84l39.21,22.73c5.36,3.11,4.68,8.52-1.52,12.09l-33.16,19.07C137.85,172.88,128.47,173.25,123.1,170.14Z"/><path class="cls-113" d="M123.23,169.73,84.61,147.34c-5.28-3.06-4.61-8.39,1.5-11.91l32.66-18.78c6.11-3.51,15.35-3.88,20.63-.81L178,138.22c5.28,3.06,4.61,8.4-1.5,11.91l-32.66,18.78C137.75,172.42,128.51,172.79,123.23,169.73Z"/><path class="cls-114" d="M123.35,169.32l-38-22c-5.2-3-4.54-8.26,1.48-11.73L119,117.05c6-3.46,15.11-3.82,20.32-.8l38,22c5.2,3,4.54,8.27-1.48,11.73l-32.16,18.49C137.65,172,128.55,172.33,123.35,169.32Z"/><path class="cls-115" d="M123.47,168.91,86,147.2c-5.12-3-4.47-8.14,1.46-11.54l31.66-18.21c5.92-3.41,14.88-3.76,20-.79l37.44,21.7c5.13,3,4.47,8.14-1.45,11.55l-31.66,18.2C137.55,171.52,128.6,171.87,123.47,168.91Z"/><path class="cls-116" d="M123.6,168.49,86.75,147.13c-5-2.92-4.4-8,1.43-11.36l31.16-17.92c5.83-3.35,14.65-3.7,19.69-.78l36.85,21.36c5,2.92,4.4,8-1.43,11.36l-31.16,17.92C137.45,171.07,128.64,171.42,123.6,168.49Z"/><path class="cls-117" d="M123.72,168.08l-36.26-21c-5-2.87-4.33-7.88,1.41-11.18l30.66-17.63c5.74-3.3,14.42-3.65,19.38-.77l36.26,21c5,2.87,4.33,7.88-1.41,11.18L143.1,167.31C137.36,170.61,128.68,171,123.72,168.08Z"/><path class="cls-118" d="M123.84,167.67,88.17,147c-4.88-2.82-4.26-7.75,1.39-11l30.16-17.34c5.65-3.25,14.18-3.59,19.06-.76l35.68,20.68c4.88,2.83,4.26,7.75-1.39,11l-30.16,17.35C137.26,170.16,128.72,170.5,123.84,167.67Z"/><path class="cls-119" d="M124,167.26,88.88,146.92c-4.8-2.78-4.19-7.62,1.37-10.82l29.66-17c5.56-3.2,14-3.53,18.75-.75l35.08,20.34c4.8,2.78,4.19,7.62-1.36,10.82l-29.67,17.06C137.16,169.71,128.77,170,124,167.26Z"/><path class="cls-120" d="M124.09,166.85l-34.49-20c-4.72-2.74-4.12-7.5,1.34-10.64l29.17-16.78c5.46-3.14,13.71-3.46,18.43-.73l34.49,20c4.72,2.73,4.12,7.5-1.34,10.64l-29.17,16.77C137.06,169.26,128.81,169.59,124.09,166.85Z"/><path class="cls-121" d="M124.21,166.44l-33.9-19.65c-4.64-2.69-4-7.38,1.32-10.46l28.67-16.49c5.36-3.08,13.48-3.41,18.11-.72l33.91,19.66c4.64,2.69,4.05,7.37-1.32,10.45l-28.67,16.49C137,168.81,128.85,169.13,124.21,166.44Z"/><path class="cls-122" d="M124.34,166,91,146.72c-4.56-2.65-4-7.25,1.3-10.28l28.17-16.2c5.27-3,13.24-3.35,17.8-.71l33.32,19.32c4.56,2.64,4,7.24-1.3,10.27l-28.17,16.2C136.87,168.35,128.9,168.67,124.34,166Z"/><path class="cls-123" d="M124.46,165.62l-32.73-19c-4.47-2.6-3.9-7.12,1.28-10.1l27.67-15.91c5.18-3,13-3.29,17.49-.69l32.72,19c4.48,2.59,3.91,7.11-1.27,10.09L142,164.92C136.77,167.9,128.94,168.21,124.46,165.62Z"/><path class="cls-124" d="M124.58,165.21,92.45,146.58c-4.4-2.55-3.84-7,1.25-9.92L120.87,121c5.09-2.93,12.78-3.23,17.17-.68L170.18,139c4.4,2.54,3.84,7-1.25,9.91l-27.17,15.62C136.67,167.45,129,167.76,124.58,165.21Z"/><path class="cls-125" d="M124.71,164.8,93.16,146.51c-4.32-2.5-3.77-6.86,1.23-9.73l26.67-15.34c5-2.88,12.54-3.18,16.86-.67l31.55,18.29c4.32,2.5,3.77,6.85-1.23,9.73l-26.67,15.34C136.57,167,129,167.3,124.71,164.8Z"/><path class="cls-126" d="M124.83,164.38l-31-17.94c-4.24-2.46-3.7-6.73,1.2-9.55l26.18-15.06c4.9-2.81,12.31-3.11,16.55-.65l31,17.94c4.23,2.46,3.69,6.74-1.21,9.55l-26.18,15.06C136.47,166.55,129.07,166.84,124.83,164.38Z"/><path class="cls-127" d="M125,164l-30.37-17.6C90.43,144,91,139.77,95.76,137l25.68-14.77c4.81-2.76,12.08-3,16.23-.64l30.38,17.6c4.15,2.41,3.62,6.61-1.19,9.37l-25.68,14.77C136.37,166.09,129.11,166.38,125,164Z"/><path class="cls-128" d="M125.08,163.56,95.29,146.3c-4.07-2.36-3.55-6.48,1.16-9.19l25.19-14.48c4.71-2.71,11.84-3,15.91-.63l29.78,17.26c4.08,2.37,3.56,6.48-1.16,9.19L141,162.93C136.28,165.64,129.15,165.92,125.08,163.56Z"/><path class="cls-129" d="M125.2,163.15,96,146.23c-4-2.32-3.49-6.35,1.13-9L121.83,123c4.62-2.66,11.6-2.93,15.6-.62l29.19,16.92c4,2.32,3.49,6.35-1.14,9L140.8,162.53C136.18,165.19,129.19,165.47,125.2,163.15Z"/><path class="cls-130" d="M125.32,162.74l-28.6-16.58c-3.91-2.27-3.42-6.22,1.11-8.82L122,123.43c4.53-2.6,11.37-2.88,15.28-.61l28.61,16.58c3.91,2.27,3.41,6.22-1.11,8.83l-24.19,13.9C136.08,164.74,129.24,165,125.32,162.74Z"/><path class="cls-131" d="M125.45,162.33l-28-16.24c-3.83-2.22-3.34-6.09,1.09-8.64l23.69-13.62c4.44-2.55,11.14-2.82,15-.6l28,16.24c3.83,2.22,3.34,6.09-1.09,8.64l-23.69,13.63C136,164.29,129.28,164.55,125.45,162.33Z"/><path class="cls-132" d="M125.57,161.92,98.14,146c-3.75-2.17-3.27-6,1.07-8.46l23.19-13.33c4.34-2.5,10.9-2.76,14.66-.59l27.42,15.9c3.76,2.18,3.28,6-1.06,8.46l-23.19,13.34C135.88,163.83,129.32,164.09,125.57,161.92Z"/><path class="cls-133" d="M125.69,161.51,98.86,146c-3.68-2.13-3.21-5.83,1-8.28l22.69-13c4.25-2.44,10.67-2.69,14.34-.56l26.84,15.55c3.67,2.13,3.21,5.84-1,8.28L140,160.94C135.79,163.38,129.37,163.64,125.69,161.51Z"/><path class="cls-134" d="M125.82,161.1,99.57,145.88c-3.59-2.08-3.14-5.71,1-8.09L122.78,125c4.16-2.39,10.44-2.64,14-.55l26.25,15.21c3.59,2.08,3.13,5.71-1,8.1l-22.2,12.76C135.69,162.93,129.41,163.18,125.82,161.1Z"/><path class="cls-135" d="M125.94,160.69l-25.66-14.88c-3.51-2-3.06-5.58,1-7.91L123,125.42c4.06-2.33,10.2-2.58,13.71-.54l25.66,14.87c3.51,2,3.06,5.58-1,7.91l-21.7,12.48C135.59,162.48,129.45,162.72,125.94,160.69Z"/><path class="cls-136" d="M126.06,160.27,101,145.74c-3.43-2-3-5.45,1-7.73l21.2-12.19c4-2.28,10-2.52,13.39-.53l25.07,14.53c3.43,2,3,5.45-1,7.73l-21.2,12.19C135.49,162,129.49,162.26,126.06,160.27Z"/><path class="cls-137" d="M126.19,159.86l-24.48-14.19c-3.35-1.94-2.93-5.32,1-7.55l20.7-11.9c3.87-2.23,9.73-2.46,13.08-.52l24.48,14.19c3.35,1.94,2.92,5.32-.95,7.55l-20.7,11.9C135.39,161.57,129.54,161.81,126.19,159.86Z"/><path class="cls-138" d="M126.31,159.45,102.42,145.6c-3.27-1.89-2.85-5.19.93-7.37l20.2-11.61c3.78-2.18,9.5-2.4,12.77-.51L160.21,140c3.27,1.89,2.85,5.19-.93,7.37L139.08,159C135.3,161.12,129.58,161.35,126.31,159.45Z"/><path class="cls-139" d="M126.43,159l-23.3-13.51c-3.19-1.84-2.78-5.06.91-7.18L123.74,127c3.69-2.13,9.27-2.35,12.45-.5L159.5,140c3.19,1.85,2.78,5.07-.91,7.19l-19.7,11.33C135.2,160.67,129.62,160.89,126.43,159Z"/><path class="cls-140" d="M126.56,158.63l-22.72-13.17c-3.1-1.8-2.71-4.93.89-7l19.2-11.05c3.6-2.06,9-2.28,12.14-.48l22.71,13.17c3.11,1.8,2.72,4.94-.88,7l-19.21,11.05C135.1,160.22,129.66,160.43,126.56,158.63Z"/><path class="cls-141" d="M126.68,158.22l-22.12-12.83c-3-1.75-2.65-4.81.86-6.82l18.7-10.76c3.51-2,8.8-2.22,11.83-.47l22.12,12.83c3,1.75,2.64,4.81-.86,6.82L138.5,157.75C135,159.76,129.71,160,126.68,158.22Z"/><path class="cls-142" d="M126.8,157.81l-21.53-12.49c-3-1.7-2.57-4.68.84-6.64l18.21-10.47c3.4-2,8.56-2.16,11.5-.46l21.54,12.49c2.95,1.71,2.57,4.68-.84,6.64l-18.21,10.47C134.9,159.31,129.75,159.52,126.8,157.81Z"/><path class="cls-143" d="M126.93,157.4l-21-12.14c-2.87-1.67-2.5-4.56.81-6.47l17.72-10.18c3.31-1.91,8.32-2.11,11.19-.45l21,12.15c2.86,1.66,2.5,4.55-.82,6.46L138.12,157C134.8,158.86,129.79,159.06,126.93,157.4Z"/><path class="cls-144" d="M127.05,157l-20.36-11.8c-2.78-1.62-2.43-4.43.79-6.28L124.7,129c3.22-1.86,8.09-2,10.88-.43l20.36,11.8c2.78,1.61,2.43,4.42-.8,6.28l-17.21,9.89C134.71,158.41,129.84,158.6,127.05,157Z"/><path class="cls-145" d="M127.17,156.58,107.4,145.12c-2.7-1.57-2.36-4.3.77-6.1l16.72-9.61c3.13-1.8,7.86-2,10.56-.42l19.77,11.46c2.71,1.56,2.36,4.29-.77,6.09l-16.71,9.62C134.61,158,129.88,158.14,127.17,156.58Z"/><path class="cls-48" d="M127.3,156.16l-19.18-11.11c-2.63-1.52-2.29-4.17.74-5.92l16.22-9.33c3-1.74,7.63-1.92,10.25-.4l19.18,11.12c2.62,1.52,2.29,4.17-.75,5.91l-16.21,9.33C134.51,157.5,129.92,157.69,127.3,156.16Z"/></g><path class="cls-146" d="M162.76,136.91V73.8L99.64,72.56v62.58a1.61,1.61,0,0,0,.91,1.91L129.19,154a6.44,6.44,0,0,0,5.82-.18L161.33,139C162.36,138.39,162.84,137.63,162.76,136.91Z"/><path class="cls-147" d="M129.19,90.52,100.55,73.58c-1.48-.87-1.28-2.38.46-3.35L127.32,55.4a6.44,6.44,0,0,1,5.82-.18l28.64,16.93c1.48.88,1.28,2.38-.46,3.36L135,90.34A6.51,6.51,0,0,1,129.19,90.52Z"/><path class="cls-148" d="M130.1,83.37,112.56,73c-.91-.54-.78-1.46.28-2.06L129,61.86a3.93,3.93,0,0,1,3.56-.11l17.55,10.37c.91.54.78,1.46-.28,2.06l-16.12,9.08A4,4,0,0,1,130.1,83.37Z"/><path class="cls-149" d="M124.24,130.6a3.8,3.8,0,0,0-1.57-3.09l-21.31-12.59a1.09,1.09,0,0,0-1.06-.1h0l-.13.08-5.29,3.15,23.24,17.09,5.36-3.2a.79.79,0,0,0,.33-.19h0A1.56,1.56,0,0,0,124.24,130.6Z"/><path class="cls-150" d="M117.15,135l-21.3-12.58a3.81,3.81,0,0,1-1.58-3.09h0c0-1.18.78-1.7,1.67-1.17l21.31,12.58a3.8,3.8,0,0,1,1.57,3.09h0C118.8,135,118.05,135.52,117.15,135Z"/><path class="cls-151" d="M124.21,121.2a3.8,3.8,0,0,0-1.57-3.09l-21.31-12.58a1.06,1.06,0,0,0-1.06-.1h0l-.13.07-5.29,3.16,23.24,17.09,5.36-3.2a1.09,1.09,0,0,0,.33-.19h0A1.57,1.57,0,0,0,124.21,121.2Z"/><path class="cls-152" d="M117.12,125.6,95.82,113a3.82,3.82,0,0,1-1.58-3.09h0c0-1.18.78-1.71,1.67-1.18l21.31,12.59a3.8,3.8,0,0,1,1.57,3.09h0C118.77,125.6,118,126.13,117.12,125.6Z"/><path class="cls-153" d="M124.27,111.83a3.78,3.78,0,0,0-1.57-3.09L101.39,96.16a1.06,1.06,0,0,0-1.06-.1h0l-.13.08-5.29,3.15,23.24,17.09,5.36-3.2a.92.92,0,0,0,.33-.19h0A1.53,1.53,0,0,0,124.27,111.83Z"/><path class="cls-154" d="M117.18,116.23l-21.3-12.58a3.81,3.81,0,0,1-1.58-3.09h0c0-1.18.78-1.7,1.67-1.17L117.28,112a3.8,3.8,0,0,1,1.57,3.09h0C118.83,116.23,118.08,116.76,117.18,116.23Z"/><path class="cls-155" d="M124.27,102.46a3.75,3.75,0,0,0-1.57-3.08L101.39,86.79a1.06,1.06,0,0,0-1.06-.1h0l-.13.08-5.29,3.15L118.15,107l5.36-3.2a.79.79,0,0,0,.33-.19h0A1.53,1.53,0,0,0,124.27,102.46Z"/><path class="cls-156" d="M117.18,106.86,95.88,94.28a3.81,3.81,0,0,1-1.58-3.09h0c0-1.18.78-1.7,1.67-1.17l21.31,12.58a3.8,3.8,0,0,1,1.57,3.09h0C118.83,106.87,118.08,107.39,117.18,106.86Z"/><path class="cls-157" d="M112.56,73l2.92,1.73L129,67.17a3.93,3.93,0,0,1,3.56-.11l14.62,8.64,2.65-1.49c1.06-.6,1.19-1.52.28-2.06L132.52,61.78a3.93,3.93,0,0,0-3.56.11L112.84,71C111.78,71.57,111.65,72.49,112.56,73Z"/><polygon class="cls-158" points="158.24 91.04 138.27 102.57 138.27 99.46 158.24 87.94 158.24 91.04"/><polygon class="cls-159" points="158.24 97 152.12 100.54 152.12 97.44 158.24 93.9 158.24 97"/><polygon class="cls-160" points="149.79 101.88 138.27 108.53 138.27 105.43 149.79 98.78 149.79 101.88"/><polygon class="cls-161" points="158.24 102.74 144.03 110.97 144.03 107.86 158.24 99.64 158.24 102.74"/><polygon class="cls-162" points="141.7 112.31 138.27 114.27 138.27 111.17 141.7 109.2 141.7 112.31"/><polygon class="cls-163" points="158.24 108.74 138.27 120.27 138.27 117.16 158.24 105.63 158.24 108.74"/><polygon class="cls-164" points="158.24 114.72 152.12 118.26 152.12 115.16 158.24 111.62 158.24 114.72"/><polygon class="cls-165" points="149.79 119.6 138.27 126.25 138.27 123.15 149.79 116.5 149.79 119.6"/><polygon class="cls-166" points="158.24 120.46 144.03 128.68 144.03 125.58 158.24 117.36 158.24 120.46"/><polygon class="cls-167" points="141.7 130.03 138.27 131.99 138.27 128.88 141.7 126.92 141.7 130.03"/><polygon class="cls-168" points="158.24 126.14 138.27 137.67 138.27 134.57 158.24 123.04 158.24 126.14"/></g><polygon class="cls-169" points="121.62 157.89 129.41 153.41 137.21 158 129.41 162.48 121.62 157.89"/><polygon class="cls-170" points="129.41 182.91 129.41 162.48 137.21 158 137.21 178.44 129.41 182.91"/><polygon class="cls-171" points="121.62 157.89 121.62 178.33 129.41 182.91 129.41 162.48 121.62 157.89"/><polygon class="cls-172" points="121.62 146.54 129.41 142.06 137.21 146.65 129.41 151.13 121.62 146.54"/><polygon class="cls-173" points="129.41 158.26 129.41 151.13 137.21 146.65 137.21 153.78 129.41 158.26"/><polygon class="cls-174" points="121.62 146.54 121.62 153.67 129.41 158.26 129.41 151.13 121.62 146.54"/><polygon class="cls-175" points="121.62 138.51 129.41 134.03 137.21 138.62 129.41 143.1 121.62 138.51"/><polygon class="cls-176" points="129.41 147.29 129.41 143.1 137.21 138.62 137.21 142.81 129.41 147.29"/><polygon class="cls-177" points="121.62 138.51 121.62 142.71 129.41 147.29 129.41 143.1 121.62 138.51"/></g></g></g></g></svg>