<svg xmlns="http://www.w3.org/2000/svg" xmlns:xlink="http://www.w3.org/1999/xlink" viewBox="0 0 70.64 101.71"><defs><style>.cls-1{isolation:isolate;}.cls-2{opacity:0.3;}.cls-3{mix-blend-mode:overlay;}.cls-4{fill:url(#linear-gradient);}.cls-5{fill:url(#linear-gradient-2);}.cls-12,.cls-13,.cls-14,.cls-15,.cls-18,.cls-19,.cls-20,.cls-21,.cls-24,.cls-25,.cls-26,.cls-27,.cls-31,.cls-32,.cls-33,.cls-34,.cls-37,.cls-38,.cls-39,.cls-40,.cls-6,.cls-7,.cls-8,.cls-9{opacity:0.7;}.cls-6{fill:url(#linear-gradient-3);}.cls-7{fill:url(#linear-gradient-4);}.cls-8{fill:url(#linear-gradient-5);}.cls-9{fill:url(#linear-gradient-6);}.cls-10{fill:url(#linear-gradient-7);}.cls-11{fill:url(#linear-gradient-8);}.cls-12{fill:url(#linear-gradient-9);}.cls-13{fill:url(#linear-gradient-10);}.cls-14{fill:url(#linear-gradient-11);}.cls-15{fill:url(#linear-gradient-12);}.cls-16{fill:url(#linear-gradient-13);}.cls-17{fill:url(#linear-gradient-14);}.cls-18{fill:url(#linear-gradient-15);}.cls-19{fill:url(#linear-gradient-16);}.cls-20{fill:url(#linear-gradient-17);}.cls-21{fill:url(#linear-gradient-18);}.cls-22{fill:url(#linear-gradient-19);}.cls-23{fill:url(#linear-gradient-20);}.cls-24{fill:url(#linear-gradient-21);}.cls-25{fill:url(#linear-gradient-22);}.cls-26{fill:url(#linear-gradient-23);}.cls-27{fill:url(#linear-gradient-24);}.cls-28{opacity:0.2;}.cls-29{fill:url(#linear-gradient-25);}.cls-30{fill:url(#linear-gradient-26);}.cls-31{fill:url(#linear-gradient-27);}.cls-32{fill:url(#linear-gradient-28);}.cls-33{fill:url(#linear-gradient-29);}.cls-34{fill:url(#linear-gradient-30);}.cls-35{fill:url(#linear-gradient-31);}.cls-36{fill:url(#linear-gradient-32);}.cls-37{fill:url(#linear-gradient-33);}.cls-38{fill:url(#linear-gradient-34);}.cls-39{fill:url(#linear-gradient-35);}.cls-40{fill:url(#linear-gradient-36);}</style><linearGradient id="linear-gradient" x1="2160.92" y1="68.81" x2="2160.92" y2="38.67" gradientTransform="matrix(-1, 0, 0, 1, 2208.94, 0)" gradientUnits="userSpaceOnUse"><stop offset="0" stop-color="#4fa4ff"/><stop offset="1" stop-color="#1339e2"/></linearGradient><linearGradient id="linear-gradient-2" x1="2160.92" y1="63.97" x2="2160.92" y2="33.82" gradientTransform="matrix(-1, 0, 0, 1, 2208.94, 0)" gradientUnits="userSpaceOnUse"><stop offset="0" stop-color="#4f81ff"/><stop offset="1" stop-color="#1339e2"/></linearGradient><linearGradient id="linear-gradient-3" x1="2163.55" y1="30.42" x2="2130.91" y2="49.81" gradientTransform="matrix(-1, 0, 0, 1, 2208.94, 0)" gradientUnits="userSpaceOnUse"><stop offset="0" stop-color="#4f24ff"/><stop offset="1" stop-color="#00ffe2"/></linearGradient><linearGradient id="linear-gradient-4" x1="2189.87" y1="60.3" x2="2159.98" y2="31.07" xlink:href="#linear-gradient-3"/><linearGradient id="linear-gradient-5" x1="2166.05" y1="85.29" x2="2137.21" y2="61.96" xlink:href="#linear-gradient-3"/><linearGradient id="linear-gradient-6" x1="2183.18" y1="82.17" x2="2166.01" y2="66.44" xlink:href="#linear-gradient-3"/><linearGradient id="linear-gradient-7" x1="2160.92" y1="69.07" x2="2160.92" y2="38.92" xlink:href="#linear-gradient"/><linearGradient id="linear-gradient-8" x1="2160.92" y1="64.22" x2="2160.92" y2="34.07" xlink:href="#linear-gradient-2"/><linearGradient id="linear-gradient-9" x1="2163.55" y1="30.67" x2="2130.91" y2="50.07" xlink:href="#linear-gradient-3"/><linearGradient id="linear-gradient-10" x1="2189.87" y1="60.56" x2="2159.98" y2="31.33" xlink:href="#linear-gradient-3"/><linearGradient id="linear-gradient-11" x1="2166.05" y1="85.54" x2="2137.21" y2="62.21" xlink:href="#linear-gradient-3"/><linearGradient id="linear-gradient-12" x1="2183.18" y1="82.42" x2="2166.01" y2="66.69" xlink:href="#linear-gradient-3"/><linearGradient id="linear-gradient-13" x1="2175.89" y1="77.38" x2="2175.89" y2="47.62" xlink:href="#linear-gradient"/><linearGradient id="linear-gradient-14" x1="2175.89" y1="72.59" x2="2175.89" y2="42.83" xlink:href="#linear-gradient-2"/><linearGradient id="linear-gradient-15" x1="2178.49" y1="39.48" x2="2146.28" y2="58.63" xlink:href="#linear-gradient-3"/><linearGradient id="linear-gradient-16" x1="2204.47" y1="68.98" x2="2174.97" y2="40.12" xlink:href="#linear-gradient-3"/><linearGradient id="linear-gradient-17" x1="2180.96" y1="93.64" x2="2152.49" y2="70.61" xlink:href="#linear-gradient-3"/><linearGradient id="linear-gradient-18" x1="2197.87" y1="90.56" x2="2180.92" y2="75.04" xlink:href="#linear-gradient-3"/><linearGradient id="linear-gradient-19" x1="2175.89" y1="77.35" x2="2175.89" y2="47.58" xlink:href="#linear-gradient"/><linearGradient id="linear-gradient-20" x1="2175.89" y1="72.56" x2="2175.89" y2="42.8" xlink:href="#linear-gradient-2"/><linearGradient id="linear-gradient-21" x1="2178.49" y1="39.44" x2="2146.28" y2="58.59" xlink:href="#linear-gradient-3"/><linearGradient id="linear-gradient-22" x1="2204.47" y1="68.94" x2="2174.97" y2="40.09" xlink:href="#linear-gradient-3"/><linearGradient id="linear-gradient-23" x1="2180.96" y1="93.61" x2="2152.49" y2="70.57" xlink:href="#linear-gradient-3"/><linearGradient id="linear-gradient-24" x1="2197.87" y1="90.53" x2="2180.92" y2="75" xlink:href="#linear-gradient-3"/><linearGradient id="linear-gradient-25" x1="2180.14" y1="74.23" x2="2180.14" y2="44.47" xlink:href="#linear-gradient"/><linearGradient id="linear-gradient-26" x1="2180.14" y1="69.44" x2="2180.14" y2="39.68" xlink:href="#linear-gradient-2"/><linearGradient id="linear-gradient-27" x1="2182.74" y1="36.32" x2="2150.52" y2="55.47" xlink:href="#linear-gradient-3"/><linearGradient id="linear-gradient-28" x1="2208.72" y1="65.82" x2="2179.22" y2="36.97" xlink:href="#linear-gradient-3"/><linearGradient id="linear-gradient-29" x1="2185.2" y1="90.49" x2="2156.74" y2="67.46" xlink:href="#linear-gradient-3"/><linearGradient id="linear-gradient-30" x1="2202.12" y1="87.41" x2="2185.17" y2="71.88" xlink:href="#linear-gradient-3"/><linearGradient id="linear-gradient-31" x1="2180.14" y1="74.19" x2="2180.14" y2="44.43" xlink:href="#linear-gradient"/><linearGradient id="linear-gradient-32" x1="2180.14" y1="69.4" x2="2180.14" y2="39.64" xlink:href="#linear-gradient-2"/><linearGradient id="linear-gradient-33" x1="2182.74" y1="36.28" x2="2150.52" y2="55.43" xlink:href="#linear-gradient-3"/><linearGradient id="linear-gradient-34" x1="2208.72" y1="65.79" x2="2179.22" y2="36.93" xlink:href="#linear-gradient-3"/><linearGradient id="linear-gradient-35" x1="2185.2" y1="90.45" x2="2156.74" y2="67.42" xlink:href="#linear-gradient-3"/><linearGradient id="linear-gradient-36" x1="2202.12" y1="87.37" x2="2185.17" y2="71.85" xlink:href="#linear-gradient-3"/></defs><g class="cls-1"><g id="Layer_2" data-name="Layer 2"><g id="content"><g class="cls-2"><g class="cls-3"><polygon class="cls-4" points="70.64 53.74 44.78 68.81 18.92 53.74 44.78 38.67 70.64 53.74"/><polygon class="cls-5" points="70.64 48.89 44.78 63.97 18.92 48.89 44.78 33.82 70.64 48.89"/><polygon class="cls-6" points="70.64 48.89 44.78 0 44.78 63.97 70.64 48.89"/><polygon class="cls-7" points="18.92 48.89 44.78 0 44.78 63.97 18.92 48.89"/><polygon class="cls-8" points="70.64 53.74 44.78 93.46 44.78 68.81 70.64 53.74"/><polygon class="cls-9" points="18.92 53.74 44.78 93.46 44.78 68.81 18.92 53.74"/></g><g class="cls-3"><polygon class="cls-10" points="70.64 54 44.78 69.07 18.92 54 44.78 38.92 70.64 54"/><polygon class="cls-11" points="70.64 49.15 44.78 64.22 18.92 49.15 44.78 34.07 70.64 49.15"/><polygon class="cls-12" points="70.64 49.15 44.78 0.26 44.78 64.22 70.64 49.15"/><polygon class="cls-13" points="18.92 49.15 44.78 0.26 44.78 64.22 18.92 49.15"/><polygon class="cls-14" points="70.64 54 44.78 93.71 44.78 69.07 70.64 54"/><polygon class="cls-15" points="18.92 54 44.78 93.71 44.78 69.07 18.92 54"/></g></g><g id="_2" data-name="2"><polygon class="cls-16" points="55.31 62.5 29.78 77.38 4.25 62.5 29.78 47.62 55.31 62.5"/><polygon class="cls-17" points="55.31 57.71 29.78 72.59 4.25 57.71 29.78 42.83 55.31 57.71"/><polygon class="cls-18" points="55.31 57.71 29.78 9.45 29.78 72.59 55.31 57.71"/><polygon class="cls-19" points="4.25 57.71 29.78 9.45 29.78 72.59 4.25 57.71"/><polygon class="cls-20" points="55.31 62.5 29.78 101.71 29.78 77.38 55.31 62.5"/><polygon class="cls-21" points="4.25 62.5 29.78 101.71 29.78 77.38 4.25 62.5"/><g class="cls-3"><polygon class="cls-22" points="55.31 62.47 29.78 77.34 4.25 62.47 29.78 47.59 55.31 62.47"/><polygon class="cls-23" points="55.31 57.68 29.78 72.56 4.25 57.68 29.78 42.8 55.31 57.68"/><polygon class="cls-24" points="55.31 57.68 29.78 9.41 29.78 72.56 55.31 57.68"/><polygon class="cls-25" points="4.25 57.68 29.78 9.41 29.78 72.56 4.25 57.68"/><polygon class="cls-26" points="55.31 62.47 29.78 101.67 29.78 77.34 55.31 62.47"/><polygon class="cls-27" points="4.25 62.47 29.78 101.67 29.78 77.34 4.25 62.47"/></g><g class="cls-28"><polygon class="cls-29" points="51.06 59.35 25.53 74.23 0 59.35 25.53 44.47 51.06 59.35"/><polygon class="cls-30" points="51.06 54.56 25.53 69.44 0 54.56 25.53 39.68 51.06 54.56"/><polygon class="cls-31" points="51.06 54.56 25.53 6.3 25.53 69.44 51.06 54.56"/><polygon class="cls-32" points="0 54.56 25.53 6.3 25.53 69.44 0 54.56"/><polygon class="cls-33" points="51.06 59.35 25.53 98.55 25.53 74.23 51.06 59.35"/><polygon class="cls-34" points="0 59.35 25.53 98.55 25.53 74.23 0 59.35"/><g class="cls-3"><polygon class="cls-35" points="51.06 59.31 25.53 74.19 0 59.31 25.53 44.43 51.06 59.31"/><polygon class="cls-36" points="51.06 54.52 25.53 69.4 0 54.52 25.53 39.64 51.06 54.52"/><polygon class="cls-37" points="51.06 54.52 25.53 6.26 25.53 69.4 51.06 54.52"/><polygon class="cls-38" points="0 54.52 25.53 6.26 25.53 69.4 0 54.52"/><polygon class="cls-39" points="51.06 59.31 25.53 98.52 25.53 74.19 51.06 59.31"/><polygon class="cls-40" points="0 59.31 25.53 98.52 25.53 74.19 0 59.31"/></g></g></g></g></g></g></svg>