<svg xmlns="http://www.w3.org/2000/svg" xmlns:xlink="http://www.w3.org/1999/xlink" viewBox="0 0 79.36 82.28"><defs><style>.cls-1{isolation:isolate;}.cls-2{opacity:0.9;}.cls-3{fill:#fff;opacity:0;}.cls-4{fill:#fcf9fd;opacity:0.02;}.cls-10,.cls-11,.cls-12,.cls-13,.cls-14,.cls-15,.cls-16,.cls-17,.cls-18,.cls-19,.cls-20,.cls-21,.cls-22,.cls-23,.cls-24,.cls-25,.cls-26,.cls-27,.cls-28,.cls-29,.cls-30,.cls-31,.cls-32,.cls-33,.cls-34,.cls-35,.cls-36,.cls-37,.cls-38,.cls-39,.cls-4,.cls-40,.cls-41,.cls-42,.cls-43,.cls-44,.cls-5,.cls-6,.cls-7,.cls-8,.cls-9{mix-blend-mode:multiply;}.cls-5{fill:#f9f3fc;opacity:0.05;}.cls-6{fill:#f6ecfa;opacity:0.07;}.cls-7{fill:#f3e6f8;opacity:0.1;}.cls-8{fill:#f0e0f7;opacity:0.12;}.cls-9{fill:#eedaf5;opacity:0.15;}.cls-10{fill:#ebd3f3;opacity:0.17;}.cls-11{fill:#e8cdf2;opacity:0.2;}.cls-12{fill:#e5c7f0;opacity:0.22;}.cls-13{fill:#e2c1ee;opacity:0.24;}.cls-14{fill:#dfbbec;opacity:0.27;}.cls-15{fill:#dcb4eb;opacity:0.29;}.cls-16{fill:#d9aee9;opacity:0.32;}.cls-17{fill:#d6a8e7;opacity:0.34;}.cls-18{fill:#d3a2e6;opacity:0.37;}.cls-19{fill:#d19be4;opacity:0.39;}.cls-20{fill:#ce95e2;opacity:0.41;}.cls-21{fill:#cb8fe1;opacity:0.44;}.cls-22{fill:#c889df;opacity:0.46;}.cls-23{fill:#c583dd;opacity:0.49;}.cls-24{fill:#c27cdc;opacity:0.51;}.cls-25{fill:#bf76da;opacity:0.54;}.cls-26{fill:#bc70d8;opacity:0.56;}.cls-27{fill:#b96ad7;opacity:0.59;}.cls-28{fill:#b664d5;opacity:0.61;}.cls-29{fill:#b45dd3;opacity:0.63;}.cls-30{fill:#b157d2;opacity:0.66;}.cls-31{fill:#ae51d0;opacity:0.68;}.cls-32{fill:#ab4bce;opacity:0.71;}.cls-33{fill:#a844cd;opacity:0.73;}.cls-34{fill:#a53ecb;opacity:0.76;}.cls-35{fill:#a238c9;opacity:0.78;}.cls-36{fill:#9f32c7;opacity:0.8;}.cls-37{fill:#9c2cc6;opacity:0.83;}.cls-38{fill:#9925c4;opacity:0.85;}.cls-39{fill:#971fc2;opacity:0.88;}.cls-40{fill:#9419c1;opacity:0.9;}.cls-41{fill:#9113bf;opacity:0.93;}.cls-42{fill:#8e0cbd;opacity:0.95;}.cls-43{fill:#8b06bc;opacity:0.98;}.cls-44{fill:#8800ba;}.cls-45{fill:url(#linear-gradient);}.cls-46{fill:url(#linear-gradient-2);}.cls-47{fill:url(#linear-gradient-3);}.cls-48{fill:url(#linear-gradient-4);}.cls-49{fill:url(#linear-gradient-5);}.cls-50{fill:url(#linear-gradient-6);}.cls-51{fill:#eab6ff;opacity:0.5;}.cls-51,.cls-52,.cls-53{mix-blend-mode:overlay;}.cls-52,.cls-53{opacity:0.4;}.cls-52{fill:url(#linear-gradient-7);}.cls-53{fill:url(#linear-gradient-8);}.cls-54{fill:url(#linear-gradient-9);}.cls-55{fill:url(#linear-gradient-10);}.cls-56{fill:url(#linear-gradient-11);}.cls-57{fill:url(#linear-gradient-12);}.cls-58{fill:url(#linear-gradient-13);}.cls-59{fill:url(#linear-gradient-14);}</style><linearGradient id="linear-gradient" x1="43.31" y1="51.4" x2="36.84" y2="51.4" gradientUnits="userSpaceOnUse"><stop offset="0" stop-color="#3d00e7"/><stop offset="1" stop-color="#6031ff"/></linearGradient><linearGradient id="linear-gradient-2" x1="109.76" y1="83.34" x2="10.82" y2="16.77" gradientUnits="userSpaceOnUse"><stop offset="0" stop-color="#6318ff"/><stop offset="1" stop-color="#fff6ff"/></linearGradient><linearGradient id="linear-gradient-3" x1="43.31" y1="31.29" x2="36.84" y2="31.29" xlink:href="#linear-gradient"/><linearGradient id="linear-gradient-4" x1="123.85" y1="84.25" x2="20.89" y2="9.46" xlink:href="#linear-gradient-2"/><linearGradient id="linear-gradient-5" x1="27.36" y1="22.85" x2="52" y2="22.85" gradientUnits="userSpaceOnUse"><stop offset="0" stop-color="#4500ff"/><stop offset="1" stop-color="#6a31ff"/></linearGradient><linearGradient id="linear-gradient-6" x1="40.55" y1="20.3" x2="36.83" y2="20.3" gradientUnits="userSpaceOnUse"><stop offset="0" stop-color="#3600f4"/><stop offset="1" stop-color="#330ee0"/></linearGradient><linearGradient id="linear-gradient-7" x1="42.71" y1="22.98" x2="36.88" y2="22.98" gradientUnits="userSpaceOnUse"><stop offset="0" stop-color="#8161e2"/><stop offset="1" stop-color="#caccff"/></linearGradient><linearGradient id="linear-gradient-8" x1="42.71" y1="22.98" x2="36.88" y2="22.98" gradientUnits="userSpaceOnUse"><stop offset="0" stop-color="#8161e2"/><stop offset="1" stop-color="#9554ff"/></linearGradient><linearGradient id="linear-gradient-9" x1="65.76" y1="73.94" x2="16.8" y2="55.94" gradientUnits="userSpaceOnUse"><stop offset="0" stop-color="#6318ff"/><stop offset="1" stop-color="#13ffe2"/></linearGradient><linearGradient id="linear-gradient-10" x1="20.25" y1="58.17" x2="24.25" y2="73.95" xlink:href="#linear-gradient-9"/><linearGradient id="linear-gradient-11" x1="5.46" y1="49.7" x2="19.6" y2="70.54" xlink:href="#linear-gradient-9"/><linearGradient id="linear-gradient-12" x1="65.76" y1="68.04" x2="16.8" y2="50.05" xlink:href="#linear-gradient-9"/><linearGradient id="linear-gradient-13" x1="21.66" y1="51.91" x2="22.83" y2="56.53" xlink:href="#linear-gradient-9"/><linearGradient id="linear-gradient-14" x1="11.39" y1="46.6" x2="17.96" y2="56.28" xlink:href="#linear-gradient-9"/></defs><g class="cls-1"><g id="Layer_2" data-name="Layer 2"><g id="content"><g class="cls-2"><path class="cls-3" d="M33.3,80.64,2.81,63C-1.36,60.55-.83,56.34,4,53.56L29.77,38.74c4.83-2.77,12.12-3.06,16.29-.65L76.55,55.77c4.17,2.41,3.64,6.62-1.19,9.4L49.59,80C44.76,82.77,37.47,83.06,33.3,80.64Z"/><path class="cls-4" d="M33.38,80.35,3.31,62.92C-.8,60.53-.28,56.38,4.48,53.64L29.91,39c4.76-2.74,12-3,16.07-.64L76.05,55.81c4.11,2.39,3.59,6.54-1.17,9.28L49.45,79.71C44.69,82.45,37.5,82.73,33.38,80.35Z"/><path class="cls-5" d="M33.47,80.06,3.81,62.87C-.24,60.52.27,56.42,5,53.72L30,39.3c4.7-2.7,11.79-3,15.85-.63L75.55,55.86c4,2.36,3.54,6.45-1.16,9.15L49.32,79.43C44.62,82.13,37.53,82.41,33.47,80.06Z"/><path class="cls-6" d="M33.56,79.77,4.32,62.82c-4-2.32-3.5-6.36,1.13-9L30.18,39.58C34.81,36.92,41.8,36.64,45.8,39L75.05,55.91c4,2.32,3.49,6.36-1.14,9L49.18,79.15C44.55,81.81,37.56,82.09,33.56,79.77Z"/><path class="cls-7" d="M33.64,79.48,4.82,62.77C.87,60.48,1.37,56.5,5.94,53.88l24.37-14c4.57-2.62,11.46-2.9,15.41-.61L74.54,56c3.95,2.29,3.45,6.27-1.12,8.89l-24.37,14C44.48,81.49,37.59,81.77,33.64,79.48Z"/><path class="cls-8" d="M33.73,79.19,5.32,62.72c-3.89-2.25-3.4-6.18,1.1-8.76l24-13.82c4.5-2.58,11.29-2.85,15.18-.6L74,56c3.89,2.25,3.4,6.18-1.1,8.76l-24,13.82C44.42,81.18,37.62,81.44,33.73,79.19Z"/><path class="cls-9" d="M33.82,78.9l-28-16.23C2,60.45,2.48,56.59,6.91,54L30.58,40.42c4.43-2.55,11.13-2.81,15-.59l28,16.23c3.83,2.22,3.35,6.09-1.09,8.63L48.78,78.31C44.35,80.86,37.65,81.12,33.82,78.9Z"/><path class="cls-10" d="M33.9,78.61l-27.58-16c-3.77-2.18-3.29-6,1.07-8.5L30.72,40.7c4.36-2.51,11-2.77,14.74-.58L73,56.11c3.78,2.19,3.29,6-1.07,8.51L48.64,78C44.28,80.54,37.68,80.8,33.9,78.61Z"/><path class="cls-11" d="M34,78.32,6.82,62.57c-3.72-2.15-3.24-5.9,1.06-8.38L30.85,41c4.3-2.47,10.8-2.73,14.52-.57L72.54,56.16c3.72,2.15,3.24,5.9-1.06,8.38l-23,13.21C44.21,80.22,37.71,80.48,34,78.32Z"/><path class="cls-12" d="M34.08,78,7.32,62.53c-3.66-2.13-3.19-5.82,1-8.26L31,41.26c4.23-2.43,10.63-2.69,14.29-.56L72,56.21c3.66,2.12,3.19,5.81-1,8.25l-22.63,13C44.14,79.9,37.74,80.16,34.08,78Z"/><path class="cls-13" d="M34.16,77.75,7.82,62.48c-3.6-2.09-3.14-5.73,1-8.13L31.12,41.54C35.29,39.15,41.59,38.9,45.2,41L71.54,56.25c3.6,2.09,3.14,5.73-1,8.13L48.24,77.19C44.07,79.58,37.77,79.83,34.16,77.75Z"/><path class="cls-14" d="M34.25,77.46l-25.93-15c-3.54-2.06-3.09-5.64,1-8L31.26,41.82c4.1-2.36,10.3-2.6,13.85-.55L71,56.3c3.54,2.06,3.09,5.64-1,8L48.11,76.91C44,79.27,37.8,79.51,34.25,77.46Z"/><path class="cls-15" d="M34.34,77.17,8.83,62.38c-3.49-2-3-5.55,1-7.87l21.57-12.4c4-2.33,10.14-2.57,13.63-.55L70.54,56.35c3.49,2,3,5.55-1,7.87L48,76.63C43.93,79,37.83,79.19,34.34,77.17Z"/><path class="cls-16" d="M34.42,76.88,9.33,62.33c-3.44-2-3-5.46,1-7.74l21.23-12.2c4-2.29,10-2.53,13.41-.54L70,56.4c3.44,2,3,5.46-1,7.74L47.84,76.35C43.86,78.63,37.86,78.87,34.42,76.88Z"/><path class="cls-17" d="M34.51,76.59,9.83,62.28c-3.38-2-2.95-5.37,1-7.61l20.87-12c3.91-2.25,9.81-2.49,13.19-.53L69.53,56.45c3.38,2,3,5.37-1,7.61l-20.87,12C43.79,78.31,37.89,78.55,34.51,76.59Z"/><path class="cls-18" d="M34.6,76.3,10.33,62.23C7,60.31,7.43,57,11.27,54.75L31.79,43c3.85-2.21,9.65-2.44,13-.52L69,56.5c3.32,1.92,2.9,5.28-.94,7.48L47.57,75.79C43.72,78,37.92,78.22,34.6,76.3Z"/><path class="cls-19" d="M34.69,76,10.83,62.18C7.57,60.29,8,57,11.76,54.83l20.17-11.6c3.78-2.17,9.48-2.4,12.75-.51L68.53,56.55c3.26,1.89,2.85,5.18-.93,7.36L47.43,75.5C43.66,77.68,38,77.9,34.69,76Z"/><path class="cls-20" d="M34.77,75.72,11.33,62.13c-3.21-1.85-2.8-5.09.91-7.23L32.06,43.51c3.71-2.14,9.32-2.36,12.53-.5L68,56.6c3.21,1.86,2.8,5.09-.91,7.23L47.3,75.22C43.59,77.36,38,77.58,34.77,75.72Z"/><path class="cls-21" d="M34.86,75.43l-23-13.34c-3.15-1.83-2.75-5,.9-7.11L32.2,43.79c3.64-2.1,9.15-2.32,12.3-.49l23,13.35c3.15,1.82,2.75,5-.9,7.1L47.16,74.94C43.52,77,38,77.26,34.86,75.43Z"/><path class="cls-22" d="M35,75.14,12.33,62c-3.09-1.8-2.7-4.92.88-7l19.12-11c3.58-2.06,9-2.28,12.09-.48L67,56.7c3.09,1.79,2.7,4.91-.88,7L47,74.66C43.45,76.72,38,76.94,35,75.14Z"/><path class="cls-23" d="M35,74.85,12.84,62c-3-1.76-2.66-4.83.86-6.85L32.47,44.35c3.51-2,8.82-2.23,11.86-.47l22.2,12.86c3,1.76,2.65,4.83-.87,6.85L46.89,74.38C43.38,76.4,38.07,76.61,35,74.85Z"/><path class="cls-24" d="M35.12,74.57,13.34,61.94c-3-1.73-2.6-4.74.84-6.72L32.6,44.63c3.45-2,8.66-2.19,11.64-.46L66,56.79c3,1.73,2.61,4.74-.84,6.72L46.76,74.1C43.31,76.09,38.1,76.29,35.12,74.57Z"/><path class="cls-25" d="M35.21,74.28,13.84,61.89c-2.93-1.7-2.55-4.65.83-6.59L32.74,44.91c3.38-1.95,8.49-2.15,11.42-.45L65.52,56.84c2.93,1.7,2.55,4.65-.83,6.59L46.62,73.82C43.24,75.77,38.13,76,35.21,74.28Z"/><path class="cls-26" d="M35.29,74,14.34,61.84c-2.87-1.66-2.5-4.55.81-6.46L32.87,45.19c3.32-1.91,8.33-2.11,11.2-.45L65,56.89c2.87,1.66,2.5,4.56-.81,6.46L46.49,73.54C43.17,75.45,38.16,75.65,35.29,74Z"/><path class="cls-27" d="M35.38,73.7,14.84,61.79c-2.81-1.63-2.45-4.46.8-6.33L33,45.47c3.25-1.87,8.16-2.07,11-.44L64.52,56.94c2.81,1.63,2.45,4.47-.8,6.33l-17.37,10C43.1,75.13,38.19,75.33,35.38,73.7Z"/><path class="cls-28" d="M35.47,73.41,15.34,61.74c-2.75-1.59-2.4-4.37.78-6.2l17-9.79c3.19-1.83,8-2,10.75-.43L64,57c2.75,1.59,2.4,4.37-.78,6.21L46.22,73C43,74.81,38.22,75,35.47,73.41Z"/><path class="cls-29" d="M35.55,73.12,15.84,61.69c-2.69-1.56-2.35-4.28.77-6.08L33.28,46c3.12-1.79,7.83-2,10.53-.42L63.52,57c2.7,1.56,2.35,4.28-.77,6.08L46.09,72.7C43,74.5,38.25,74.68,35.55,73.12Z"/><path class="cls-30" d="M35.64,72.83,16.34,61.64c-2.64-1.53-2.3-4.19.75-6l16.32-9.38c3.05-1.76,7.67-1.94,10.31-.41L63,57.09c2.64,1.53,2.3,4.19-.75,5.95L46,72.42C42.9,74.18,38.28,74.36,35.64,72.83Z"/><path class="cls-31" d="M35.73,72.54,16.84,61.6c-2.58-1.5-2.25-4.11.74-5.83l16-9.18c3-1.72,7.5-1.9,10.08-.4l18.89,11c2.58,1.49,2.25,4.1-.74,5.82l-16,9.18C42.83,73.86,38.31,74,35.73,72.54Z"/><path class="cls-32" d="M35.81,72.25,17.35,61.55c-2.53-1.47-2.21-4,.71-5.7l15.62-9C36.6,45.19,41,45,43.55,46.48L62,57.18c2.52,1.47,2.2,4-.72,5.7l-15.62,9C42.76,73.54,38.34,73.72,35.81,72.25Z"/><path class="cls-33" d="M35.9,72l-18-10.46c-2.47-1.43-2.16-3.93.7-5.57l15.26-8.78c2.86-1.64,7.18-1.81,9.65-.38l18,10.46c2.47,1.44,2.16,3.93-.7,5.57L45.55,71.58C42.69,73.22,38.37,73.39,35.9,72Z"/><path class="cls-34" d="M36,71.67,18.35,61.45c-2.42-1.4-2.11-3.84.68-5.44L34,47.43c2.79-1.6,7-1.77,9.42-.37L61,57.28c2.42,1.4,2.11,3.84-.68,5.44L45.41,71.3C42.62,72.9,38.4,73.07,36,71.67Z"/><path class="cls-35" d="M36.07,71.38l-17.22-10c-2.36-1.37-2.06-3.74.67-5.31l14.56-8.38c2.73-1.57,6.85-1.73,9.21-.36l17.22,10c2.36,1.37,2.06,3.75-.67,5.31L45.28,71C42.55,72.59,38.43,72.75,36.07,71.38Z"/><path class="cls-36" d="M36.16,71.1,19.35,61.35c-2.3-1.33-2-3.65.65-5.18L34.22,48c2.66-1.53,6.68-1.69,9-.35L60,57.38c2.3,1.33,2,3.65-.65,5.18L45.14,70.74C42.48,72.27,38.46,72.43,36.16,71.1Z"/><path class="cls-37" d="M36.25,70.81,19.85,61.3c-2.24-1.3-2-3.56.64-5l13.86-8c2.6-1.49,6.52-1.64,8.76-.34l16.4,9.5c2.24,1.3,2,3.56-.64,5.06L45,70.46C42.41,72,38.49,72.11,36.25,70.81Z"/><path class="cls-38" d="M36.33,70.52l-16-9.27c-2.18-1.26-1.91-3.47.62-4.93l13.52-7.77C37,47.1,40.84,47,43,48.21l16,9.27c2.18,1.27,1.91,3.47-.62,4.93L44.87,70.18C42.34,71.63,38.52,71.78,36.33,70.52Z"/><path class="cls-39" d="M36.42,70.23l-15.57-9c-2.13-1.23-1.85-3.38.61-4.8l13.16-7.57c2.47-1.41,6.19-1.56,8.32-.33l15.57,9c2.13,1.23,1.86,3.38-.61,4.8L44.74,69.9C42.27,71.31,38.55,71.46,36.42,70.23Z"/><path class="cls-40" d="M36.51,69.94,21.36,61.16c-2.08-1.21-1.81-3.3.58-4.68l12.82-7.37c2.4-1.37,6-1.52,8.09-.32L58,57.58c2.07,1.2,1.8,3.29-.59,4.67L44.6,69.62C42.21,71,38.58,71.14,36.51,69.94Z"/><path class="cls-41" d="M36.59,69.65,21.86,61.11c-2-1.17-1.76-3.21.57-4.55l12.46-7.17c2.33-1.34,5.86-1.48,7.88-.31L57.5,57.63c2,1.16,1.76,3.2-.57,4.54L44.47,69.34C42.14,70.68,38.61,70.82,36.59,69.65Z"/><path class="cls-42" d="M36.68,69.36l-14.32-8.3c-2-1.14-1.71-3.12.55-4.42l12.12-7a8.5,8.5,0,0,1,7.65-.31L57,57.67c2,1.14,1.71,3.12-.55,4.42l-12.12,7C42.07,70.36,38.64,70.5,36.68,69.36Z"/><path class="cls-43" d="M36.77,69.07,22.86,61c-1.9-1.1-1.66-3,.54-4.29L35.16,50a8.25,8.25,0,0,1,7.43-.3L56.5,57.72c1.91,1.11,1.66,3-.54,4.29L44.2,68.78A8.28,8.28,0,0,1,36.77,69.07Z"/><path class="cls-44" d="M36.85,68.78,23.36,61c-1.85-1.07-1.61-2.93.52-4.16L35.3,50.24A8,8,0,0,1,42.51,50L56,57.77c1.85,1.07,1.61,2.94-.52,4.16L44.07,68.5A8.06,8.06,0,0,1,36.85,68.78Z"/></g><path class="cls-45" d="M59.67,55.7l-.08-19.05-40.15-.79.09,18.71a1,1,0,0,0,.58,1.21L38.32,66.55A4.12,4.12,0,0,0,42,66.44L58.76,57C59.42,56.64,59.73,56.15,59.67,55.7Z"/><path class="cls-46" d="M38.23,47.28,20,36.51c-.94-.55-.81-1.51.29-2.13L37.05,25a4.14,4.14,0,0,1,3.7-.12L59,35.6c.95.56.82,1.52-.28,2.14L41.94,47.17A4.12,4.12,0,0,1,38.23,47.28Z"/><path class="cls-47" d="M59.69,31.71V23.52l-13.51-.3-5.34-3.16a4.14,4.14,0,0,0-3.7.12L32.3,22.91l-12.81-.29v8.21a1.08,1.08,0,0,0,.63.91L38.33,42.52A4.14,4.14,0,0,0,42,42.4L58.77,33A1.49,1.49,0,0,0,59.69,31.71Z"/><path class="cls-48" d="M38.33,34.27,20.11,23.5c-.94-.56-.81-1.51.29-2.13l16.74-9.44a4.1,4.1,0,0,1,3.7-.11L59.06,22.59c.94.56.81,1.51-.29,2.14L42,34.16A4.1,4.1,0,0,1,38.33,34.27Z"/><path class="cls-49" d="M38.91,29.73l-11.16-6.6c-.58-.34-.5-.93.18-1.31L38.18,16A2.53,2.53,0,0,1,40.45,16l11.16,6.6c.58.34.5.93-.18,1.31L41.18,29.66A2.53,2.53,0,0,1,38.91,29.73Z"/><path class="cls-50" d="M27.75,23.15l1.86,1.1,8.57-4.83a2.53,2.53,0,0,1,2.27-.07l9.3,5.5,1.68-1c.68-.38.76-1,.18-1.31L40.45,16a2.53,2.53,0,0,0-2.27.07L27.93,21.84C27.25,22.22,27.17,22.81,27.75,23.15Z"/><path class="cls-51" d="M38.33,22.84,20.11,12.07c-.94-.56-.81-1.52.29-2.14L37.14.5a4.1,4.1,0,0,1,3.7-.11L59.06,11.16c.94.56.81,1.51-.29,2.13L42,22.73A4.1,4.1,0,0,1,38.33,22.84Z"/><path class="cls-52" d="M58.77,13.29,42,22.73a4.1,4.1,0,0,1-3.7.11L20.11,12.07a1.15,1.15,0,0,1-.63-.89V22.7a1.11,1.11,0,0,0,.63.92L38.33,34.39A4.12,4.12,0,0,0,42,34.28l16.73-9.43a1.5,1.5,0,0,0,.92-1.26V12.09A1.51,1.51,0,0,1,58.77,13.29Z"/><path class="cls-53" d="M58.77,13.29,42,22.73a4.1,4.1,0,0,1-3.7.11L20.11,12.07a1.15,1.15,0,0,1-.63-.89V22.7a1.11,1.11,0,0,0,.63.92L38.33,34.39A4.12,4.12,0,0,0,42,34.28l16.73-9.43a1.5,1.5,0,0,0,.92-1.26V12.09A1.51,1.51,0,0,1,58.77,13.29Z"/><polygon class="cls-54" points="13.67 56.85 19.39 53.57 25.11 56.93 19.39 60.22 13.67 56.85"/><polygon class="cls-55" points="19.39 75.19 19.39 60.22 25.11 56.93 25.11 71.9 19.39 75.19"/><polygon class="cls-56" points="13.67 56.85 13.67 71.82 19.39 75.19 19.39 60.22 13.67 56.85"/><polygon class="cls-57" points="13.67 50.96 19.39 47.67 25.11 51.04 19.39 54.33 13.67 50.96"/><polygon class="cls-58" points="19.39 57.4 19.39 54.33 25.11 51.04 25.11 54.12 19.39 57.4"/><polygon class="cls-59" points="13.67 50.96 13.67 54.04 19.39 57.4 19.39 54.33 13.67 50.96"/></g></g></g></svg>